<mxfile host="Electron" modified="2023-09-15T03:30:38.739Z" agent="Mozilla/5.0 (Windows NT 10.0; Win64; x64) AppleWebKit/537.36 (KHTML, like Gecko) draw.io/21.6.5 Chrome/114.0.5735.243 Electron/25.3.1 Safari/537.36" etag="yUbY3QLBlptZQciTMO-t" version="21.6.5" type="device">
  <diagram name="PÃ¡gina-1" id="ncdCFwOYkBdZ3xvLzDN_">
    <mxGraphModel dx="4750" dy="3820" grid="1" gridSize="10" guides="1" tooltips="1" connect="1" arrows="1" fold="1" page="1" pageScale="1" pageWidth="850" pageHeight="1100" math="0" shadow="0">
      <root>
        <mxCell id="0" />
        <mxCell id="1" parent="0" />
        <mxCell id="hcWVQAkEK2Su6mpxol3i-1" value="Clientes" style="shape=table;startSize=30;container=1;collapsible=1;childLayout=tableLayout;fixedRows=1;rowLines=0;fontStyle=1;align=center;resizeLast=1;html=1;" parent="1" vertex="1">
          <mxGeometry x="1615" y="-520" width="180" height="270" as="geometry" />
        </mxCell>
        <mxCell id="hcWVQAkEK2Su6mpxol3i-2" value="" style="shape=tableRow;horizontal=0;startSize=0;swimlaneHead=0;swimlaneBody=0;fillColor=none;collapsible=0;dropTarget=0;points=[[0,0.5],[1,0.5]];portConstraint=eastwest;top=0;left=0;right=0;bottom=1;" parent="hcWVQAkEK2Su6mpxol3i-1" vertex="1">
          <mxGeometry y="30" width="180" height="30" as="geometry" />
        </mxCell>
        <mxCell id="hcWVQAkEK2Su6mpxol3i-3" value="PK" style="shape=partialRectangle;connectable=0;fillColor=none;top=0;left=0;bottom=0;right=0;fontStyle=1;overflow=hidden;whiteSpace=wrap;html=1;" parent="hcWVQAkEK2Su6mpxol3i-2" vertex="1">
          <mxGeometry width="30" height="30" as="geometry">
            <mxRectangle width="30" height="30" as="alternateBounds" />
          </mxGeometry>
        </mxCell>
        <mxCell id="hcWVQAkEK2Su6mpxol3i-4" value="CodigoCliente" style="shape=partialRectangle;connectable=0;fillColor=none;top=0;left=0;bottom=0;right=0;align=left;spacingLeft=6;fontStyle=5;overflow=hidden;whiteSpace=wrap;html=1;" parent="hcWVQAkEK2Su6mpxol3i-2" vertex="1">
          <mxGeometry x="30" width="150" height="30" as="geometry">
            <mxRectangle width="150" height="30" as="alternateBounds" />
          </mxGeometry>
        </mxCell>
        <mxCell id="hcWVQAkEK2Su6mpxol3i-5" value="" style="shape=tableRow;horizontal=0;startSize=0;swimlaneHead=0;swimlaneBody=0;fillColor=none;collapsible=0;dropTarget=0;points=[[0,0.5],[1,0.5]];portConstraint=eastwest;top=0;left=0;right=0;bottom=0;" parent="hcWVQAkEK2Su6mpxol3i-1" vertex="1">
          <mxGeometry y="60" width="180" height="30" as="geometry" />
        </mxCell>
        <mxCell id="hcWVQAkEK2Su6mpxol3i-6" value="" style="shape=partialRectangle;connectable=0;fillColor=none;top=0;left=0;bottom=0;right=0;editable=1;overflow=hidden;whiteSpace=wrap;html=1;" parent="hcWVQAkEK2Su6mpxol3i-5" vertex="1">
          <mxGeometry width="30" height="30" as="geometry">
            <mxRectangle width="30" height="30" as="alternateBounds" />
          </mxGeometry>
        </mxCell>
        <mxCell id="hcWVQAkEK2Su6mpxol3i-7" value="DNI" style="shape=partialRectangle;connectable=0;fillColor=none;top=0;left=0;bottom=0;right=0;align=left;spacingLeft=6;overflow=hidden;whiteSpace=wrap;html=1;" parent="hcWVQAkEK2Su6mpxol3i-5" vertex="1">
          <mxGeometry x="30" width="150" height="30" as="geometry">
            <mxRectangle width="150" height="30" as="alternateBounds" />
          </mxGeometry>
        </mxCell>
        <mxCell id="hcWVQAkEK2Su6mpxol3i-8" value="" style="shape=tableRow;horizontal=0;startSize=0;swimlaneHead=0;swimlaneBody=0;fillColor=none;collapsible=0;dropTarget=0;points=[[0,0.5],[1,0.5]];portConstraint=eastwest;top=0;left=0;right=0;bottom=0;" parent="hcWVQAkEK2Su6mpxol3i-1" vertex="1">
          <mxGeometry y="90" width="180" height="30" as="geometry" />
        </mxCell>
        <mxCell id="hcWVQAkEK2Su6mpxol3i-9" value="" style="shape=partialRectangle;connectable=0;fillColor=none;top=0;left=0;bottom=0;right=0;editable=1;overflow=hidden;whiteSpace=wrap;html=1;" parent="hcWVQAkEK2Su6mpxol3i-8" vertex="1">
          <mxGeometry width="30" height="30" as="geometry">
            <mxRectangle width="30" height="30" as="alternateBounds" />
          </mxGeometry>
        </mxCell>
        <mxCell id="hcWVQAkEK2Su6mpxol3i-10" value="nombre" style="shape=partialRectangle;connectable=0;fillColor=none;top=0;left=0;bottom=0;right=0;align=left;spacingLeft=6;overflow=hidden;whiteSpace=wrap;html=1;" parent="hcWVQAkEK2Su6mpxol3i-8" vertex="1">
          <mxGeometry x="30" width="150" height="30" as="geometry">
            <mxRectangle width="150" height="30" as="alternateBounds" />
          </mxGeometry>
        </mxCell>
        <mxCell id="hcWVQAkEK2Su6mpxol3i-11" value="" style="shape=tableRow;horizontal=0;startSize=0;swimlaneHead=0;swimlaneBody=0;fillColor=none;collapsible=0;dropTarget=0;points=[[0,0.5],[1,0.5]];portConstraint=eastwest;top=0;left=0;right=0;bottom=0;" parent="hcWVQAkEK2Su6mpxol3i-1" vertex="1">
          <mxGeometry y="120" width="180" height="30" as="geometry" />
        </mxCell>
        <mxCell id="hcWVQAkEK2Su6mpxol3i-12" value="" style="shape=partialRectangle;connectable=0;fillColor=none;top=0;left=0;bottom=0;right=0;editable=1;overflow=hidden;whiteSpace=wrap;html=1;" parent="hcWVQAkEK2Su6mpxol3i-11" vertex="1">
          <mxGeometry width="30" height="30" as="geometry">
            <mxRectangle width="30" height="30" as="alternateBounds" />
          </mxGeometry>
        </mxCell>
        <mxCell id="hcWVQAkEK2Su6mpxol3i-13" value="papellido" style="shape=partialRectangle;connectable=0;fillColor=none;top=0;left=0;bottom=0;right=0;align=left;spacingLeft=6;overflow=hidden;whiteSpace=wrap;html=1;" parent="hcWVQAkEK2Su6mpxol3i-11" vertex="1">
          <mxGeometry x="30" width="150" height="30" as="geometry">
            <mxRectangle width="150" height="30" as="alternateBounds" />
          </mxGeometry>
        </mxCell>
        <mxCell id="hcWVQAkEK2Su6mpxol3i-14" value="" style="shape=tableRow;horizontal=0;startSize=0;swimlaneHead=0;swimlaneBody=0;fillColor=none;collapsible=0;dropTarget=0;points=[[0,0.5],[1,0.5]];portConstraint=eastwest;top=0;left=0;right=0;bottom=0;" parent="hcWVQAkEK2Su6mpxol3i-1" vertex="1">
          <mxGeometry y="150" width="180" height="30" as="geometry" />
        </mxCell>
        <mxCell id="hcWVQAkEK2Su6mpxol3i-15" value="" style="shape=partialRectangle;connectable=0;fillColor=none;top=0;left=0;bottom=0;right=0;editable=1;overflow=hidden;whiteSpace=wrap;html=1;" parent="hcWVQAkEK2Su6mpxol3i-14" vertex="1">
          <mxGeometry width="30" height="30" as="geometry">
            <mxRectangle width="30" height="30" as="alternateBounds" />
          </mxGeometry>
        </mxCell>
        <mxCell id="hcWVQAkEK2Su6mpxol3i-16" value="mapellido" style="shape=partialRectangle;connectable=0;fillColor=none;top=0;left=0;bottom=0;right=0;align=left;spacingLeft=6;overflow=hidden;whiteSpace=wrap;html=1;" parent="hcWVQAkEK2Su6mpxol3i-14" vertex="1">
          <mxGeometry x="30" width="150" height="30" as="geometry">
            <mxRectangle width="150" height="30" as="alternateBounds" />
          </mxGeometry>
        </mxCell>
        <mxCell id="hcWVQAkEK2Su6mpxol3i-17" value="" style="shape=tableRow;horizontal=0;startSize=0;swimlaneHead=0;swimlaneBody=0;fillColor=none;collapsible=0;dropTarget=0;points=[[0,0.5],[1,0.5]];portConstraint=eastwest;top=0;left=0;right=0;bottom=0;" parent="hcWVQAkEK2Su6mpxol3i-1" vertex="1">
          <mxGeometry y="180" width="180" height="30" as="geometry" />
        </mxCell>
        <mxCell id="hcWVQAkEK2Su6mpxol3i-18" value="" style="shape=partialRectangle;connectable=0;fillColor=none;top=0;left=0;bottom=0;right=0;editable=1;overflow=hidden;whiteSpace=wrap;html=1;" parent="hcWVQAkEK2Su6mpxol3i-17" vertex="1">
          <mxGeometry width="30" height="30" as="geometry">
            <mxRectangle width="30" height="30" as="alternateBounds" />
          </mxGeometry>
        </mxCell>
        <mxCell id="hcWVQAkEK2Su6mpxol3i-19" value="calle" style="shape=partialRectangle;connectable=0;fillColor=none;top=0;left=0;bottom=0;right=0;align=left;spacingLeft=6;overflow=hidden;whiteSpace=wrap;html=1;" parent="hcWVQAkEK2Su6mpxol3i-17" vertex="1">
          <mxGeometry x="30" width="150" height="30" as="geometry">
            <mxRectangle width="150" height="30" as="alternateBounds" />
          </mxGeometry>
        </mxCell>
        <mxCell id="hcWVQAkEK2Su6mpxol3i-20" value="" style="shape=tableRow;horizontal=0;startSize=0;swimlaneHead=0;swimlaneBody=0;fillColor=none;collapsible=0;dropTarget=0;points=[[0,0.5],[1,0.5]];portConstraint=eastwest;top=0;left=0;right=0;bottom=0;" parent="hcWVQAkEK2Su6mpxol3i-1" vertex="1">
          <mxGeometry y="210" width="180" height="30" as="geometry" />
        </mxCell>
        <mxCell id="hcWVQAkEK2Su6mpxol3i-21" value="" style="shape=partialRectangle;connectable=0;fillColor=none;top=0;left=0;bottom=0;right=0;editable=1;overflow=hidden;whiteSpace=wrap;html=1;" parent="hcWVQAkEK2Su6mpxol3i-20" vertex="1">
          <mxGeometry width="30" height="30" as="geometry">
            <mxRectangle width="30" height="30" as="alternateBounds" />
          </mxGeometry>
        </mxCell>
        <mxCell id="hcWVQAkEK2Su6mpxol3i-22" value="num" style="shape=partialRectangle;connectable=0;fillColor=none;top=0;left=0;bottom=0;right=0;align=left;spacingLeft=6;overflow=hidden;whiteSpace=wrap;html=1;" parent="hcWVQAkEK2Su6mpxol3i-20" vertex="1">
          <mxGeometry x="30" width="150" height="30" as="geometry">
            <mxRectangle width="150" height="30" as="alternateBounds" />
          </mxGeometry>
        </mxCell>
        <mxCell id="hcWVQAkEK2Su6mpxol3i-23" value="" style="shape=tableRow;horizontal=0;startSize=0;swimlaneHead=0;swimlaneBody=0;fillColor=none;collapsible=0;dropTarget=0;points=[[0,0.5],[1,0.5]];portConstraint=eastwest;top=0;left=0;right=0;bottom=0;" parent="hcWVQAkEK2Su6mpxol3i-1" vertex="1">
          <mxGeometry y="240" width="180" height="30" as="geometry" />
        </mxCell>
        <mxCell id="hcWVQAkEK2Su6mpxol3i-24" value="" style="shape=partialRectangle;connectable=0;fillColor=none;top=0;left=0;bottom=0;right=0;editable=1;overflow=hidden;whiteSpace=wrap;html=1;" parent="hcWVQAkEK2Su6mpxol3i-23" vertex="1">
          <mxGeometry width="30" height="30" as="geometry">
            <mxRectangle width="30" height="30" as="alternateBounds" />
          </mxGeometry>
        </mxCell>
        <mxCell id="hcWVQAkEK2Su6mpxol3i-25" value="ciudad" style="shape=partialRectangle;connectable=0;fillColor=none;top=0;left=0;bottom=0;right=0;align=left;spacingLeft=6;overflow=hidden;whiteSpace=wrap;html=1;" parent="hcWVQAkEK2Su6mpxol3i-23" vertex="1">
          <mxGeometry x="30" width="150" height="30" as="geometry">
            <mxRectangle width="150" height="30" as="alternateBounds" />
          </mxGeometry>
        </mxCell>
        <mxCell id="hcWVQAkEK2Su6mpxol3i-26" value="Telefono_Clientes" style="shape=table;startSize=30;container=1;collapsible=1;childLayout=tableLayout;fixedRows=1;rowLines=0;fontStyle=1;align=center;resizeLast=1;html=1;" parent="1" vertex="1">
          <mxGeometry x="1380" y="-440" width="160" height="90" as="geometry" />
        </mxCell>
        <mxCell id="hcWVQAkEK2Su6mpxol3i-27" value="" style="shape=tableRow;horizontal=0;startSize=0;swimlaneHead=0;swimlaneBody=0;fillColor=none;collapsible=0;dropTarget=0;points=[[0,0.5],[1,0.5]];portConstraint=eastwest;top=0;left=0;right=0;bottom=1;" parent="hcWVQAkEK2Su6mpxol3i-26" vertex="1">
          <mxGeometry y="30" width="160" height="30" as="geometry" />
        </mxCell>
        <mxCell id="hcWVQAkEK2Su6mpxol3i-28" value="PK" style="shape=partialRectangle;connectable=0;fillColor=none;top=0;left=0;bottom=0;right=0;fontStyle=1;overflow=hidden;whiteSpace=wrap;html=1;" parent="hcWVQAkEK2Su6mpxol3i-27" vertex="1">
          <mxGeometry width="30" height="30" as="geometry">
            <mxRectangle width="30" height="30" as="alternateBounds" />
          </mxGeometry>
        </mxCell>
        <mxCell id="hcWVQAkEK2Su6mpxol3i-29" value="Telefono varchar" style="shape=partialRectangle;connectable=0;fillColor=none;top=0;left=0;bottom=0;right=0;align=left;spacingLeft=6;fontStyle=1;overflow=hidden;whiteSpace=wrap;html=1;" parent="hcWVQAkEK2Su6mpxol3i-27" vertex="1">
          <mxGeometry x="30" width="130" height="30" as="geometry">
            <mxRectangle width="130" height="30" as="alternateBounds" />
          </mxGeometry>
        </mxCell>
        <mxCell id="hcWVQAkEK2Su6mpxol3i-30" value="" style="shape=tableRow;horizontal=0;startSize=0;swimlaneHead=0;swimlaneBody=0;fillColor=none;collapsible=0;dropTarget=0;points=[[0,0.5],[1,0.5]];portConstraint=eastwest;top=0;left=0;right=0;bottom=0;" parent="hcWVQAkEK2Su6mpxol3i-26" vertex="1">
          <mxGeometry y="60" width="160" height="30" as="geometry" />
        </mxCell>
        <mxCell id="hcWVQAkEK2Su6mpxol3i-31" value="PFK" style="shape=partialRectangle;connectable=0;fillColor=none;top=0;left=0;bottom=0;right=0;editable=1;overflow=hidden;whiteSpace=wrap;html=1;fontStyle=1" parent="hcWVQAkEK2Su6mpxol3i-30" vertex="1">
          <mxGeometry width="30" height="30" as="geometry">
            <mxRectangle width="30" height="30" as="alternateBounds" />
          </mxGeometry>
        </mxCell>
        <mxCell id="hcWVQAkEK2Su6mpxol3i-32" value="CodigoCliente" style="shape=partialRectangle;connectable=0;fillColor=none;top=0;left=0;bottom=0;right=0;align=left;spacingLeft=6;overflow=hidden;whiteSpace=wrap;html=1;fontStyle=1" parent="hcWVQAkEK2Su6mpxol3i-30" vertex="1">
          <mxGeometry x="30" width="130" height="30" as="geometry">
            <mxRectangle width="130" height="30" as="alternateBounds" />
          </mxGeometry>
        </mxCell>
        <mxCell id="hcWVQAkEK2Su6mpxol3i-33" value="" style="edgeStyle=entityRelationEdgeStyle;fontSize=12;html=1;endArrow=ERoneToMany;rounded=0;exitX=0;exitY=0.5;exitDx=0;exitDy=0;entryX=1;entryY=0.5;entryDx=0;entryDy=0;" parent="1" source="hcWVQAkEK2Su6mpxol3i-14" target="hcWVQAkEK2Su6mpxol3i-27" edge="1">
          <mxGeometry width="100" height="100" relative="1" as="geometry">
            <mxPoint x="1460" y="-675" as="sourcePoint" />
            <mxPoint x="1360" y="-685" as="targetPoint" />
          </mxGeometry>
        </mxCell>
        <mxCell id="hcWVQAkEK2Su6mpxol3i-34" value="Reserva" style="shape=table;startSize=30;container=1;collapsible=1;childLayout=tableLayout;fixedRows=1;rowLines=0;fontStyle=1;align=center;resizeLast=1;html=1;" parent="1" vertex="1">
          <mxGeometry x="1890" y="-600" width="180" height="330" as="geometry" />
        </mxCell>
        <mxCell id="hcWVQAkEK2Su6mpxol3i-35" value="" style="shape=tableRow;horizontal=0;startSize=0;swimlaneHead=0;swimlaneBody=0;fillColor=none;collapsible=0;dropTarget=0;points=[[0,0.5],[1,0.5]];portConstraint=eastwest;top=0;left=0;right=0;bottom=1;" parent="hcWVQAkEK2Su6mpxol3i-34" vertex="1">
          <mxGeometry y="30" width="180" height="30" as="geometry" />
        </mxCell>
        <mxCell id="hcWVQAkEK2Su6mpxol3i-36" value="PK1-FK" style="shape=partialRectangle;connectable=0;fillColor=none;top=0;left=0;bottom=0;right=0;fontStyle=1;overflow=hidden;whiteSpace=wrap;html=1;" parent="hcWVQAkEK2Su6mpxol3i-35" vertex="1">
          <mxGeometry width="60" height="30" as="geometry">
            <mxRectangle width="60" height="30" as="alternateBounds" />
          </mxGeometry>
        </mxCell>
        <mxCell id="hcWVQAkEK2Su6mpxol3i-37" value="CodigoCliente" style="shape=partialRectangle;connectable=0;fillColor=none;top=0;left=0;bottom=0;right=0;align=left;spacingLeft=6;fontStyle=1;overflow=hidden;whiteSpace=wrap;html=1;" parent="hcWVQAkEK2Su6mpxol3i-35" vertex="1">
          <mxGeometry x="60" width="120" height="30" as="geometry">
            <mxRectangle width="120" height="30" as="alternateBounds" />
          </mxGeometry>
        </mxCell>
        <mxCell id="hcWVQAkEK2Su6mpxol3i-38" value="" style="shape=tableRow;horizontal=0;startSize=0;swimlaneHead=0;swimlaneBody=0;fillColor=none;collapsible=0;dropTarget=0;points=[[0,0.5],[1,0.5]];portConstraint=eastwest;top=0;left=0;right=0;bottom=1;" parent="hcWVQAkEK2Su6mpxol3i-34" vertex="1">
          <mxGeometry y="60" width="180" height="30" as="geometry" />
        </mxCell>
        <mxCell id="hcWVQAkEK2Su6mpxol3i-39" value="PK2-FK" style="shape=partialRectangle;connectable=0;fillColor=none;top=0;left=0;bottom=0;right=0;fontStyle=1;overflow=hidden;whiteSpace=wrap;html=1;" parent="hcWVQAkEK2Su6mpxol3i-38" vertex="1">
          <mxGeometry width="60" height="30" as="geometry">
            <mxRectangle width="60" height="30" as="alternateBounds" />
          </mxGeometry>
        </mxCell>
        <mxCell id="hcWVQAkEK2Su6mpxol3i-40" value="Id_Agencia" style="shape=partialRectangle;connectable=0;fillColor=none;top=0;left=0;bottom=0;right=0;align=left;spacingLeft=6;fontStyle=1;overflow=hidden;whiteSpace=wrap;html=1;" parent="hcWVQAkEK2Su6mpxol3i-38" vertex="1">
          <mxGeometry x="60" width="120" height="30" as="geometry">
            <mxRectangle width="120" height="30" as="alternateBounds" />
          </mxGeometry>
        </mxCell>
        <mxCell id="hcWVQAkEK2Su6mpxol3i-41" value="" style="shape=tableRow;horizontal=0;startSize=0;swimlaneHead=0;swimlaneBody=0;fillColor=none;collapsible=0;dropTarget=0;points=[[0,0.5],[1,0.5]];portConstraint=eastwest;top=0;left=0;right=0;bottom=1;" parent="hcWVQAkEK2Su6mpxol3i-34" vertex="1">
          <mxGeometry y="90" width="180" height="30" as="geometry" />
        </mxCell>
        <mxCell id="hcWVQAkEK2Su6mpxol3i-42" value="PK3-FK" style="shape=partialRectangle;connectable=0;fillColor=none;top=0;left=0;bottom=0;right=0;fontStyle=1;overflow=hidden;whiteSpace=wrap;html=1;" parent="hcWVQAkEK2Su6mpxol3i-41" vertex="1">
          <mxGeometry width="60" height="30" as="geometry">
            <mxRectangle width="60" height="30" as="alternateBounds" />
          </mxGeometry>
        </mxCell>
        <mxCell id="hcWVQAkEK2Su6mpxol3i-43" value="Matricula" style="shape=partialRectangle;connectable=0;fillColor=none;top=0;left=0;bottom=0;right=0;align=left;spacingLeft=6;fontStyle=1;overflow=hidden;whiteSpace=wrap;html=1;" parent="hcWVQAkEK2Su6mpxol3i-41" vertex="1">
          <mxGeometry x="60" width="120" height="30" as="geometry">
            <mxRectangle width="120" height="30" as="alternateBounds" />
          </mxGeometry>
        </mxCell>
        <mxCell id="hcWVQAkEK2Su6mpxol3i-44" value="" style="shape=tableRow;horizontal=0;startSize=0;swimlaneHead=0;swimlaneBody=0;fillColor=none;collapsible=0;dropTarget=0;points=[[0,0.5],[1,0.5]];portConstraint=eastwest;top=0;left=0;right=0;bottom=1;" parent="hcWVQAkEK2Su6mpxol3i-34" vertex="1">
          <mxGeometry y="120" width="180" height="30" as="geometry" />
        </mxCell>
        <mxCell id="hcWVQAkEK2Su6mpxol3i-45" value="" style="shape=partialRectangle;connectable=0;fillColor=none;top=0;left=0;bottom=0;right=0;fontStyle=1;overflow=hidden;whiteSpace=wrap;html=1;" parent="hcWVQAkEK2Su6mpxol3i-44" vertex="1">
          <mxGeometry width="60" height="30" as="geometry">
            <mxRectangle width="60" height="30" as="alternateBounds" />
          </mxGeometry>
        </mxCell>
        <mxCell id="hcWVQAkEK2Su6mpxol3i-46" value="fechaInicio" style="shape=partialRectangle;connectable=0;fillColor=none;top=0;left=0;bottom=0;right=0;align=left;spacingLeft=6;fontStyle=0;overflow=hidden;whiteSpace=wrap;html=1;" parent="hcWVQAkEK2Su6mpxol3i-44" vertex="1">
          <mxGeometry x="60" width="120" height="30" as="geometry">
            <mxRectangle width="120" height="30" as="alternateBounds" />
          </mxGeometry>
        </mxCell>
        <mxCell id="hcWVQAkEK2Su6mpxol3i-47" value="" style="shape=tableRow;horizontal=0;startSize=0;swimlaneHead=0;swimlaneBody=0;fillColor=none;collapsible=0;dropTarget=0;points=[[0,0.5],[1,0.5]];portConstraint=eastwest;top=0;left=0;right=0;bottom=1;" parent="hcWVQAkEK2Su6mpxol3i-34" vertex="1">
          <mxGeometry y="150" width="180" height="30" as="geometry" />
        </mxCell>
        <mxCell id="hcWVQAkEK2Su6mpxol3i-48" value="" style="shape=partialRectangle;connectable=0;fillColor=none;top=0;left=0;bottom=0;right=0;fontStyle=1;overflow=hidden;whiteSpace=wrap;html=1;" parent="hcWVQAkEK2Su6mpxol3i-47" vertex="1">
          <mxGeometry width="60" height="30" as="geometry">
            <mxRectangle width="60" height="30" as="alternateBounds" />
          </mxGeometry>
        </mxCell>
        <mxCell id="hcWVQAkEK2Su6mpxol3i-49" value="precio" style="shape=partialRectangle;connectable=0;fillColor=none;top=0;left=0;bottom=0;right=0;align=left;spacingLeft=6;fontStyle=0;overflow=hidden;whiteSpace=wrap;html=1;" parent="hcWVQAkEK2Su6mpxol3i-47" vertex="1">
          <mxGeometry x="60" width="120" height="30" as="geometry">
            <mxRectangle width="120" height="30" as="alternateBounds" />
          </mxGeometry>
        </mxCell>
        <mxCell id="hcWVQAkEK2Su6mpxol3i-50" value="" style="shape=tableRow;horizontal=0;startSize=0;swimlaneHead=0;swimlaneBody=0;fillColor=none;collapsible=0;dropTarget=0;points=[[0,0.5],[1,0.5]];portConstraint=eastwest;top=0;left=0;right=0;bottom=1;" parent="hcWVQAkEK2Su6mpxol3i-34" vertex="1">
          <mxGeometry y="180" width="180" height="30" as="geometry" />
        </mxCell>
        <mxCell id="hcWVQAkEK2Su6mpxol3i-51" value="" style="shape=partialRectangle;connectable=0;fillColor=none;top=0;left=0;bottom=0;right=0;fontStyle=1;overflow=hidden;whiteSpace=wrap;html=1;" parent="hcWVQAkEK2Su6mpxol3i-50" vertex="1">
          <mxGeometry width="60" height="30" as="geometry">
            <mxRectangle width="60" height="30" as="alternateBounds" />
          </mxGeometry>
        </mxCell>
        <mxCell id="hcWVQAkEK2Su6mpxol3i-52" value="agencia" style="shape=partialRectangle;connectable=0;fillColor=none;top=0;left=0;bottom=0;right=0;align=left;spacingLeft=6;fontStyle=0;overflow=hidden;whiteSpace=wrap;html=1;" parent="hcWVQAkEK2Su6mpxol3i-50" vertex="1">
          <mxGeometry x="60" width="120" height="30" as="geometry">
            <mxRectangle width="120" height="30" as="alternateBounds" />
          </mxGeometry>
        </mxCell>
        <mxCell id="hcWVQAkEK2Su6mpxol3i-53" value="" style="shape=tableRow;horizontal=0;startSize=0;swimlaneHead=0;swimlaneBody=0;fillColor=none;collapsible=0;dropTarget=0;points=[[0,0.5],[1,0.5]];portConstraint=eastwest;top=0;left=0;right=0;bottom=1;" parent="hcWVQAkEK2Su6mpxol3i-34" vertex="1">
          <mxGeometry y="210" width="180" height="30" as="geometry" />
        </mxCell>
        <mxCell id="hcWVQAkEK2Su6mpxol3i-54" value="" style="shape=partialRectangle;connectable=0;fillColor=none;top=0;left=0;bottom=0;right=0;fontStyle=1;overflow=hidden;whiteSpace=wrap;html=1;" parent="hcWVQAkEK2Su6mpxol3i-53" vertex="1">
          <mxGeometry width="60" height="30" as="geometry">
            <mxRectangle width="60" height="30" as="alternateBounds" />
          </mxGeometry>
        </mxCell>
        <mxCell id="hcWVQAkEK2Su6mpxol3i-55" value="fechaReservacion" style="shape=partialRectangle;connectable=0;fillColor=none;top=0;left=0;bottom=0;right=0;align=left;spacingLeft=6;fontStyle=0;overflow=hidden;whiteSpace=wrap;html=1;" parent="hcWVQAkEK2Su6mpxol3i-53" vertex="1">
          <mxGeometry x="60" width="120" height="30" as="geometry">
            <mxRectangle width="120" height="30" as="alternateBounds" />
          </mxGeometry>
        </mxCell>
        <mxCell id="hcWVQAkEK2Su6mpxol3i-56" value="" style="shape=tableRow;horizontal=0;startSize=0;swimlaneHead=0;swimlaneBody=0;fillColor=none;collapsible=0;dropTarget=0;points=[[0,0.5],[1,0.5]];portConstraint=eastwest;top=0;left=0;right=0;bottom=1;" parent="hcWVQAkEK2Su6mpxol3i-34" vertex="1">
          <mxGeometry y="240" width="180" height="30" as="geometry" />
        </mxCell>
        <mxCell id="hcWVQAkEK2Su6mpxol3i-57" value="" style="shape=partialRectangle;connectable=0;fillColor=none;top=0;left=0;bottom=0;right=0;fontStyle=1;overflow=hidden;whiteSpace=wrap;html=1;" parent="hcWVQAkEK2Su6mpxol3i-56" vertex="1">
          <mxGeometry width="60" height="30" as="geometry">
            <mxRectangle width="60" height="30" as="alternateBounds" />
          </mxGeometry>
        </mxCell>
        <mxCell id="hcWVQAkEK2Su6mpxol3i-58" value="cliente" style="shape=partialRectangle;connectable=0;fillColor=none;top=0;left=0;bottom=0;right=0;align=left;spacingLeft=6;fontStyle=0;overflow=hidden;whiteSpace=wrap;html=1;" parent="hcWVQAkEK2Su6mpxol3i-56" vertex="1">
          <mxGeometry x="60" width="120" height="30" as="geometry">
            <mxRectangle width="120" height="30" as="alternateBounds" />
          </mxGeometry>
        </mxCell>
        <mxCell id="hcWVQAkEK2Su6mpxol3i-59" value="" style="shape=tableRow;horizontal=0;startSize=0;swimlaneHead=0;swimlaneBody=0;fillColor=none;collapsible=0;dropTarget=0;points=[[0,0.5],[1,0.5]];portConstraint=eastwest;top=0;left=0;right=0;bottom=1;" parent="hcWVQAkEK2Su6mpxol3i-34" vertex="1">
          <mxGeometry y="270" width="180" height="30" as="geometry" />
        </mxCell>
        <mxCell id="hcWVQAkEK2Su6mpxol3i-60" value="" style="shape=partialRectangle;connectable=0;fillColor=none;top=0;left=0;bottom=0;right=0;fontStyle=1;overflow=hidden;whiteSpace=wrap;html=1;" parent="hcWVQAkEK2Su6mpxol3i-59" vertex="1">
          <mxGeometry width="60" height="30" as="geometry">
            <mxRectangle width="60" height="30" as="alternateBounds" />
          </mxGeometry>
        </mxCell>
        <mxCell id="hcWVQAkEK2Su6mpxol3i-61" value="motoAlquilada" style="shape=partialRectangle;connectable=0;fillColor=none;top=0;left=0;bottom=0;right=0;align=left;spacingLeft=6;fontStyle=0;overflow=hidden;whiteSpace=wrap;html=1;" parent="hcWVQAkEK2Su6mpxol3i-59" vertex="1">
          <mxGeometry x="60" width="120" height="30" as="geometry">
            <mxRectangle width="120" height="30" as="alternateBounds" />
          </mxGeometry>
        </mxCell>
        <mxCell id="hcWVQAkEK2Su6mpxol3i-62" value="" style="shape=tableRow;horizontal=0;startSize=0;swimlaneHead=0;swimlaneBody=0;fillColor=none;collapsible=0;dropTarget=0;points=[[0,0.5],[1,0.5]];portConstraint=eastwest;top=0;left=0;right=0;bottom=1;" parent="hcWVQAkEK2Su6mpxol3i-34" vertex="1">
          <mxGeometry y="300" width="180" height="30" as="geometry" />
        </mxCell>
        <mxCell id="hcWVQAkEK2Su6mpxol3i-63" value="" style="shape=partialRectangle;connectable=0;fillColor=none;top=0;left=0;bottom=0;right=0;fontStyle=1;overflow=hidden;whiteSpace=wrap;html=1;" parent="hcWVQAkEK2Su6mpxol3i-62" vertex="1">
          <mxGeometry width="60" height="30" as="geometry">
            <mxRectangle width="60" height="30" as="alternateBounds" />
          </mxGeometry>
        </mxCell>
        <mxCell id="hcWVQAkEK2Su6mpxol3i-64" value="fechaFin" style="shape=partialRectangle;connectable=0;fillColor=none;top=0;left=0;bottom=0;right=0;align=left;spacingLeft=6;fontStyle=0;overflow=hidden;whiteSpace=wrap;html=1;" parent="hcWVQAkEK2Su6mpxol3i-62" vertex="1">
          <mxGeometry x="60" width="120" height="30" as="geometry">
            <mxRectangle width="120" height="30" as="alternateBounds" />
          </mxGeometry>
        </mxCell>
        <mxCell id="hcWVQAkEK2Su6mpxol3i-65" value="" style="edgeStyle=entityRelationEdgeStyle;fontSize=12;html=1;endArrow=ERoneToMany;rounded=0;exitX=1;exitY=0.5;exitDx=0;exitDy=0;entryX=0;entryY=0.5;entryDx=0;entryDy=0;" parent="1" source="hcWVQAkEK2Su6mpxol3i-8" target="hcWVQAkEK2Su6mpxol3i-44" edge="1">
          <mxGeometry width="100" height="100" relative="1" as="geometry">
            <mxPoint x="1640" y="-705" as="sourcePoint" />
            <mxPoint x="1840" y="-935" as="targetPoint" />
          </mxGeometry>
        </mxCell>
        <mxCell id="hcWVQAkEK2Su6mpxol3i-66" value="Motocicletas" style="shape=table;startSize=30;container=1;collapsible=1;childLayout=tableLayout;fixedRows=1;rowLines=0;fontStyle=1;align=center;resizeLast=1;html=1;" parent="1" vertex="1">
          <mxGeometry x="2220" y="-490" width="180" height="270" as="geometry" />
        </mxCell>
        <mxCell id="hcWVQAkEK2Su6mpxol3i-67" value="" style="shape=tableRow;horizontal=0;startSize=0;swimlaneHead=0;swimlaneBody=0;fillColor=none;collapsible=0;dropTarget=0;points=[[0,0.5],[1,0.5]];portConstraint=eastwest;top=0;left=0;right=0;bottom=1;" parent="hcWVQAkEK2Su6mpxol3i-66" vertex="1">
          <mxGeometry y="30" width="180" height="30" as="geometry" />
        </mxCell>
        <mxCell id="hcWVQAkEK2Su6mpxol3i-68" value="PK" style="shape=partialRectangle;connectable=0;fillColor=none;top=0;left=0;bottom=0;right=0;fontStyle=1;overflow=hidden;whiteSpace=wrap;html=1;" parent="hcWVQAkEK2Su6mpxol3i-67" vertex="1">
          <mxGeometry width="30" height="30" as="geometry">
            <mxRectangle width="30" height="30" as="alternateBounds" />
          </mxGeometry>
        </mxCell>
        <mxCell id="hcWVQAkEK2Su6mpxol3i-69" value="Matricula" style="shape=partialRectangle;connectable=0;fillColor=none;top=0;left=0;bottom=0;right=0;align=left;spacingLeft=6;fontStyle=1;overflow=hidden;whiteSpace=wrap;html=1;" parent="hcWVQAkEK2Su6mpxol3i-67" vertex="1">
          <mxGeometry x="30" width="150" height="30" as="geometry">
            <mxRectangle width="150" height="30" as="alternateBounds" />
          </mxGeometry>
        </mxCell>
        <mxCell id="hcWVQAkEK2Su6mpxol3i-70" value="" style="shape=tableRow;horizontal=0;startSize=0;swimlaneHead=0;swimlaneBody=0;fillColor=none;collapsible=0;dropTarget=0;points=[[0,0.5],[1,0.5]];portConstraint=eastwest;top=0;left=0;right=0;bottom=0;" parent="hcWVQAkEK2Su6mpxol3i-66" vertex="1">
          <mxGeometry y="60" width="180" height="30" as="geometry" />
        </mxCell>
        <mxCell id="hcWVQAkEK2Su6mpxol3i-71" value="" style="shape=partialRectangle;connectable=0;fillColor=none;top=0;left=0;bottom=0;right=0;editable=1;overflow=hidden;whiteSpace=wrap;html=1;" parent="hcWVQAkEK2Su6mpxol3i-70" vertex="1">
          <mxGeometry width="30" height="30" as="geometry">
            <mxRectangle width="30" height="30" as="alternateBounds" />
          </mxGeometry>
        </mxCell>
        <mxCell id="hcWVQAkEK2Su6mpxol3i-72" value="numBastidor" style="shape=partialRectangle;connectable=0;fillColor=none;top=0;left=0;bottom=0;right=0;align=left;spacingLeft=6;overflow=hidden;whiteSpace=wrap;html=1;" parent="hcWVQAkEK2Su6mpxol3i-70" vertex="1">
          <mxGeometry x="30" width="150" height="30" as="geometry">
            <mxRectangle width="150" height="30" as="alternateBounds" />
          </mxGeometry>
        </mxCell>
        <mxCell id="hcWVQAkEK2Su6mpxol3i-73" value="" style="shape=tableRow;horizontal=0;startSize=0;swimlaneHead=0;swimlaneBody=0;fillColor=none;collapsible=0;dropTarget=0;points=[[0,0.5],[1,0.5]];portConstraint=eastwest;top=0;left=0;right=0;bottom=0;" parent="hcWVQAkEK2Su6mpxol3i-66" vertex="1">
          <mxGeometry y="90" width="180" height="30" as="geometry" />
        </mxCell>
        <mxCell id="hcWVQAkEK2Su6mpxol3i-74" value="" style="shape=partialRectangle;connectable=0;fillColor=none;top=0;left=0;bottom=0;right=0;editable=1;overflow=hidden;whiteSpace=wrap;html=1;" parent="hcWVQAkEK2Su6mpxol3i-73" vertex="1">
          <mxGeometry width="30" height="30" as="geometry">
            <mxRectangle width="30" height="30" as="alternateBounds" />
          </mxGeometry>
        </mxCell>
        <mxCell id="hcWVQAkEK2Su6mpxol3i-75" value="color" style="shape=partialRectangle;connectable=0;fillColor=none;top=0;left=0;bottom=0;right=0;align=left;spacingLeft=6;overflow=hidden;whiteSpace=wrap;html=1;" parent="hcWVQAkEK2Su6mpxol3i-73" vertex="1">
          <mxGeometry x="30" width="150" height="30" as="geometry">
            <mxRectangle width="150" height="30" as="alternateBounds" />
          </mxGeometry>
        </mxCell>
        <mxCell id="hcWVQAkEK2Su6mpxol3i-76" value="" style="shape=tableRow;horizontal=0;startSize=0;swimlaneHead=0;swimlaneBody=0;fillColor=none;collapsible=0;dropTarget=0;points=[[0,0.5],[1,0.5]];portConstraint=eastwest;top=0;left=0;right=0;bottom=0;" parent="hcWVQAkEK2Su6mpxol3i-66" vertex="1">
          <mxGeometry y="120" width="180" height="30" as="geometry" />
        </mxCell>
        <mxCell id="hcWVQAkEK2Su6mpxol3i-77" value="" style="shape=partialRectangle;connectable=0;fillColor=none;top=0;left=0;bottom=0;right=0;editable=1;overflow=hidden;whiteSpace=wrap;html=1;" parent="hcWVQAkEK2Su6mpxol3i-76" vertex="1">
          <mxGeometry width="30" height="30" as="geometry">
            <mxRectangle width="30" height="30" as="alternateBounds" />
          </mxGeometry>
        </mxCell>
        <mxCell id="hcWVQAkEK2Su6mpxol3i-78" value="marca" style="shape=partialRectangle;connectable=0;fillColor=none;top=0;left=0;bottom=0;right=0;align=left;spacingLeft=6;overflow=hidden;whiteSpace=wrap;html=1;" parent="hcWVQAkEK2Su6mpxol3i-76" vertex="1">
          <mxGeometry x="30" width="150" height="30" as="geometry">
            <mxRectangle width="150" height="30" as="alternateBounds" />
          </mxGeometry>
        </mxCell>
        <mxCell id="hcWVQAkEK2Su6mpxol3i-79" value="" style="shape=tableRow;horizontal=0;startSize=0;swimlaneHead=0;swimlaneBody=0;fillColor=none;collapsible=0;dropTarget=0;points=[[0,0.5],[1,0.5]];portConstraint=eastwest;top=0;left=0;right=0;bottom=0;" parent="hcWVQAkEK2Su6mpxol3i-66" vertex="1">
          <mxGeometry y="150" width="180" height="30" as="geometry" />
        </mxCell>
        <mxCell id="hcWVQAkEK2Su6mpxol3i-80" value="" style="shape=partialRectangle;connectable=0;fillColor=none;top=0;left=0;bottom=0;right=0;editable=1;overflow=hidden;whiteSpace=wrap;html=1;" parent="hcWVQAkEK2Su6mpxol3i-79" vertex="1">
          <mxGeometry width="30" height="30" as="geometry">
            <mxRectangle width="30" height="30" as="alternateBounds" />
          </mxGeometry>
        </mxCell>
        <mxCell id="hcWVQAkEK2Su6mpxol3i-81" value="modelo" style="shape=partialRectangle;connectable=0;fillColor=none;top=0;left=0;bottom=0;right=0;align=left;spacingLeft=6;overflow=hidden;whiteSpace=wrap;html=1;" parent="hcWVQAkEK2Su6mpxol3i-79" vertex="1">
          <mxGeometry x="30" width="150" height="30" as="geometry">
            <mxRectangle width="150" height="30" as="alternateBounds" />
          </mxGeometry>
        </mxCell>
        <mxCell id="hcWVQAkEK2Su6mpxol3i-82" value="" style="shape=tableRow;horizontal=0;startSize=0;swimlaneHead=0;swimlaneBody=0;fillColor=none;collapsible=0;dropTarget=0;points=[[0,0.5],[1,0.5]];portConstraint=eastwest;top=0;left=0;right=0;bottom=0;" parent="hcWVQAkEK2Su6mpxol3i-66" vertex="1">
          <mxGeometry y="180" width="180" height="30" as="geometry" />
        </mxCell>
        <mxCell id="hcWVQAkEK2Su6mpxol3i-83" value="" style="shape=partialRectangle;connectable=0;fillColor=none;top=0;left=0;bottom=0;right=0;editable=1;overflow=hidden;whiteSpace=wrap;html=1;" parent="hcWVQAkEK2Su6mpxol3i-82" vertex="1">
          <mxGeometry width="30" height="30" as="geometry">
            <mxRectangle width="30" height="30" as="alternateBounds" />
          </mxGeometry>
        </mxCell>
        <mxCell id="hcWVQAkEK2Su6mpxol3i-84" value="fechaIngreso" style="shape=partialRectangle;connectable=0;fillColor=none;top=0;left=0;bottom=0;right=0;align=left;spacingLeft=6;overflow=hidden;whiteSpace=wrap;html=1;" parent="hcWVQAkEK2Su6mpxol3i-82" vertex="1">
          <mxGeometry x="30" width="150" height="30" as="geometry">
            <mxRectangle width="150" height="30" as="alternateBounds" />
          </mxGeometry>
        </mxCell>
        <mxCell id="CCeei102hyegJUPTer4o-55" value="" style="shape=tableRow;horizontal=0;startSize=0;swimlaneHead=0;swimlaneBody=0;fillColor=none;collapsible=0;dropTarget=0;points=[[0,0.5],[1,0.5]];portConstraint=eastwest;top=0;left=0;right=0;bottom=0;" vertex="1" parent="hcWVQAkEK2Su6mpxol3i-66">
          <mxGeometry y="210" width="180" height="30" as="geometry" />
        </mxCell>
        <mxCell id="CCeei102hyegJUPTer4o-56" value="FK1" style="shape=partialRectangle;connectable=0;fillColor=none;top=0;left=0;bottom=0;right=0;editable=1;overflow=hidden;whiteSpace=wrap;html=1;" vertex="1" parent="CCeei102hyegJUPTer4o-55">
          <mxGeometry width="30" height="30" as="geometry">
            <mxRectangle width="30" height="30" as="alternateBounds" />
          </mxGeometry>
        </mxCell>
        <mxCell id="CCeei102hyegJUPTer4o-57" value="nombre_Ciudad" style="shape=partialRectangle;connectable=0;fillColor=none;top=0;left=0;bottom=0;right=0;align=left;spacingLeft=6;overflow=hidden;whiteSpace=wrap;html=1;" vertex="1" parent="CCeei102hyegJUPTer4o-55">
          <mxGeometry x="30" width="150" height="30" as="geometry">
            <mxRectangle width="150" height="30" as="alternateBounds" />
          </mxGeometry>
        </mxCell>
        <mxCell id="CCeei102hyegJUPTer4o-59" value="" style="shape=tableRow;horizontal=0;startSize=0;swimlaneHead=0;swimlaneBody=0;fillColor=none;collapsible=0;dropTarget=0;points=[[0,0.5],[1,0.5]];portConstraint=eastwest;top=0;left=0;right=0;bottom=0;" vertex="1" parent="hcWVQAkEK2Su6mpxol3i-66">
          <mxGeometry y="240" width="180" height="30" as="geometry" />
        </mxCell>
        <mxCell id="CCeei102hyegJUPTer4o-60" value="FK2" style="shape=partialRectangle;connectable=0;fillColor=none;top=0;left=0;bottom=0;right=0;editable=1;overflow=hidden;whiteSpace=wrap;html=1;" vertex="1" parent="CCeei102hyegJUPTer4o-59">
          <mxGeometry width="30" height="30" as="geometry">
            <mxRectangle width="30" height="30" as="alternateBounds" />
          </mxGeometry>
        </mxCell>
        <mxCell id="CCeei102hyegJUPTer4o-61" value="Id_Agencia" style="shape=partialRectangle;connectable=0;fillColor=none;top=0;left=0;bottom=0;right=0;align=left;spacingLeft=6;overflow=hidden;whiteSpace=wrap;html=1;" vertex="1" parent="CCeei102hyegJUPTer4o-59">
          <mxGeometry x="30" width="150" height="30" as="geometry">
            <mxRectangle width="150" height="30" as="alternateBounds" />
          </mxGeometry>
        </mxCell>
        <mxCell id="hcWVQAkEK2Su6mpxol3i-85" value="" style="edgeStyle=entityRelationEdgeStyle;fontSize=12;html=1;endArrow=ERoneToMany;rounded=0;exitX=0;exitY=0.5;exitDx=0;exitDy=0;entryX=1;entryY=0.5;entryDx=0;entryDy=0;" parent="1" source="hcWVQAkEK2Su6mpxol3i-73" target="hcWVQAkEK2Su6mpxol3i-44" edge="1">
          <mxGeometry width="100" height="100" relative="1" as="geometry">
            <mxPoint x="1805" y="-405" as="sourcePoint" />
            <mxPoint x="1900" y="-455" as="targetPoint" />
          </mxGeometry>
        </mxCell>
        <mxCell id="hcWVQAkEK2Su6mpxol3i-86" value="Agencia" style="shape=table;startSize=30;container=1;collapsible=1;childLayout=tableLayout;fixedRows=1;rowLines=0;fontStyle=1;align=center;resizeLast=1;html=1;" parent="1" vertex="1">
          <mxGeometry x="1890" y="-120" width="180" height="180" as="geometry" />
        </mxCell>
        <mxCell id="hcWVQAkEK2Su6mpxol3i-87" value="" style="shape=tableRow;horizontal=0;startSize=0;swimlaneHead=0;swimlaneBody=0;fillColor=none;collapsible=0;dropTarget=0;points=[[0,0.5],[1,0.5]];portConstraint=eastwest;top=0;left=0;right=0;bottom=1;" parent="hcWVQAkEK2Su6mpxol3i-86" vertex="1">
          <mxGeometry y="30" width="180" height="30" as="geometry" />
        </mxCell>
        <mxCell id="hcWVQAkEK2Su6mpxol3i-88" value="PK" style="shape=partialRectangle;connectable=0;fillColor=none;top=0;left=0;bottom=0;right=0;fontStyle=1;overflow=hidden;whiteSpace=wrap;html=1;" parent="hcWVQAkEK2Su6mpxol3i-87" vertex="1">
          <mxGeometry width="30" height="30" as="geometry">
            <mxRectangle width="30" height="30" as="alternateBounds" />
          </mxGeometry>
        </mxCell>
        <mxCell id="hcWVQAkEK2Su6mpxol3i-89" value="Id_Agencia" style="shape=partialRectangle;connectable=0;fillColor=none;top=0;left=0;bottom=0;right=0;align=left;spacingLeft=6;fontStyle=1;overflow=hidden;whiteSpace=wrap;html=1;" parent="hcWVQAkEK2Su6mpxol3i-87" vertex="1">
          <mxGeometry x="30" width="150" height="30" as="geometry">
            <mxRectangle width="150" height="30" as="alternateBounds" />
          </mxGeometry>
        </mxCell>
        <mxCell id="hcWVQAkEK2Su6mpxol3i-90" value="" style="shape=tableRow;horizontal=0;startSize=0;swimlaneHead=0;swimlaneBody=0;fillColor=none;collapsible=0;dropTarget=0;points=[[0,0.5],[1,0.5]];portConstraint=eastwest;top=0;left=0;right=0;bottom=0;" parent="hcWVQAkEK2Su6mpxol3i-86" vertex="1">
          <mxGeometry y="60" width="180" height="30" as="geometry" />
        </mxCell>
        <mxCell id="hcWVQAkEK2Su6mpxol3i-91" value="" style="shape=partialRectangle;connectable=0;fillColor=none;top=0;left=0;bottom=0;right=0;editable=1;overflow=hidden;whiteSpace=wrap;html=1;" parent="hcWVQAkEK2Su6mpxol3i-90" vertex="1">
          <mxGeometry width="30" height="30" as="geometry">
            <mxRectangle width="30" height="30" as="alternateBounds" />
          </mxGeometry>
        </mxCell>
        <mxCell id="hcWVQAkEK2Su6mpxol3i-92" value="nombre" style="shape=partialRectangle;connectable=0;fillColor=none;top=0;left=0;bottom=0;right=0;align=left;spacingLeft=6;overflow=hidden;whiteSpace=wrap;html=1;" parent="hcWVQAkEK2Su6mpxol3i-90" vertex="1">
          <mxGeometry x="30" width="150" height="30" as="geometry">
            <mxRectangle width="150" height="30" as="alternateBounds" />
          </mxGeometry>
        </mxCell>
        <mxCell id="hcWVQAkEK2Su6mpxol3i-93" value="" style="shape=tableRow;horizontal=0;startSize=0;swimlaneHead=0;swimlaneBody=0;fillColor=none;collapsible=0;dropTarget=0;points=[[0,0.5],[1,0.5]];portConstraint=eastwest;top=0;left=0;right=0;bottom=0;" parent="hcWVQAkEK2Su6mpxol3i-86" vertex="1">
          <mxGeometry y="90" width="180" height="30" as="geometry" />
        </mxCell>
        <mxCell id="hcWVQAkEK2Su6mpxol3i-94" value="" style="shape=partialRectangle;connectable=0;fillColor=none;top=0;left=0;bottom=0;right=0;editable=1;overflow=hidden;whiteSpace=wrap;html=1;" parent="hcWVQAkEK2Su6mpxol3i-93" vertex="1">
          <mxGeometry width="30" height="30" as="geometry">
            <mxRectangle width="30" height="30" as="alternateBounds" />
          </mxGeometry>
        </mxCell>
        <mxCell id="hcWVQAkEK2Su6mpxol3i-95" value="calle" style="shape=partialRectangle;connectable=0;fillColor=none;top=0;left=0;bottom=0;right=0;align=left;spacingLeft=6;overflow=hidden;whiteSpace=wrap;html=1;" parent="hcWVQAkEK2Su6mpxol3i-93" vertex="1">
          <mxGeometry x="30" width="150" height="30" as="geometry">
            <mxRectangle width="150" height="30" as="alternateBounds" />
          </mxGeometry>
        </mxCell>
        <mxCell id="hcWVQAkEK2Su6mpxol3i-96" value="" style="shape=tableRow;horizontal=0;startSize=0;swimlaneHead=0;swimlaneBody=0;fillColor=none;collapsible=0;dropTarget=0;points=[[0,0.5],[1,0.5]];portConstraint=eastwest;top=0;left=0;right=0;bottom=0;" parent="hcWVQAkEK2Su6mpxol3i-86" vertex="1">
          <mxGeometry y="120" width="180" height="30" as="geometry" />
        </mxCell>
        <mxCell id="hcWVQAkEK2Su6mpxol3i-97" value="" style="shape=partialRectangle;connectable=0;fillColor=none;top=0;left=0;bottom=0;right=0;editable=1;overflow=hidden;whiteSpace=wrap;html=1;" parent="hcWVQAkEK2Su6mpxol3i-96" vertex="1">
          <mxGeometry width="30" height="30" as="geometry">
            <mxRectangle width="30" height="30" as="alternateBounds" />
          </mxGeometry>
        </mxCell>
        <mxCell id="hcWVQAkEK2Su6mpxol3i-98" value="num" style="shape=partialRectangle;connectable=0;fillColor=none;top=0;left=0;bottom=0;right=0;align=left;spacingLeft=6;overflow=hidden;whiteSpace=wrap;html=1;" parent="hcWVQAkEK2Su6mpxol3i-96" vertex="1">
          <mxGeometry x="30" width="150" height="30" as="geometry">
            <mxRectangle width="150" height="30" as="alternateBounds" />
          </mxGeometry>
        </mxCell>
        <mxCell id="hcWVQAkEK2Su6mpxol3i-99" value="" style="shape=tableRow;horizontal=0;startSize=0;swimlaneHead=0;swimlaneBody=0;fillColor=none;collapsible=0;dropTarget=0;points=[[0,0.5],[1,0.5]];portConstraint=eastwest;top=0;left=0;right=0;bottom=0;" parent="hcWVQAkEK2Su6mpxol3i-86" vertex="1">
          <mxGeometry y="150" width="180" height="30" as="geometry" />
        </mxCell>
        <mxCell id="hcWVQAkEK2Su6mpxol3i-100" value="" style="shape=partialRectangle;connectable=0;fillColor=none;top=0;left=0;bottom=0;right=0;editable=1;overflow=hidden;whiteSpace=wrap;html=1;" parent="hcWVQAkEK2Su6mpxol3i-99" vertex="1">
          <mxGeometry width="30" height="30" as="geometry">
            <mxRectangle width="30" height="30" as="alternateBounds" />
          </mxGeometry>
        </mxCell>
        <mxCell id="hcWVQAkEK2Su6mpxol3i-101" value="poblacion" style="shape=partialRectangle;connectable=0;fillColor=none;top=0;left=0;bottom=0;right=0;align=left;spacingLeft=6;overflow=hidden;whiteSpace=wrap;html=1;" parent="hcWVQAkEK2Su6mpxol3i-99" vertex="1">
          <mxGeometry x="30" width="150" height="30" as="geometry">
            <mxRectangle width="150" height="30" as="alternateBounds" />
          </mxGeometry>
        </mxCell>
        <mxCell id="hcWVQAkEK2Su6mpxol3i-102" value="Telefono_Agencia" style="shape=table;startSize=30;container=1;collapsible=1;childLayout=tableLayout;fixedRows=1;rowLines=0;fontStyle=1;align=center;resizeLast=1;html=1;" parent="1" vertex="1">
          <mxGeometry x="1650" y="-75" width="160" height="90" as="geometry" />
        </mxCell>
        <mxCell id="hcWVQAkEK2Su6mpxol3i-103" value="" style="shape=tableRow;horizontal=0;startSize=0;swimlaneHead=0;swimlaneBody=0;fillColor=none;collapsible=0;dropTarget=0;points=[[0,0.5],[1,0.5]];portConstraint=eastwest;top=0;left=0;right=0;bottom=1;" parent="hcWVQAkEK2Su6mpxol3i-102" vertex="1">
          <mxGeometry y="30" width="160" height="30" as="geometry" />
        </mxCell>
        <mxCell id="hcWVQAkEK2Su6mpxol3i-104" value="PK" style="shape=partialRectangle;connectable=0;fillColor=none;top=0;left=0;bottom=0;right=0;fontStyle=1;overflow=hidden;whiteSpace=wrap;html=1;" parent="hcWVQAkEK2Su6mpxol3i-103" vertex="1">
          <mxGeometry width="30" height="30" as="geometry">
            <mxRectangle width="30" height="30" as="alternateBounds" />
          </mxGeometry>
        </mxCell>
        <mxCell id="hcWVQAkEK2Su6mpxol3i-105" value="Telefono" style="shape=partialRectangle;connectable=0;fillColor=none;top=0;left=0;bottom=0;right=0;align=left;spacingLeft=6;fontStyle=1;overflow=hidden;whiteSpace=wrap;html=1;" parent="hcWVQAkEK2Su6mpxol3i-103" vertex="1">
          <mxGeometry x="30" width="130" height="30" as="geometry">
            <mxRectangle width="130" height="30" as="alternateBounds" />
          </mxGeometry>
        </mxCell>
        <mxCell id="hcWVQAkEK2Su6mpxol3i-106" value="" style="shape=tableRow;horizontal=0;startSize=0;swimlaneHead=0;swimlaneBody=0;fillColor=none;collapsible=0;dropTarget=0;points=[[0,0.5],[1,0.5]];portConstraint=eastwest;top=0;left=0;right=0;bottom=0;" parent="hcWVQAkEK2Su6mpxol3i-102" vertex="1">
          <mxGeometry y="60" width="160" height="30" as="geometry" />
        </mxCell>
        <mxCell id="hcWVQAkEK2Su6mpxol3i-107" value="PFK" style="shape=partialRectangle;connectable=0;fillColor=none;top=0;left=0;bottom=0;right=0;editable=1;overflow=hidden;whiteSpace=wrap;html=1;fontStyle=1" parent="hcWVQAkEK2Su6mpxol3i-106" vertex="1">
          <mxGeometry width="30" height="30" as="geometry">
            <mxRectangle width="30" height="30" as="alternateBounds" />
          </mxGeometry>
        </mxCell>
        <mxCell id="hcWVQAkEK2Su6mpxol3i-108" value="Id_Agencia" style="shape=partialRectangle;connectable=0;fillColor=none;top=0;left=0;bottom=0;right=0;align=left;spacingLeft=6;overflow=hidden;whiteSpace=wrap;html=1;fontStyle=1" parent="hcWVQAkEK2Su6mpxol3i-106" vertex="1">
          <mxGeometry x="30" width="130" height="30" as="geometry">
            <mxRectangle width="130" height="30" as="alternateBounds" />
          </mxGeometry>
        </mxCell>
        <mxCell id="hcWVQAkEK2Su6mpxol3i-109" value="" style="edgeStyle=entityRelationEdgeStyle;fontSize=12;html=1;endArrow=ERoneToMany;rounded=0;exitX=0;exitY=0.5;exitDx=0;exitDy=0;entryX=1;entryY=0.5;entryDx=0;entryDy=0;" parent="1" source="hcWVQAkEK2Su6mpxol3i-93" target="hcWVQAkEK2Su6mpxol3i-103" edge="1">
          <mxGeometry width="100" height="100" relative="1" as="geometry">
            <mxPoint x="1910" y="-75" as="sourcePoint" />
            <mxPoint x="1755" y="165" as="targetPoint" />
          </mxGeometry>
        </mxCell>
        <mxCell id="hcWVQAkEK2Su6mpxol3i-110" value="" style="edgeStyle=entityRelationEdgeStyle;fontSize=12;html=1;endArrow=ERoneToMany;rounded=0;exitX=1;exitY=0.5;exitDx=0;exitDy=0;" parent="1" source="hcWVQAkEK2Su6mpxol3i-87" target="hcWVQAkEK2Su6mpxol3i-62" edge="1">
          <mxGeometry width="100" height="100" relative="1" as="geometry">
            <mxPoint x="2020" y="-475" as="sourcePoint" />
            <mxPoint x="2020" y="-875" as="targetPoint" />
            <Array as="points">
              <mxPoint x="1960" y="-620" />
              <mxPoint x="1790" y="-590" />
              <mxPoint x="1760" y="-610" />
              <mxPoint x="1800" y="-610" />
              <mxPoint x="1950" y="-620" />
              <mxPoint x="1940" y="-610" />
            </Array>
          </mxGeometry>
        </mxCell>
        <mxCell id="hcWVQAkEK2Su6mpxol3i-111" value="" style="shape=tableRow;horizontal=0;startSize=0;swimlaneHead=0;swimlaneBody=0;fillColor=none;collapsible=0;dropTarget=0;points=[[0,0.5],[1,0.5]];portConstraint=eastwest;top=0;left=0;right=0;bottom=0;" parent="1" vertex="1">
          <mxGeometry x="2220" y="-280" width="150" height="30" as="geometry" />
        </mxCell>
        <mxCell id="hcWVQAkEK2Su6mpxol3i-114" value="Garaje" style="shape=table;startSize=30;container=1;collapsible=1;childLayout=tableLayout;fixedRows=1;rowLines=0;fontStyle=1;align=center;resizeLast=1;html=1;" parent="1" vertex="1">
          <mxGeometry x="2220" y="-120" width="180" height="120" as="geometry" />
        </mxCell>
        <mxCell id="hcWVQAkEK2Su6mpxol3i-115" value="" style="shape=tableRow;horizontal=0;startSize=0;swimlaneHead=0;swimlaneBody=0;fillColor=none;collapsible=0;dropTarget=0;points=[[0,0.5],[1,0.5]];portConstraint=eastwest;top=0;left=0;right=0;bottom=1;" parent="hcWVQAkEK2Su6mpxol3i-114" vertex="1">
          <mxGeometry y="30" width="180" height="30" as="geometry" />
        </mxCell>
        <mxCell id="hcWVQAkEK2Su6mpxol3i-116" value="PK" style="shape=partialRectangle;connectable=0;fillColor=none;top=0;left=0;bottom=0;right=0;fontStyle=1;overflow=hidden;whiteSpace=wrap;html=1;" parent="hcWVQAkEK2Su6mpxol3i-115" vertex="1">
          <mxGeometry width="30" height="30" as="geometry">
            <mxRectangle width="30" height="30" as="alternateBounds" />
          </mxGeometry>
        </mxCell>
        <mxCell id="hcWVQAkEK2Su6mpxol3i-117" value="nombre_Garaje" style="shape=partialRectangle;connectable=0;fillColor=none;top=0;left=0;bottom=0;right=0;align=left;spacingLeft=6;fontStyle=1;overflow=hidden;whiteSpace=wrap;html=1;" parent="hcWVQAkEK2Su6mpxol3i-115" vertex="1">
          <mxGeometry x="30" width="150" height="30" as="geometry">
            <mxRectangle width="150" height="30" as="alternateBounds" />
          </mxGeometry>
        </mxCell>
        <mxCell id="hcWVQAkEK2Su6mpxol3i-118" value="" style="shape=tableRow;horizontal=0;startSize=0;swimlaneHead=0;swimlaneBody=0;fillColor=none;collapsible=0;dropTarget=0;points=[[0,0.5],[1,0.5]];portConstraint=eastwest;top=0;left=0;right=0;bottom=1;" parent="hcWVQAkEK2Su6mpxol3i-114" vertex="1">
          <mxGeometry y="60" width="180" height="30" as="geometry" />
        </mxCell>
        <mxCell id="hcWVQAkEK2Su6mpxol3i-119" value="PFK" style="shape=partialRectangle;connectable=0;fillColor=none;top=0;left=0;bottom=0;right=0;fontStyle=1;overflow=hidden;whiteSpace=wrap;html=1;" parent="hcWVQAkEK2Su6mpxol3i-118" vertex="1">
          <mxGeometry width="30" height="30" as="geometry">
            <mxRectangle width="30" height="30" as="alternateBounds" />
          </mxGeometry>
        </mxCell>
        <mxCell id="hcWVQAkEK2Su6mpxol3i-120" value="nombre_Ciudad" style="shape=partialRectangle;connectable=0;fillColor=none;top=0;left=0;bottom=0;right=0;align=left;spacingLeft=6;fontStyle=1;overflow=hidden;whiteSpace=wrap;html=1;" parent="hcWVQAkEK2Su6mpxol3i-118" vertex="1">
          <mxGeometry x="30" width="150" height="30" as="geometry">
            <mxRectangle width="150" height="30" as="alternateBounds" />
          </mxGeometry>
        </mxCell>
        <mxCell id="hcWVQAkEK2Su6mpxol3i-121" value="" style="shape=tableRow;horizontal=0;startSize=0;swimlaneHead=0;swimlaneBody=0;fillColor=none;collapsible=0;dropTarget=0;points=[[0,0.5],[1,0.5]];portConstraint=eastwest;top=0;left=0;right=0;bottom=1;" parent="hcWVQAkEK2Su6mpxol3i-114" vertex="1">
          <mxGeometry y="90" width="180" height="30" as="geometry" />
        </mxCell>
        <mxCell id="hcWVQAkEK2Su6mpxol3i-122" value="" style="shape=partialRectangle;connectable=0;fillColor=none;top=0;left=0;bottom=0;right=0;fontStyle=1;overflow=hidden;whiteSpace=wrap;html=1;" parent="hcWVQAkEK2Su6mpxol3i-121" vertex="1">
          <mxGeometry width="30" height="30" as="geometry">
            <mxRectangle width="30" height="30" as="alternateBounds" />
          </mxGeometry>
        </mxCell>
        <mxCell id="hcWVQAkEK2Su6mpxol3i-123" value="&lt;span style=&quot;font-weight: 400;&quot;&gt;direccion&lt;/span&gt;" style="shape=partialRectangle;connectable=0;fillColor=none;top=0;left=0;bottom=0;right=0;align=left;spacingLeft=6;fontStyle=1;overflow=hidden;whiteSpace=wrap;html=1;" parent="hcWVQAkEK2Su6mpxol3i-121" vertex="1">
          <mxGeometry x="30" width="150" height="30" as="geometry">
            <mxRectangle width="150" height="30" as="alternateBounds" />
          </mxGeometry>
        </mxCell>
        <mxCell id="hcWVQAkEK2Su6mpxol3i-124" value="" style="edgeStyle=entityRelationEdgeStyle;fontSize=12;html=1;endArrow=ERoneToMany;rounded=0;exitX=1;exitY=0.25;exitDx=0;exitDy=0;entryX=1;entryY=0.5;entryDx=0;entryDy=0;" parent="1" source="hcWVQAkEK2Su6mpxol3i-114" target="hcWVQAkEK2Su6mpxol3i-82" edge="1">
          <mxGeometry width="100" height="100" relative="1" as="geometry">
            <mxPoint x="2020" y="-115" as="sourcePoint" />
            <mxPoint x="2190" y="-675" as="targetPoint" />
          </mxGeometry>
        </mxCell>
        <mxCell id="hcWVQAkEK2Su6mpxol3i-125" value="Ciudad" style="shape=table;startSize=30;container=1;collapsible=1;childLayout=tableLayout;fixedRows=1;rowLines=0;fontStyle=1;align=center;resizeLast=1;html=1;" parent="1" vertex="1">
          <mxGeometry x="2220" y="100" width="180" height="150" as="geometry" />
        </mxCell>
        <mxCell id="hcWVQAkEK2Su6mpxol3i-126" value="" style="shape=tableRow;horizontal=0;startSize=0;swimlaneHead=0;swimlaneBody=0;fillColor=none;collapsible=0;dropTarget=0;points=[[0,0.5],[1,0.5]];portConstraint=eastwest;top=0;left=0;right=0;bottom=1;" parent="hcWVQAkEK2Su6mpxol3i-125" vertex="1">
          <mxGeometry y="30" width="180" height="30" as="geometry" />
        </mxCell>
        <mxCell id="hcWVQAkEK2Su6mpxol3i-127" value="PK" style="shape=partialRectangle;connectable=0;fillColor=none;top=0;left=0;bottom=0;right=0;fontStyle=1;overflow=hidden;whiteSpace=wrap;html=1;" parent="hcWVQAkEK2Su6mpxol3i-126" vertex="1">
          <mxGeometry width="30" height="30" as="geometry">
            <mxRectangle width="30" height="30" as="alternateBounds" />
          </mxGeometry>
        </mxCell>
        <mxCell id="hcWVQAkEK2Su6mpxol3i-128" value="nombre_Ciudad" style="shape=partialRectangle;connectable=0;fillColor=none;top=0;left=0;bottom=0;right=0;align=left;spacingLeft=6;fontStyle=1;overflow=hidden;whiteSpace=wrap;html=1;" parent="hcWVQAkEK2Su6mpxol3i-126" vertex="1">
          <mxGeometry x="30" width="150" height="30" as="geometry">
            <mxRectangle width="150" height="30" as="alternateBounds" />
          </mxGeometry>
        </mxCell>
        <mxCell id="hcWVQAkEK2Su6mpxol3i-129" value="" style="shape=tableRow;horizontal=0;startSize=0;swimlaneHead=0;swimlaneBody=0;fillColor=none;collapsible=0;dropTarget=0;points=[[0,0.5],[1,0.5]];portConstraint=eastwest;top=0;left=0;right=0;bottom=0;" parent="hcWVQAkEK2Su6mpxol3i-125" vertex="1">
          <mxGeometry y="60" width="180" height="30" as="geometry" />
        </mxCell>
        <mxCell id="hcWVQAkEK2Su6mpxol3i-130" value="" style="shape=partialRectangle;connectable=0;fillColor=none;top=0;left=0;bottom=0;right=0;editable=1;overflow=hidden;whiteSpace=wrap;html=1;" parent="hcWVQAkEK2Su6mpxol3i-129" vertex="1">
          <mxGeometry width="30" height="30" as="geometry">
            <mxRectangle width="30" height="30" as="alternateBounds" />
          </mxGeometry>
        </mxCell>
        <mxCell id="hcWVQAkEK2Su6mpxol3i-131" value="numHabitantes" style="shape=partialRectangle;connectable=0;fillColor=none;top=0;left=0;bottom=0;right=0;align=left;spacingLeft=6;overflow=hidden;whiteSpace=wrap;html=1;" parent="hcWVQAkEK2Su6mpxol3i-129" vertex="1">
          <mxGeometry x="30" width="150" height="30" as="geometry">
            <mxRectangle width="150" height="30" as="alternateBounds" />
          </mxGeometry>
        </mxCell>
        <mxCell id="hcWVQAkEK2Su6mpxol3i-132" value="" style="shape=tableRow;horizontal=0;startSize=0;swimlaneHead=0;swimlaneBody=0;fillColor=none;collapsible=0;dropTarget=0;points=[[0,0.5],[1,0.5]];portConstraint=eastwest;top=0;left=0;right=0;bottom=0;" parent="hcWVQAkEK2Su6mpxol3i-125" vertex="1">
          <mxGeometry y="90" width="180" height="30" as="geometry" />
        </mxCell>
        <mxCell id="hcWVQAkEK2Su6mpxol3i-133" value="" style="shape=partialRectangle;connectable=0;fillColor=none;top=0;left=0;bottom=0;right=0;editable=1;overflow=hidden;whiteSpace=wrap;html=1;" parent="hcWVQAkEK2Su6mpxol3i-132" vertex="1">
          <mxGeometry width="30" height="30" as="geometry">
            <mxRectangle width="30" height="30" as="alternateBounds" />
          </mxGeometry>
        </mxCell>
        <mxCell id="hcWVQAkEK2Su6mpxol3i-134" value="provincia" style="shape=partialRectangle;connectable=0;fillColor=none;top=0;left=0;bottom=0;right=0;align=left;spacingLeft=6;overflow=hidden;whiteSpace=wrap;html=1;" parent="hcWVQAkEK2Su6mpxol3i-132" vertex="1">
          <mxGeometry x="30" width="150" height="30" as="geometry">
            <mxRectangle width="150" height="30" as="alternateBounds" />
          </mxGeometry>
        </mxCell>
        <mxCell id="hcWVQAkEK2Su6mpxol3i-135" value="" style="shape=tableRow;horizontal=0;startSize=0;swimlaneHead=0;swimlaneBody=0;fillColor=none;collapsible=0;dropTarget=0;points=[[0,0.5],[1,0.5]];portConstraint=eastwest;top=0;left=0;right=0;bottom=0;" parent="hcWVQAkEK2Su6mpxol3i-125" vertex="1">
          <mxGeometry y="120" width="180" height="30" as="geometry" />
        </mxCell>
        <mxCell id="hcWVQAkEK2Su6mpxol3i-136" value="" style="shape=partialRectangle;connectable=0;fillColor=none;top=0;left=0;bottom=0;right=0;editable=1;overflow=hidden;whiteSpace=wrap;html=1;" parent="hcWVQAkEK2Su6mpxol3i-135" vertex="1">
          <mxGeometry width="30" height="30" as="geometry">
            <mxRectangle width="30" height="30" as="alternateBounds" />
          </mxGeometry>
        </mxCell>
        <mxCell id="hcWVQAkEK2Su6mpxol3i-137" value="CodigoPostal" style="shape=partialRectangle;connectable=0;fillColor=none;top=0;left=0;bottom=0;right=0;align=left;spacingLeft=6;overflow=hidden;whiteSpace=wrap;html=1;" parent="hcWVQAkEK2Su6mpxol3i-135" vertex="1">
          <mxGeometry x="30" width="150" height="30" as="geometry">
            <mxRectangle width="150" height="30" as="alternateBounds" />
          </mxGeometry>
        </mxCell>
        <mxCell id="hcWVQAkEK2Su6mpxol3i-138" value="" style="edgeStyle=entityRelationEdgeStyle;fontSize=12;html=1;endArrow=ERoneToMany;rounded=0;exitX=1;exitY=0.5;exitDx=0;exitDy=0;entryX=1;entryY=0.25;entryDx=0;entryDy=0;" parent="1" target="hcWVQAkEK2Su6mpxol3i-125" edge="1">
          <mxGeometry width="100" height="100" relative="1" as="geometry">
            <mxPoint x="2400" y="-45" as="sourcePoint" />
            <mxPoint x="2410" y="-285" as="targetPoint" />
          </mxGeometry>
        </mxCell>
        <mxCell id="hcWVQAkEK2Su6mpxol3i-159" value="Telefono_clientes" style="shape=table;startSize=30;container=1;collapsible=0;childLayout=tableLayout;strokeColor=default;fontSize=12;fontStyle=0;labelBackgroundColor=#fdd3e4;" parent="1" vertex="1">
          <mxGeometry x="-800" y="-520" width="350" height="90" as="geometry" />
        </mxCell>
        <mxCell id="hcWVQAkEK2Su6mpxol3i-160" value="" style="shape=tableRow;horizontal=0;startSize=0;swimlaneHead=0;swimlaneBody=0;strokeColor=inherit;top=0;left=0;bottom=0;right=0;collapsible=0;dropTarget=0;fillColor=none;points=[[0,0.5],[1,0.5]];portConstraint=eastwest;fontSize=12;" parent="hcWVQAkEK2Su6mpxol3i-159" vertex="1">
          <mxGeometry y="30" width="350" height="30" as="geometry" />
        </mxCell>
        <mxCell id="hcWVQAkEK2Su6mpxol3i-161" value="&lt;b style=&quot;font-size: 12px;&quot;&gt;PK&lt;/b&gt;" style="shape=partialRectangle;html=1;whiteSpace=wrap;connectable=0;strokeColor=inherit;overflow=hidden;fillColor=none;top=0;left=0;bottom=0;right=0;pointerEvents=1;fontSize=12;" parent="hcWVQAkEK2Su6mpxol3i-160" vertex="1">
          <mxGeometry width="74" height="30" as="geometry">
            <mxRectangle width="74" height="30" as="alternateBounds" />
          </mxGeometry>
        </mxCell>
        <mxCell id="hcWVQAkEK2Su6mpxol3i-162" value="&lt;b style=&quot;font-size: 12px;&quot;&gt;Telefono&lt;/b&gt;" style="shape=partialRectangle;html=1;whiteSpace=wrap;connectable=0;strokeColor=inherit;overflow=hidden;fillColor=none;top=0;left=0;bottom=0;right=0;pointerEvents=1;fontSize=12;" parent="hcWVQAkEK2Su6mpxol3i-160" vertex="1">
          <mxGeometry x="74" width="140" height="30" as="geometry">
            <mxRectangle width="140" height="30" as="alternateBounds" />
          </mxGeometry>
        </mxCell>
        <mxCell id="hcWVQAkEK2Su6mpxol3i-163" value="char(10)" style="shape=partialRectangle;html=1;whiteSpace=wrap;connectable=0;strokeColor=inherit;overflow=hidden;fillColor=none;top=0;left=0;bottom=0;right=0;pointerEvents=1;fontSize=12;" parent="hcWVQAkEK2Su6mpxol3i-160" vertex="1">
          <mxGeometry x="214" width="76" height="30" as="geometry">
            <mxRectangle width="76" height="30" as="alternateBounds" />
          </mxGeometry>
        </mxCell>
        <mxCell id="hcWVQAkEK2Su6mpxol3i-172" value="NOT NULL" style="shape=partialRectangle;html=1;whiteSpace=wrap;connectable=0;strokeColor=inherit;overflow=hidden;fillColor=none;top=0;left=0;bottom=0;right=0;pointerEvents=1;fontSize=12;" parent="hcWVQAkEK2Su6mpxol3i-160" vertex="1">
          <mxGeometry x="290" width="60" height="30" as="geometry">
            <mxRectangle width="60" height="30" as="alternateBounds" />
          </mxGeometry>
        </mxCell>
        <mxCell id="hcWVQAkEK2Su6mpxol3i-164" value="" style="shape=tableRow;horizontal=0;startSize=0;swimlaneHead=0;swimlaneBody=0;strokeColor=inherit;top=0;left=0;bottom=0;right=0;collapsible=0;dropTarget=0;fillColor=none;points=[[0,0.5],[1,0.5]];portConstraint=eastwest;fontSize=16;" parent="hcWVQAkEK2Su6mpxol3i-159" vertex="1">
          <mxGeometry y="60" width="350" height="30" as="geometry" />
        </mxCell>
        <mxCell id="hcWVQAkEK2Su6mpxol3i-165" value="PFK" style="shape=partialRectangle;html=1;whiteSpace=wrap;connectable=0;strokeColor=inherit;overflow=hidden;fillColor=none;top=0;left=0;bottom=0;right=0;pointerEvents=1;fontSize=12;fontStyle=1" parent="hcWVQAkEK2Su6mpxol3i-164" vertex="1">
          <mxGeometry width="74" height="30" as="geometry">
            <mxRectangle width="74" height="30" as="alternateBounds" />
          </mxGeometry>
        </mxCell>
        <mxCell id="hcWVQAkEK2Su6mpxol3i-166" value="&lt;b style=&quot;font-size: 12px;&quot;&gt;CodigoCliente&lt;/b&gt;" style="shape=partialRectangle;html=1;whiteSpace=wrap;connectable=0;strokeColor=inherit;overflow=hidden;fillColor=none;top=0;left=0;bottom=0;right=0;pointerEvents=1;fontSize=12;" parent="hcWVQAkEK2Su6mpxol3i-164" vertex="1">
          <mxGeometry x="74" width="140" height="30" as="geometry">
            <mxRectangle width="140" height="30" as="alternateBounds" />
          </mxGeometry>
        </mxCell>
        <mxCell id="hcWVQAkEK2Su6mpxol3i-167" value="INT" style="shape=partialRectangle;html=1;whiteSpace=wrap;connectable=0;strokeColor=inherit;overflow=hidden;fillColor=none;top=0;left=0;bottom=0;right=0;pointerEvents=1;fontSize=12;" parent="hcWVQAkEK2Su6mpxol3i-164" vertex="1">
          <mxGeometry x="214" width="76" height="30" as="geometry">
            <mxRectangle width="76" height="30" as="alternateBounds" />
          </mxGeometry>
        </mxCell>
        <mxCell id="hcWVQAkEK2Su6mpxol3i-173" value="NOT NULL" style="shape=partialRectangle;html=1;whiteSpace=wrap;connectable=0;strokeColor=inherit;overflow=hidden;fillColor=none;top=0;left=0;bottom=0;right=0;pointerEvents=1;fontSize=12;" parent="hcWVQAkEK2Su6mpxol3i-164" vertex="1">
          <mxGeometry x="290" width="60" height="30" as="geometry">
            <mxRectangle width="60" height="30" as="alternateBounds" />
          </mxGeometry>
        </mxCell>
        <mxCell id="hcWVQAkEK2Su6mpxol3i-186" value="" style="edgeStyle=entityRelationEdgeStyle;fontSize=12;html=1;endArrow=ERoneToMany;rounded=0;entryX=1;entryY=0.5;entryDx=0;entryDy=0;exitX=0;exitY=0.5;exitDx=0;exitDy=0;" parent="1" source="hcWVQAkEK2Su6mpxol3i-188" target="hcWVQAkEK2Su6mpxol3i-160" edge="1">
          <mxGeometry width="100" height="100" relative="1" as="geometry">
            <mxPoint x="-230" y="-480" as="sourcePoint" />
            <mxPoint x="-360" y="-470" as="targetPoint" />
          </mxGeometry>
        </mxCell>
        <mxCell id="hcWVQAkEK2Su6mpxol3i-187" value="clientes" style="shape=table;startSize=30;container=1;collapsible=0;childLayout=tableLayout;strokeColor=default;fontSize=12;fontStyle=0;labelBackgroundColor=#fdd3e4;" parent="1" vertex="1">
          <mxGeometry x="-340" y="-520" width="430" height="270" as="geometry" />
        </mxCell>
        <mxCell id="hcWVQAkEK2Su6mpxol3i-188" value="" style="shape=tableRow;horizontal=0;startSize=0;swimlaneHead=0;swimlaneBody=0;strokeColor=inherit;top=0;left=0;bottom=0;right=0;collapsible=0;dropTarget=0;fillColor=none;points=[[0,0.5],[1,0.5]];portConstraint=eastwest;fontSize=12;" parent="hcWVQAkEK2Su6mpxol3i-187" vertex="1">
          <mxGeometry y="30" width="430" height="30" as="geometry" />
        </mxCell>
        <mxCell id="hcWVQAkEK2Su6mpxol3i-189" value="&lt;b style=&quot;font-size: 12px;&quot;&gt;PK&lt;/b&gt;" style="shape=partialRectangle;html=1;whiteSpace=wrap;connectable=0;strokeColor=inherit;overflow=hidden;fillColor=none;top=0;left=0;bottom=0;right=0;pointerEvents=1;fontSize=12;" parent="hcWVQAkEK2Su6mpxol3i-188" vertex="1">
          <mxGeometry width="73" height="30" as="geometry">
            <mxRectangle width="73" height="30" as="alternateBounds" />
          </mxGeometry>
        </mxCell>
        <mxCell id="hcWVQAkEK2Su6mpxol3i-190" value="&lt;b style=&quot;font-size: 12px;&quot;&gt;CodigoCliente&lt;/b&gt;" style="shape=partialRectangle;html=1;whiteSpace=wrap;connectable=0;strokeColor=inherit;overflow=hidden;fillColor=none;top=0;left=0;bottom=0;right=0;pointerEvents=1;fontSize=12;" parent="hcWVQAkEK2Su6mpxol3i-188" vertex="1">
          <mxGeometry x="73" width="158" height="30" as="geometry">
            <mxRectangle width="158" height="30" as="alternateBounds" />
          </mxGeometry>
        </mxCell>
        <mxCell id="hcWVQAkEK2Su6mpxol3i-191" value="INT" style="shape=partialRectangle;html=1;whiteSpace=wrap;connectable=0;strokeColor=inherit;overflow=hidden;fillColor=none;top=0;left=0;bottom=0;right=0;pointerEvents=1;fontSize=12;" parent="hcWVQAkEK2Su6mpxol3i-188" vertex="1">
          <mxGeometry x="231" width="139" height="30" as="geometry">
            <mxRectangle width="139" height="30" as="alternateBounds" />
          </mxGeometry>
        </mxCell>
        <mxCell id="hcWVQAkEK2Su6mpxol3i-192" value="NOT NULL" style="shape=partialRectangle;html=1;whiteSpace=wrap;connectable=0;strokeColor=inherit;overflow=hidden;fillColor=none;top=0;left=0;bottom=0;right=0;pointerEvents=1;fontSize=12;" parent="hcWVQAkEK2Su6mpxol3i-188" vertex="1">
          <mxGeometry x="370" width="60" height="30" as="geometry">
            <mxRectangle width="60" height="30" as="alternateBounds" />
          </mxGeometry>
        </mxCell>
        <mxCell id="hcWVQAkEK2Su6mpxol3i-193" value="" style="shape=tableRow;horizontal=0;startSize=0;swimlaneHead=0;swimlaneBody=0;strokeColor=inherit;top=0;left=0;bottom=0;right=0;collapsible=0;dropTarget=0;fillColor=none;points=[[0,0.5],[1,0.5]];portConstraint=eastwest;fontSize=16;" parent="hcWVQAkEK2Su6mpxol3i-187" vertex="1">
          <mxGeometry y="60" width="430" height="30" as="geometry" />
        </mxCell>
        <mxCell id="hcWVQAkEK2Su6mpxol3i-194" value="" style="shape=partialRectangle;html=1;whiteSpace=wrap;connectable=0;strokeColor=inherit;overflow=hidden;fillColor=none;top=0;left=0;bottom=0;right=0;pointerEvents=1;fontSize=12;fontStyle=1" parent="hcWVQAkEK2Su6mpxol3i-193" vertex="1">
          <mxGeometry width="73" height="30" as="geometry">
            <mxRectangle width="73" height="30" as="alternateBounds" />
          </mxGeometry>
        </mxCell>
        <mxCell id="hcWVQAkEK2Su6mpxol3i-195" value="&lt;b style=&quot;font-size: 12px;&quot;&gt;DNI&lt;/b&gt;" style="shape=partialRectangle;html=1;whiteSpace=wrap;connectable=0;strokeColor=inherit;overflow=hidden;fillColor=none;top=0;left=0;bottom=0;right=0;pointerEvents=1;fontSize=12;" parent="hcWVQAkEK2Su6mpxol3i-193" vertex="1">
          <mxGeometry x="73" width="158" height="30" as="geometry">
            <mxRectangle width="158" height="30" as="alternateBounds" />
          </mxGeometry>
        </mxCell>
        <mxCell id="hcWVQAkEK2Su6mpxol3i-196" value="VARCHAR(50)" style="shape=partialRectangle;html=1;whiteSpace=wrap;connectable=0;strokeColor=inherit;overflow=hidden;fillColor=none;top=0;left=0;bottom=0;right=0;pointerEvents=1;fontSize=12;" parent="hcWVQAkEK2Su6mpxol3i-193" vertex="1">
          <mxGeometry x="231" width="139" height="30" as="geometry">
            <mxRectangle width="139" height="30" as="alternateBounds" />
          </mxGeometry>
        </mxCell>
        <mxCell id="hcWVQAkEK2Su6mpxol3i-197" value="NOT NULL" style="shape=partialRectangle;html=1;whiteSpace=wrap;connectable=0;strokeColor=inherit;overflow=hidden;fillColor=none;top=0;left=0;bottom=0;right=0;pointerEvents=1;fontSize=12;" parent="hcWVQAkEK2Su6mpxol3i-193" vertex="1">
          <mxGeometry x="370" width="60" height="30" as="geometry">
            <mxRectangle width="60" height="30" as="alternateBounds" />
          </mxGeometry>
        </mxCell>
        <mxCell id="hcWVQAkEK2Su6mpxol3i-209" value="" style="shape=tableRow;horizontal=0;startSize=0;swimlaneHead=0;swimlaneBody=0;strokeColor=inherit;top=0;left=0;bottom=0;right=0;collapsible=0;dropTarget=0;fillColor=none;points=[[0,0.5],[1,0.5]];portConstraint=eastwest;fontSize=16;" parent="hcWVQAkEK2Su6mpxol3i-187" vertex="1">
          <mxGeometry y="90" width="430" height="30" as="geometry" />
        </mxCell>
        <mxCell id="hcWVQAkEK2Su6mpxol3i-210" value="" style="shape=partialRectangle;html=1;whiteSpace=wrap;connectable=0;strokeColor=inherit;overflow=hidden;fillColor=none;top=0;left=0;bottom=0;right=0;pointerEvents=1;fontSize=12;fontStyle=1" parent="hcWVQAkEK2Su6mpxol3i-209" vertex="1">
          <mxGeometry width="73" height="30" as="geometry">
            <mxRectangle width="73" height="30" as="alternateBounds" />
          </mxGeometry>
        </mxCell>
        <mxCell id="hcWVQAkEK2Su6mpxol3i-211" value="&lt;b style=&quot;font-size: 12px;&quot;&gt;nombre&lt;/b&gt;" style="shape=partialRectangle;html=1;whiteSpace=wrap;connectable=0;strokeColor=inherit;overflow=hidden;fillColor=none;top=0;left=0;bottom=0;right=0;pointerEvents=1;fontSize=12;" parent="hcWVQAkEK2Su6mpxol3i-209" vertex="1">
          <mxGeometry x="73" width="158" height="30" as="geometry">
            <mxRectangle width="158" height="30" as="alternateBounds" />
          </mxGeometry>
        </mxCell>
        <mxCell id="hcWVQAkEK2Su6mpxol3i-212" value="VARCHAR(25)" style="shape=partialRectangle;html=1;whiteSpace=wrap;connectable=0;strokeColor=inherit;overflow=hidden;fillColor=none;top=0;left=0;bottom=0;right=0;pointerEvents=1;fontSize=12;" parent="hcWVQAkEK2Su6mpxol3i-209" vertex="1">
          <mxGeometry x="231" width="139" height="30" as="geometry">
            <mxRectangle width="139" height="30" as="alternateBounds" />
          </mxGeometry>
        </mxCell>
        <mxCell id="hcWVQAkEK2Su6mpxol3i-213" value="NOT NULL" style="shape=partialRectangle;html=1;whiteSpace=wrap;connectable=0;strokeColor=inherit;overflow=hidden;fillColor=none;top=0;left=0;bottom=0;right=0;pointerEvents=1;fontSize=12;" parent="hcWVQAkEK2Su6mpxol3i-209" vertex="1">
          <mxGeometry x="370" width="60" height="30" as="geometry">
            <mxRectangle width="60" height="30" as="alternateBounds" />
          </mxGeometry>
        </mxCell>
        <mxCell id="hcWVQAkEK2Su6mpxol3i-214" value="" style="shape=tableRow;horizontal=0;startSize=0;swimlaneHead=0;swimlaneBody=0;strokeColor=inherit;top=0;left=0;bottom=0;right=0;collapsible=0;dropTarget=0;fillColor=none;points=[[0,0.5],[1,0.5]];portConstraint=eastwest;fontSize=16;" parent="hcWVQAkEK2Su6mpxol3i-187" vertex="1">
          <mxGeometry y="120" width="430" height="30" as="geometry" />
        </mxCell>
        <mxCell id="hcWVQAkEK2Su6mpxol3i-215" value="" style="shape=partialRectangle;html=1;whiteSpace=wrap;connectable=0;strokeColor=inherit;overflow=hidden;fillColor=none;top=0;left=0;bottom=0;right=0;pointerEvents=1;fontSize=12;fontStyle=1" parent="hcWVQAkEK2Su6mpxol3i-214" vertex="1">
          <mxGeometry width="73" height="30" as="geometry">
            <mxRectangle width="73" height="30" as="alternateBounds" />
          </mxGeometry>
        </mxCell>
        <mxCell id="hcWVQAkEK2Su6mpxol3i-216" value="&lt;b style=&quot;font-size: 12px;&quot;&gt;papellido&lt;/b&gt;" style="shape=partialRectangle;html=1;whiteSpace=wrap;connectable=0;strokeColor=inherit;overflow=hidden;fillColor=none;top=0;left=0;bottom=0;right=0;pointerEvents=1;fontSize=12;" parent="hcWVQAkEK2Su6mpxol3i-214" vertex="1">
          <mxGeometry x="73" width="158" height="30" as="geometry">
            <mxRectangle width="158" height="30" as="alternateBounds" />
          </mxGeometry>
        </mxCell>
        <mxCell id="hcWVQAkEK2Su6mpxol3i-217" value="VARCHAR(25)" style="shape=partialRectangle;html=1;whiteSpace=wrap;connectable=0;strokeColor=inherit;overflow=hidden;fillColor=none;top=0;left=0;bottom=0;right=0;pointerEvents=1;fontSize=12;" parent="hcWVQAkEK2Su6mpxol3i-214" vertex="1">
          <mxGeometry x="231" width="139" height="30" as="geometry">
            <mxRectangle width="139" height="30" as="alternateBounds" />
          </mxGeometry>
        </mxCell>
        <mxCell id="hcWVQAkEK2Su6mpxol3i-218" value="NOT NULL" style="shape=partialRectangle;html=1;whiteSpace=wrap;connectable=0;strokeColor=inherit;overflow=hidden;fillColor=none;top=0;left=0;bottom=0;right=0;pointerEvents=1;fontSize=12;" parent="hcWVQAkEK2Su6mpxol3i-214" vertex="1">
          <mxGeometry x="370" width="60" height="30" as="geometry">
            <mxRectangle width="60" height="30" as="alternateBounds" />
          </mxGeometry>
        </mxCell>
        <mxCell id="hcWVQAkEK2Su6mpxol3i-219" value="" style="shape=tableRow;horizontal=0;startSize=0;swimlaneHead=0;swimlaneBody=0;strokeColor=inherit;top=0;left=0;bottom=0;right=0;collapsible=0;dropTarget=0;fillColor=none;points=[[0,0.5],[1,0.5]];portConstraint=eastwest;fontSize=16;" parent="hcWVQAkEK2Su6mpxol3i-187" vertex="1">
          <mxGeometry y="150" width="430" height="30" as="geometry" />
        </mxCell>
        <mxCell id="hcWVQAkEK2Su6mpxol3i-220" value="" style="shape=partialRectangle;html=1;whiteSpace=wrap;connectable=0;strokeColor=inherit;overflow=hidden;fillColor=none;top=0;left=0;bottom=0;right=0;pointerEvents=1;fontSize=12;fontStyle=1" parent="hcWVQAkEK2Su6mpxol3i-219" vertex="1">
          <mxGeometry width="73" height="30" as="geometry">
            <mxRectangle width="73" height="30" as="alternateBounds" />
          </mxGeometry>
        </mxCell>
        <mxCell id="hcWVQAkEK2Su6mpxol3i-221" value="&lt;b style=&quot;font-size: 12px;&quot;&gt;mapellido&lt;/b&gt;" style="shape=partialRectangle;html=1;whiteSpace=wrap;connectable=0;strokeColor=inherit;overflow=hidden;fillColor=none;top=0;left=0;bottom=0;right=0;pointerEvents=1;fontSize=12;" parent="hcWVQAkEK2Su6mpxol3i-219" vertex="1">
          <mxGeometry x="73" width="158" height="30" as="geometry">
            <mxRectangle width="158" height="30" as="alternateBounds" />
          </mxGeometry>
        </mxCell>
        <mxCell id="hcWVQAkEK2Su6mpxol3i-222" value="VARCHAR(25)" style="shape=partialRectangle;html=1;whiteSpace=wrap;connectable=0;strokeColor=inherit;overflow=hidden;fillColor=none;top=0;left=0;bottom=0;right=0;pointerEvents=1;fontSize=12;" parent="hcWVQAkEK2Su6mpxol3i-219" vertex="1">
          <mxGeometry x="231" width="139" height="30" as="geometry">
            <mxRectangle width="139" height="30" as="alternateBounds" />
          </mxGeometry>
        </mxCell>
        <mxCell id="hcWVQAkEK2Su6mpxol3i-223" value="" style="shape=partialRectangle;html=1;whiteSpace=wrap;connectable=0;strokeColor=inherit;overflow=hidden;fillColor=none;top=0;left=0;bottom=0;right=0;pointerEvents=1;fontSize=12;" parent="hcWVQAkEK2Su6mpxol3i-219" vertex="1">
          <mxGeometry x="370" width="60" height="30" as="geometry">
            <mxRectangle width="60" height="30" as="alternateBounds" />
          </mxGeometry>
        </mxCell>
        <mxCell id="hcWVQAkEK2Su6mpxol3i-224" value="" style="shape=tableRow;horizontal=0;startSize=0;swimlaneHead=0;swimlaneBody=0;strokeColor=inherit;top=0;left=0;bottom=0;right=0;collapsible=0;dropTarget=0;fillColor=none;points=[[0,0.5],[1,0.5]];portConstraint=eastwest;fontSize=16;" parent="hcWVQAkEK2Su6mpxol3i-187" vertex="1">
          <mxGeometry y="180" width="430" height="30" as="geometry" />
        </mxCell>
        <mxCell id="hcWVQAkEK2Su6mpxol3i-225" value="" style="shape=partialRectangle;html=1;whiteSpace=wrap;connectable=0;strokeColor=inherit;overflow=hidden;fillColor=none;top=0;left=0;bottom=0;right=0;pointerEvents=1;fontSize=12;fontStyle=1" parent="hcWVQAkEK2Su6mpxol3i-224" vertex="1">
          <mxGeometry width="73" height="30" as="geometry">
            <mxRectangle width="73" height="30" as="alternateBounds" />
          </mxGeometry>
        </mxCell>
        <mxCell id="hcWVQAkEK2Su6mpxol3i-226" value="&lt;b style=&quot;font-size: 12px;&quot;&gt;calle&lt;/b&gt;" style="shape=partialRectangle;html=1;whiteSpace=wrap;connectable=0;strokeColor=inherit;overflow=hidden;fillColor=none;top=0;left=0;bottom=0;right=0;pointerEvents=1;fontSize=12;" parent="hcWVQAkEK2Su6mpxol3i-224" vertex="1">
          <mxGeometry x="73" width="158" height="30" as="geometry">
            <mxRectangle width="158" height="30" as="alternateBounds" />
          </mxGeometry>
        </mxCell>
        <mxCell id="hcWVQAkEK2Su6mpxol3i-227" value="VARCHAR(25)" style="shape=partialRectangle;html=1;whiteSpace=wrap;connectable=0;strokeColor=inherit;overflow=hidden;fillColor=none;top=0;left=0;bottom=0;right=0;pointerEvents=1;fontSize=12;" parent="hcWVQAkEK2Su6mpxol3i-224" vertex="1">
          <mxGeometry x="231" width="139" height="30" as="geometry">
            <mxRectangle width="139" height="30" as="alternateBounds" />
          </mxGeometry>
        </mxCell>
        <mxCell id="hcWVQAkEK2Su6mpxol3i-228" value="" style="shape=partialRectangle;html=1;whiteSpace=wrap;connectable=0;strokeColor=inherit;overflow=hidden;fillColor=none;top=0;left=0;bottom=0;right=0;pointerEvents=1;fontSize=12;" parent="hcWVQAkEK2Su6mpxol3i-224" vertex="1">
          <mxGeometry x="370" width="60" height="30" as="geometry">
            <mxRectangle width="60" height="30" as="alternateBounds" />
          </mxGeometry>
        </mxCell>
        <mxCell id="hcWVQAkEK2Su6mpxol3i-229" value="" style="shape=tableRow;horizontal=0;startSize=0;swimlaneHead=0;swimlaneBody=0;strokeColor=inherit;top=0;left=0;bottom=0;right=0;collapsible=0;dropTarget=0;fillColor=none;points=[[0,0.5],[1,0.5]];portConstraint=eastwest;fontSize=16;" parent="hcWVQAkEK2Su6mpxol3i-187" vertex="1">
          <mxGeometry y="210" width="430" height="30" as="geometry" />
        </mxCell>
        <mxCell id="hcWVQAkEK2Su6mpxol3i-230" value="" style="shape=partialRectangle;html=1;whiteSpace=wrap;connectable=0;strokeColor=inherit;overflow=hidden;fillColor=none;top=0;left=0;bottom=0;right=0;pointerEvents=1;fontSize=12;fontStyle=1" parent="hcWVQAkEK2Su6mpxol3i-229" vertex="1">
          <mxGeometry width="73" height="30" as="geometry">
            <mxRectangle width="73" height="30" as="alternateBounds" />
          </mxGeometry>
        </mxCell>
        <mxCell id="hcWVQAkEK2Su6mpxol3i-231" value="&lt;b style=&quot;font-size: 12px;&quot;&gt;num&lt;/b&gt;" style="shape=partialRectangle;html=1;whiteSpace=wrap;connectable=0;strokeColor=inherit;overflow=hidden;fillColor=none;top=0;left=0;bottom=0;right=0;pointerEvents=1;fontSize=12;" parent="hcWVQAkEK2Su6mpxol3i-229" vertex="1">
          <mxGeometry x="73" width="158" height="30" as="geometry">
            <mxRectangle width="158" height="30" as="alternateBounds" />
          </mxGeometry>
        </mxCell>
        <mxCell id="hcWVQAkEK2Su6mpxol3i-232" value="CHAR(5)" style="shape=partialRectangle;html=1;whiteSpace=wrap;connectable=0;strokeColor=inherit;overflow=hidden;fillColor=none;top=0;left=0;bottom=0;right=0;pointerEvents=1;fontSize=12;" parent="hcWVQAkEK2Su6mpxol3i-229" vertex="1">
          <mxGeometry x="231" width="139" height="30" as="geometry">
            <mxRectangle width="139" height="30" as="alternateBounds" />
          </mxGeometry>
        </mxCell>
        <mxCell id="hcWVQAkEK2Su6mpxol3i-233" value="" style="shape=partialRectangle;html=1;whiteSpace=wrap;connectable=0;strokeColor=inherit;overflow=hidden;fillColor=none;top=0;left=0;bottom=0;right=0;pointerEvents=1;fontSize=12;" parent="hcWVQAkEK2Su6mpxol3i-229" vertex="1">
          <mxGeometry x="370" width="60" height="30" as="geometry">
            <mxRectangle width="60" height="30" as="alternateBounds" />
          </mxGeometry>
        </mxCell>
        <mxCell id="hcWVQAkEK2Su6mpxol3i-234" value="" style="shape=tableRow;horizontal=0;startSize=0;swimlaneHead=0;swimlaneBody=0;strokeColor=inherit;top=0;left=0;bottom=0;right=0;collapsible=0;dropTarget=0;fillColor=none;points=[[0,0.5],[1,0.5]];portConstraint=eastwest;fontSize=16;" parent="hcWVQAkEK2Su6mpxol3i-187" vertex="1">
          <mxGeometry y="240" width="430" height="30" as="geometry" />
        </mxCell>
        <mxCell id="hcWVQAkEK2Su6mpxol3i-235" value="" style="shape=partialRectangle;html=1;whiteSpace=wrap;connectable=0;strokeColor=inherit;overflow=hidden;fillColor=none;top=0;left=0;bottom=0;right=0;pointerEvents=1;fontSize=12;fontStyle=1" parent="hcWVQAkEK2Su6mpxol3i-234" vertex="1">
          <mxGeometry width="73" height="30" as="geometry">
            <mxRectangle width="73" height="30" as="alternateBounds" />
          </mxGeometry>
        </mxCell>
        <mxCell id="hcWVQAkEK2Su6mpxol3i-236" value="&lt;b style=&quot;font-size: 12px;&quot;&gt;ciudad&lt;/b&gt;" style="shape=partialRectangle;html=1;whiteSpace=wrap;connectable=0;strokeColor=inherit;overflow=hidden;fillColor=none;top=0;left=0;bottom=0;right=0;pointerEvents=1;fontSize=12;" parent="hcWVQAkEK2Su6mpxol3i-234" vertex="1">
          <mxGeometry x="73" width="158" height="30" as="geometry">
            <mxRectangle width="158" height="30" as="alternateBounds" />
          </mxGeometry>
        </mxCell>
        <mxCell id="hcWVQAkEK2Su6mpxol3i-237" value="VARCHAR(40)" style="shape=partialRectangle;html=1;whiteSpace=wrap;connectable=0;strokeColor=inherit;overflow=hidden;fillColor=none;top=0;left=0;bottom=0;right=0;pointerEvents=1;fontSize=12;" parent="hcWVQAkEK2Su6mpxol3i-234" vertex="1">
          <mxGeometry x="231" width="139" height="30" as="geometry">
            <mxRectangle width="139" height="30" as="alternateBounds" />
          </mxGeometry>
        </mxCell>
        <mxCell id="hcWVQAkEK2Su6mpxol3i-238" value="" style="shape=partialRectangle;html=1;whiteSpace=wrap;connectable=0;strokeColor=inherit;overflow=hidden;fillColor=none;top=0;left=0;bottom=0;right=0;pointerEvents=1;fontSize=12;" parent="hcWVQAkEK2Su6mpxol3i-234" vertex="1">
          <mxGeometry x="370" width="60" height="30" as="geometry">
            <mxRectangle width="60" height="30" as="alternateBounds" />
          </mxGeometry>
        </mxCell>
        <mxCell id="CCeei102hyegJUPTer4o-1" value="reserva" style="shape=table;startSize=30;container=1;collapsible=0;childLayout=tableLayout;strokeColor=default;fontSize=12;fontStyle=0;labelBackgroundColor=#fdd3e4;" vertex="1" parent="1">
          <mxGeometry x="230" y="-650" width="430" height="360" as="geometry" />
        </mxCell>
        <mxCell id="CCeei102hyegJUPTer4o-2" value="" style="shape=tableRow;horizontal=0;startSize=0;swimlaneHead=0;swimlaneBody=0;strokeColor=inherit;top=0;left=0;bottom=0;right=0;collapsible=0;dropTarget=0;fillColor=none;points=[[0,0.5],[1,0.5]];portConstraint=eastwest;fontSize=12;" vertex="1" parent="CCeei102hyegJUPTer4o-1">
          <mxGeometry y="30" width="430" height="30" as="geometry" />
        </mxCell>
        <mxCell id="CCeei102hyegJUPTer4o-3" value="&lt;b style=&quot;font-size: 12px;&quot;&gt;PK1-FK&lt;/b&gt;" style="shape=partialRectangle;html=1;whiteSpace=wrap;connectable=0;strokeColor=inherit;overflow=hidden;fillColor=none;top=0;left=0;bottom=0;right=0;pointerEvents=1;fontSize=12;" vertex="1" parent="CCeei102hyegJUPTer4o-2">
          <mxGeometry width="73" height="30" as="geometry">
            <mxRectangle width="73" height="30" as="alternateBounds" />
          </mxGeometry>
        </mxCell>
        <mxCell id="CCeei102hyegJUPTer4o-4" value="&lt;b style=&quot;font-size: 12px;&quot;&gt;CodigoCliente&lt;/b&gt;" style="shape=partialRectangle;html=1;whiteSpace=wrap;connectable=0;strokeColor=inherit;overflow=hidden;fillColor=none;top=0;left=0;bottom=0;right=0;pointerEvents=1;fontSize=12;" vertex="1" parent="CCeei102hyegJUPTer4o-2">
          <mxGeometry x="73" width="158" height="30" as="geometry">
            <mxRectangle width="158" height="30" as="alternateBounds" />
          </mxGeometry>
        </mxCell>
        <mxCell id="CCeei102hyegJUPTer4o-5" value="INT" style="shape=partialRectangle;html=1;whiteSpace=wrap;connectable=0;strokeColor=inherit;overflow=hidden;fillColor=none;top=0;left=0;bottom=0;right=0;pointerEvents=1;fontSize=12;" vertex="1" parent="CCeei102hyegJUPTer4o-2">
          <mxGeometry x="231" width="139" height="30" as="geometry">
            <mxRectangle width="139" height="30" as="alternateBounds" />
          </mxGeometry>
        </mxCell>
        <mxCell id="CCeei102hyegJUPTer4o-6" value="NOT NULL" style="shape=partialRectangle;html=1;whiteSpace=wrap;connectable=0;strokeColor=inherit;overflow=hidden;fillColor=none;top=0;left=0;bottom=0;right=0;pointerEvents=1;fontSize=12;" vertex="1" parent="CCeei102hyegJUPTer4o-2">
          <mxGeometry x="370" width="60" height="30" as="geometry">
            <mxRectangle width="60" height="30" as="alternateBounds" />
          </mxGeometry>
        </mxCell>
        <mxCell id="CCeei102hyegJUPTer4o-7" value="" style="shape=tableRow;horizontal=0;startSize=0;swimlaneHead=0;swimlaneBody=0;strokeColor=inherit;top=0;left=0;bottom=0;right=0;collapsible=0;dropTarget=0;fillColor=none;points=[[0,0.5],[1,0.5]];portConstraint=eastwest;fontSize=16;" vertex="1" parent="CCeei102hyegJUPTer4o-1">
          <mxGeometry y="60" width="430" height="30" as="geometry" />
        </mxCell>
        <mxCell id="CCeei102hyegJUPTer4o-8" value="PK2-FK" style="shape=partialRectangle;html=1;whiteSpace=wrap;connectable=0;strokeColor=inherit;overflow=hidden;fillColor=none;top=0;left=0;bottom=0;right=0;pointerEvents=1;fontSize=12;fontStyle=1" vertex="1" parent="CCeei102hyegJUPTer4o-7">
          <mxGeometry width="73" height="30" as="geometry">
            <mxRectangle width="73" height="30" as="alternateBounds" />
          </mxGeometry>
        </mxCell>
        <mxCell id="CCeei102hyegJUPTer4o-9" value="&lt;b style=&quot;font-size: 12px;&quot;&gt;Id_Agencia&lt;/b&gt;" style="shape=partialRectangle;html=1;whiteSpace=wrap;connectable=0;strokeColor=inherit;overflow=hidden;fillColor=none;top=0;left=0;bottom=0;right=0;pointerEvents=1;fontSize=12;" vertex="1" parent="CCeei102hyegJUPTer4o-7">
          <mxGeometry x="73" width="158" height="30" as="geometry">
            <mxRectangle width="158" height="30" as="alternateBounds" />
          </mxGeometry>
        </mxCell>
        <mxCell id="CCeei102hyegJUPTer4o-10" value="INT" style="shape=partialRectangle;html=1;whiteSpace=wrap;connectable=0;strokeColor=inherit;overflow=hidden;fillColor=none;top=0;left=0;bottom=0;right=0;pointerEvents=1;fontSize=12;" vertex="1" parent="CCeei102hyegJUPTer4o-7">
          <mxGeometry x="231" width="139" height="30" as="geometry">
            <mxRectangle width="139" height="30" as="alternateBounds" />
          </mxGeometry>
        </mxCell>
        <mxCell id="CCeei102hyegJUPTer4o-11" value="NOT NULL" style="shape=partialRectangle;html=1;whiteSpace=wrap;connectable=0;strokeColor=inherit;overflow=hidden;fillColor=none;top=0;left=0;bottom=0;right=0;pointerEvents=1;fontSize=12;" vertex="1" parent="CCeei102hyegJUPTer4o-7">
          <mxGeometry x="370" width="60" height="30" as="geometry">
            <mxRectangle width="60" height="30" as="alternateBounds" />
          </mxGeometry>
        </mxCell>
        <mxCell id="CCeei102hyegJUPTer4o-12" value="" style="shape=tableRow;horizontal=0;startSize=0;swimlaneHead=0;swimlaneBody=0;strokeColor=inherit;top=0;left=0;bottom=0;right=0;collapsible=0;dropTarget=0;fillColor=none;points=[[0,0.5],[1,0.5]];portConstraint=eastwest;fontSize=16;" vertex="1" parent="CCeei102hyegJUPTer4o-1">
          <mxGeometry y="90" width="430" height="30" as="geometry" />
        </mxCell>
        <mxCell id="CCeei102hyegJUPTer4o-13" value="PK3-FK" style="shape=partialRectangle;html=1;whiteSpace=wrap;connectable=0;strokeColor=inherit;overflow=hidden;fillColor=none;top=0;left=0;bottom=0;right=0;pointerEvents=1;fontSize=12;fontStyle=1" vertex="1" parent="CCeei102hyegJUPTer4o-12">
          <mxGeometry width="73" height="30" as="geometry">
            <mxRectangle width="73" height="30" as="alternateBounds" />
          </mxGeometry>
        </mxCell>
        <mxCell id="CCeei102hyegJUPTer4o-14" value="&lt;b style=&quot;font-size: 12px;&quot;&gt;Matricula&lt;/b&gt;" style="shape=partialRectangle;html=1;whiteSpace=wrap;connectable=0;strokeColor=inherit;overflow=hidden;fillColor=none;top=0;left=0;bottom=0;right=0;pointerEvents=1;fontSize=12;" vertex="1" parent="CCeei102hyegJUPTer4o-12">
          <mxGeometry x="73" width="158" height="30" as="geometry">
            <mxRectangle width="158" height="30" as="alternateBounds" />
          </mxGeometry>
        </mxCell>
        <mxCell id="CCeei102hyegJUPTer4o-15" value="INT" style="shape=partialRectangle;html=1;whiteSpace=wrap;connectable=0;strokeColor=inherit;overflow=hidden;fillColor=none;top=0;left=0;bottom=0;right=0;pointerEvents=1;fontSize=12;" vertex="1" parent="CCeei102hyegJUPTer4o-12">
          <mxGeometry x="231" width="139" height="30" as="geometry">
            <mxRectangle width="139" height="30" as="alternateBounds" />
          </mxGeometry>
        </mxCell>
        <mxCell id="CCeei102hyegJUPTer4o-16" value="NOT NULL" style="shape=partialRectangle;html=1;whiteSpace=wrap;connectable=0;strokeColor=inherit;overflow=hidden;fillColor=none;top=0;left=0;bottom=0;right=0;pointerEvents=1;fontSize=12;" vertex="1" parent="CCeei102hyegJUPTer4o-12">
          <mxGeometry x="370" width="60" height="30" as="geometry">
            <mxRectangle width="60" height="30" as="alternateBounds" />
          </mxGeometry>
        </mxCell>
        <mxCell id="CCeei102hyegJUPTer4o-17" value="" style="shape=tableRow;horizontal=0;startSize=0;swimlaneHead=0;swimlaneBody=0;strokeColor=inherit;top=0;left=0;bottom=0;right=0;collapsible=0;dropTarget=0;fillColor=none;points=[[0,0.5],[1,0.5]];portConstraint=eastwest;fontSize=16;" vertex="1" parent="CCeei102hyegJUPTer4o-1">
          <mxGeometry y="120" width="430" height="30" as="geometry" />
        </mxCell>
        <mxCell id="CCeei102hyegJUPTer4o-18" value="" style="shape=partialRectangle;html=1;whiteSpace=wrap;connectable=0;strokeColor=inherit;overflow=hidden;fillColor=none;top=0;left=0;bottom=0;right=0;pointerEvents=1;fontSize=12;fontStyle=1" vertex="1" parent="CCeei102hyegJUPTer4o-17">
          <mxGeometry width="73" height="30" as="geometry">
            <mxRectangle width="73" height="30" as="alternateBounds" />
          </mxGeometry>
        </mxCell>
        <mxCell id="CCeei102hyegJUPTer4o-19" value="&lt;b style=&quot;font-size: 12px;&quot;&gt;fechainicio&lt;/b&gt;" style="shape=partialRectangle;html=1;whiteSpace=wrap;connectable=0;strokeColor=inherit;overflow=hidden;fillColor=none;top=0;left=0;bottom=0;right=0;pointerEvents=1;fontSize=12;" vertex="1" parent="CCeei102hyegJUPTer4o-17">
          <mxGeometry x="73" width="158" height="30" as="geometry">
            <mxRectangle width="158" height="30" as="alternateBounds" />
          </mxGeometry>
        </mxCell>
        <mxCell id="CCeei102hyegJUPTer4o-20" value="VARCHAR(25)" style="shape=partialRectangle;html=1;whiteSpace=wrap;connectable=0;strokeColor=inherit;overflow=hidden;fillColor=none;top=0;left=0;bottom=0;right=0;pointerEvents=1;fontSize=12;" vertex="1" parent="CCeei102hyegJUPTer4o-17">
          <mxGeometry x="231" width="139" height="30" as="geometry">
            <mxRectangle width="139" height="30" as="alternateBounds" />
          </mxGeometry>
        </mxCell>
        <mxCell id="CCeei102hyegJUPTer4o-21" value="NOT NULL" style="shape=partialRectangle;html=1;whiteSpace=wrap;connectable=0;strokeColor=inherit;overflow=hidden;fillColor=none;top=0;left=0;bottom=0;right=0;pointerEvents=1;fontSize=12;" vertex="1" parent="CCeei102hyegJUPTer4o-17">
          <mxGeometry x="370" width="60" height="30" as="geometry">
            <mxRectangle width="60" height="30" as="alternateBounds" />
          </mxGeometry>
        </mxCell>
        <mxCell id="CCeei102hyegJUPTer4o-22" value="" style="shape=tableRow;horizontal=0;startSize=0;swimlaneHead=0;swimlaneBody=0;strokeColor=inherit;top=0;left=0;bottom=0;right=0;collapsible=0;dropTarget=0;fillColor=none;points=[[0,0.5],[1,0.5]];portConstraint=eastwest;fontSize=16;" vertex="1" parent="CCeei102hyegJUPTer4o-1">
          <mxGeometry y="150" width="430" height="30" as="geometry" />
        </mxCell>
        <mxCell id="CCeei102hyegJUPTer4o-23" value="" style="shape=partialRectangle;html=1;whiteSpace=wrap;connectable=0;strokeColor=inherit;overflow=hidden;fillColor=none;top=0;left=0;bottom=0;right=0;pointerEvents=1;fontSize=12;fontStyle=1" vertex="1" parent="CCeei102hyegJUPTer4o-22">
          <mxGeometry width="73" height="30" as="geometry">
            <mxRectangle width="73" height="30" as="alternateBounds" />
          </mxGeometry>
        </mxCell>
        <mxCell id="CCeei102hyegJUPTer4o-24" value="&lt;b style=&quot;font-size: 12px;&quot;&gt;precio&lt;/b&gt;" style="shape=partialRectangle;html=1;whiteSpace=wrap;connectable=0;strokeColor=inherit;overflow=hidden;fillColor=none;top=0;left=0;bottom=0;right=0;pointerEvents=1;fontSize=12;" vertex="1" parent="CCeei102hyegJUPTer4o-22">
          <mxGeometry x="73" width="158" height="30" as="geometry">
            <mxRectangle width="158" height="30" as="alternateBounds" />
          </mxGeometry>
        </mxCell>
        <mxCell id="CCeei102hyegJUPTer4o-25" value="VARCHAR(25)" style="shape=partialRectangle;html=1;whiteSpace=wrap;connectable=0;strokeColor=inherit;overflow=hidden;fillColor=none;top=0;left=0;bottom=0;right=0;pointerEvents=1;fontSize=12;" vertex="1" parent="CCeei102hyegJUPTer4o-22">
          <mxGeometry x="231" width="139" height="30" as="geometry">
            <mxRectangle width="139" height="30" as="alternateBounds" />
          </mxGeometry>
        </mxCell>
        <mxCell id="CCeei102hyegJUPTer4o-26" value="NOT NULL" style="shape=partialRectangle;html=1;whiteSpace=wrap;connectable=0;strokeColor=inherit;overflow=hidden;fillColor=none;top=0;left=0;bottom=0;right=0;pointerEvents=1;fontSize=12;" vertex="1" parent="CCeei102hyegJUPTer4o-22">
          <mxGeometry x="370" width="60" height="30" as="geometry">
            <mxRectangle width="60" height="30" as="alternateBounds" />
          </mxGeometry>
        </mxCell>
        <mxCell id="CCeei102hyegJUPTer4o-27" value="" style="shape=tableRow;horizontal=0;startSize=0;swimlaneHead=0;swimlaneBody=0;strokeColor=inherit;top=0;left=0;bottom=0;right=0;collapsible=0;dropTarget=0;fillColor=none;points=[[0,0.5],[1,0.5]];portConstraint=eastwest;fontSize=16;" vertex="1" parent="CCeei102hyegJUPTer4o-1">
          <mxGeometry y="180" width="430" height="30" as="geometry" />
        </mxCell>
        <mxCell id="CCeei102hyegJUPTer4o-28" value="" style="shape=partialRectangle;html=1;whiteSpace=wrap;connectable=0;strokeColor=inherit;overflow=hidden;fillColor=none;top=0;left=0;bottom=0;right=0;pointerEvents=1;fontSize=12;fontStyle=1" vertex="1" parent="CCeei102hyegJUPTer4o-27">
          <mxGeometry width="73" height="30" as="geometry">
            <mxRectangle width="73" height="30" as="alternateBounds" />
          </mxGeometry>
        </mxCell>
        <mxCell id="CCeei102hyegJUPTer4o-29" value="&lt;b style=&quot;font-size: 12px;&quot;&gt;agencia&lt;/b&gt;" style="shape=partialRectangle;html=1;whiteSpace=wrap;connectable=0;strokeColor=inherit;overflow=hidden;fillColor=none;top=0;left=0;bottom=0;right=0;pointerEvents=1;fontSize=12;" vertex="1" parent="CCeei102hyegJUPTer4o-27">
          <mxGeometry x="73" width="158" height="30" as="geometry">
            <mxRectangle width="158" height="30" as="alternateBounds" />
          </mxGeometry>
        </mxCell>
        <mxCell id="CCeei102hyegJUPTer4o-30" value="VARCHAR(25)" style="shape=partialRectangle;html=1;whiteSpace=wrap;connectable=0;strokeColor=inherit;overflow=hidden;fillColor=none;top=0;left=0;bottom=0;right=0;pointerEvents=1;fontSize=12;" vertex="1" parent="CCeei102hyegJUPTer4o-27">
          <mxGeometry x="231" width="139" height="30" as="geometry">
            <mxRectangle width="139" height="30" as="alternateBounds" />
          </mxGeometry>
        </mxCell>
        <mxCell id="CCeei102hyegJUPTer4o-31" value="NOT NULL" style="shape=partialRectangle;html=1;whiteSpace=wrap;connectable=0;strokeColor=inherit;overflow=hidden;fillColor=none;top=0;left=0;bottom=0;right=0;pointerEvents=1;fontSize=12;" vertex="1" parent="CCeei102hyegJUPTer4o-27">
          <mxGeometry x="370" width="60" height="30" as="geometry">
            <mxRectangle width="60" height="30" as="alternateBounds" />
          </mxGeometry>
        </mxCell>
        <mxCell id="CCeei102hyegJUPTer4o-32" value="" style="shape=tableRow;horizontal=0;startSize=0;swimlaneHead=0;swimlaneBody=0;strokeColor=inherit;top=0;left=0;bottom=0;right=0;collapsible=0;dropTarget=0;fillColor=none;points=[[0,0.5],[1,0.5]];portConstraint=eastwest;fontSize=16;" vertex="1" parent="CCeei102hyegJUPTer4o-1">
          <mxGeometry y="210" width="430" height="30" as="geometry" />
        </mxCell>
        <mxCell id="CCeei102hyegJUPTer4o-33" value="" style="shape=partialRectangle;html=1;whiteSpace=wrap;connectable=0;strokeColor=inherit;overflow=hidden;fillColor=none;top=0;left=0;bottom=0;right=0;pointerEvents=1;fontSize=12;fontStyle=1" vertex="1" parent="CCeei102hyegJUPTer4o-32">
          <mxGeometry width="73" height="30" as="geometry">
            <mxRectangle width="73" height="30" as="alternateBounds" />
          </mxGeometry>
        </mxCell>
        <mxCell id="CCeei102hyegJUPTer4o-34" value="&lt;b style=&quot;font-size: 12px;&quot;&gt;fechaReservacion&lt;/b&gt;" style="shape=partialRectangle;html=1;whiteSpace=wrap;connectable=0;strokeColor=inherit;overflow=hidden;fillColor=none;top=0;left=0;bottom=0;right=0;pointerEvents=1;fontSize=12;" vertex="1" parent="CCeei102hyegJUPTer4o-32">
          <mxGeometry x="73" width="158" height="30" as="geometry">
            <mxRectangle width="158" height="30" as="alternateBounds" />
          </mxGeometry>
        </mxCell>
        <mxCell id="CCeei102hyegJUPTer4o-35" value="VARCHAR(25)" style="shape=partialRectangle;html=1;whiteSpace=wrap;connectable=0;strokeColor=inherit;overflow=hidden;fillColor=none;top=0;left=0;bottom=0;right=0;pointerEvents=1;fontSize=12;" vertex="1" parent="CCeei102hyegJUPTer4o-32">
          <mxGeometry x="231" width="139" height="30" as="geometry">
            <mxRectangle width="139" height="30" as="alternateBounds" />
          </mxGeometry>
        </mxCell>
        <mxCell id="CCeei102hyegJUPTer4o-36" value="NOT NULL" style="shape=partialRectangle;html=1;whiteSpace=wrap;connectable=0;strokeColor=inherit;overflow=hidden;fillColor=none;top=0;left=0;bottom=0;right=0;pointerEvents=1;fontSize=12;" vertex="1" parent="CCeei102hyegJUPTer4o-32">
          <mxGeometry x="370" width="60" height="30" as="geometry">
            <mxRectangle width="60" height="30" as="alternateBounds" />
          </mxGeometry>
        </mxCell>
        <mxCell id="CCeei102hyegJUPTer4o-37" value="" style="shape=tableRow;horizontal=0;startSize=0;swimlaneHead=0;swimlaneBody=0;strokeColor=inherit;top=0;left=0;bottom=0;right=0;collapsible=0;dropTarget=0;fillColor=none;points=[[0,0.5],[1,0.5]];portConstraint=eastwest;fontSize=16;" vertex="1" parent="CCeei102hyegJUPTer4o-1">
          <mxGeometry y="240" width="430" height="30" as="geometry" />
        </mxCell>
        <mxCell id="CCeei102hyegJUPTer4o-38" value="" style="shape=partialRectangle;html=1;whiteSpace=wrap;connectable=0;strokeColor=inherit;overflow=hidden;fillColor=none;top=0;left=0;bottom=0;right=0;pointerEvents=1;fontSize=12;fontStyle=1" vertex="1" parent="CCeei102hyegJUPTer4o-37">
          <mxGeometry width="73" height="30" as="geometry">
            <mxRectangle width="73" height="30" as="alternateBounds" />
          </mxGeometry>
        </mxCell>
        <mxCell id="CCeei102hyegJUPTer4o-39" value="&lt;b style=&quot;font-size: 12px;&quot;&gt;cliente&lt;/b&gt;" style="shape=partialRectangle;html=1;whiteSpace=wrap;connectable=0;strokeColor=inherit;overflow=hidden;fillColor=none;top=0;left=0;bottom=0;right=0;pointerEvents=1;fontSize=12;" vertex="1" parent="CCeei102hyegJUPTer4o-37">
          <mxGeometry x="73" width="158" height="30" as="geometry">
            <mxRectangle width="158" height="30" as="alternateBounds" />
          </mxGeometry>
        </mxCell>
        <mxCell id="CCeei102hyegJUPTer4o-40" value="VARCHAR(25)" style="shape=partialRectangle;html=1;whiteSpace=wrap;connectable=0;strokeColor=inherit;overflow=hidden;fillColor=none;top=0;left=0;bottom=0;right=0;pointerEvents=1;fontSize=12;" vertex="1" parent="CCeei102hyegJUPTer4o-37">
          <mxGeometry x="231" width="139" height="30" as="geometry">
            <mxRectangle width="139" height="30" as="alternateBounds" />
          </mxGeometry>
        </mxCell>
        <mxCell id="CCeei102hyegJUPTer4o-41" value="NOT NULL" style="shape=partialRectangle;html=1;whiteSpace=wrap;connectable=0;strokeColor=inherit;overflow=hidden;fillColor=none;top=0;left=0;bottom=0;right=0;pointerEvents=1;fontSize=12;" vertex="1" parent="CCeei102hyegJUPTer4o-37">
          <mxGeometry x="370" width="60" height="30" as="geometry">
            <mxRectangle width="60" height="30" as="alternateBounds" />
          </mxGeometry>
        </mxCell>
        <mxCell id="CCeei102hyegJUPTer4o-170" value="" style="shape=tableRow;horizontal=0;startSize=0;swimlaneHead=0;swimlaneBody=0;strokeColor=inherit;top=0;left=0;bottom=0;right=0;collapsible=0;dropTarget=0;fillColor=none;points=[[0,0.5],[1,0.5]];portConstraint=eastwest;fontSize=16;" vertex="1" parent="CCeei102hyegJUPTer4o-1">
          <mxGeometry y="270" width="430" height="30" as="geometry" />
        </mxCell>
        <mxCell id="CCeei102hyegJUPTer4o-171" value="" style="shape=partialRectangle;html=1;whiteSpace=wrap;connectable=0;strokeColor=inherit;overflow=hidden;fillColor=none;top=0;left=0;bottom=0;right=0;pointerEvents=1;fontSize=12;fontStyle=1" vertex="1" parent="CCeei102hyegJUPTer4o-170">
          <mxGeometry width="73" height="30" as="geometry">
            <mxRectangle width="73" height="30" as="alternateBounds" />
          </mxGeometry>
        </mxCell>
        <mxCell id="CCeei102hyegJUPTer4o-172" value="&lt;b style=&quot;font-size: 12px;&quot;&gt;cliente&lt;/b&gt;" style="shape=partialRectangle;html=1;whiteSpace=wrap;connectable=0;strokeColor=inherit;overflow=hidden;fillColor=none;top=0;left=0;bottom=0;right=0;pointerEvents=1;fontSize=12;" vertex="1" parent="CCeei102hyegJUPTer4o-170">
          <mxGeometry x="73" width="158" height="30" as="geometry">
            <mxRectangle width="158" height="30" as="alternateBounds" />
          </mxGeometry>
        </mxCell>
        <mxCell id="CCeei102hyegJUPTer4o-173" value="VARCHAR(25)" style="shape=partialRectangle;html=1;whiteSpace=wrap;connectable=0;strokeColor=inherit;overflow=hidden;fillColor=none;top=0;left=0;bottom=0;right=0;pointerEvents=1;fontSize=12;" vertex="1" parent="CCeei102hyegJUPTer4o-170">
          <mxGeometry x="231" width="139" height="30" as="geometry">
            <mxRectangle width="139" height="30" as="alternateBounds" />
          </mxGeometry>
        </mxCell>
        <mxCell id="CCeei102hyegJUPTer4o-174" value="NOT NULL" style="shape=partialRectangle;html=1;whiteSpace=wrap;connectable=0;strokeColor=inherit;overflow=hidden;fillColor=none;top=0;left=0;bottom=0;right=0;pointerEvents=1;fontSize=12;" vertex="1" parent="CCeei102hyegJUPTer4o-170">
          <mxGeometry x="370" width="60" height="30" as="geometry">
            <mxRectangle width="60" height="30" as="alternateBounds" />
          </mxGeometry>
        </mxCell>
        <mxCell id="CCeei102hyegJUPTer4o-42" value="" style="shape=tableRow;horizontal=0;startSize=0;swimlaneHead=0;swimlaneBody=0;strokeColor=inherit;top=0;left=0;bottom=0;right=0;collapsible=0;dropTarget=0;fillColor=none;points=[[0,0.5],[1,0.5]];portConstraint=eastwest;fontSize=16;" vertex="1" parent="CCeei102hyegJUPTer4o-1">
          <mxGeometry y="300" width="430" height="30" as="geometry" />
        </mxCell>
        <mxCell id="CCeei102hyegJUPTer4o-43" value="" style="shape=partialRectangle;html=1;whiteSpace=wrap;connectable=0;strokeColor=inherit;overflow=hidden;fillColor=none;top=0;left=0;bottom=0;right=0;pointerEvents=1;fontSize=12;fontStyle=1" vertex="1" parent="CCeei102hyegJUPTer4o-42">
          <mxGeometry width="73" height="30" as="geometry">
            <mxRectangle width="73" height="30" as="alternateBounds" />
          </mxGeometry>
        </mxCell>
        <mxCell id="CCeei102hyegJUPTer4o-44" value="&lt;b style=&quot;font-size: 12px;&quot;&gt;motoAlquilada&lt;/b&gt;" style="shape=partialRectangle;html=1;whiteSpace=wrap;connectable=0;strokeColor=inherit;overflow=hidden;fillColor=none;top=0;left=0;bottom=0;right=0;pointerEvents=1;fontSize=12;" vertex="1" parent="CCeei102hyegJUPTer4o-42">
          <mxGeometry x="73" width="158" height="30" as="geometry">
            <mxRectangle width="158" height="30" as="alternateBounds" />
          </mxGeometry>
        </mxCell>
        <mxCell id="CCeei102hyegJUPTer4o-45" value="VARCHAR(25)" style="shape=partialRectangle;html=1;whiteSpace=wrap;connectable=0;strokeColor=inherit;overflow=hidden;fillColor=none;top=0;left=0;bottom=0;right=0;pointerEvents=1;fontSize=12;" vertex="1" parent="CCeei102hyegJUPTer4o-42">
          <mxGeometry x="231" width="139" height="30" as="geometry">
            <mxRectangle width="139" height="30" as="alternateBounds" />
          </mxGeometry>
        </mxCell>
        <mxCell id="CCeei102hyegJUPTer4o-46" value="NOT NULL" style="shape=partialRectangle;html=1;whiteSpace=wrap;connectable=0;strokeColor=inherit;overflow=hidden;fillColor=none;top=0;left=0;bottom=0;right=0;pointerEvents=1;fontSize=12;" vertex="1" parent="CCeei102hyegJUPTer4o-42">
          <mxGeometry x="370" width="60" height="30" as="geometry">
            <mxRectangle width="60" height="30" as="alternateBounds" />
          </mxGeometry>
        </mxCell>
        <mxCell id="CCeei102hyegJUPTer4o-47" value="" style="shape=tableRow;horizontal=0;startSize=0;swimlaneHead=0;swimlaneBody=0;strokeColor=inherit;top=0;left=0;bottom=0;right=0;collapsible=0;dropTarget=0;fillColor=none;points=[[0,0.5],[1,0.5]];portConstraint=eastwest;fontSize=16;" vertex="1" parent="CCeei102hyegJUPTer4o-1">
          <mxGeometry y="330" width="430" height="30" as="geometry" />
        </mxCell>
        <mxCell id="CCeei102hyegJUPTer4o-48" value="" style="shape=partialRectangle;html=1;whiteSpace=wrap;connectable=0;strokeColor=inherit;overflow=hidden;fillColor=none;top=0;left=0;bottom=0;right=0;pointerEvents=1;fontSize=12;fontStyle=1" vertex="1" parent="CCeei102hyegJUPTer4o-47">
          <mxGeometry width="73" height="30" as="geometry">
            <mxRectangle width="73" height="30" as="alternateBounds" />
          </mxGeometry>
        </mxCell>
        <mxCell id="CCeei102hyegJUPTer4o-49" value="&lt;b style=&quot;font-size: 12px;&quot;&gt;fechaFin&lt;/b&gt;" style="shape=partialRectangle;html=1;whiteSpace=wrap;connectable=0;strokeColor=inherit;overflow=hidden;fillColor=none;top=0;left=0;bottom=0;right=0;pointerEvents=1;fontSize=12;" vertex="1" parent="CCeei102hyegJUPTer4o-47">
          <mxGeometry x="73" width="158" height="30" as="geometry">
            <mxRectangle width="158" height="30" as="alternateBounds" />
          </mxGeometry>
        </mxCell>
        <mxCell id="CCeei102hyegJUPTer4o-50" value="VARCHAR(25)" style="shape=partialRectangle;html=1;whiteSpace=wrap;connectable=0;strokeColor=inherit;overflow=hidden;fillColor=none;top=0;left=0;bottom=0;right=0;pointerEvents=1;fontSize=12;" vertex="1" parent="CCeei102hyegJUPTer4o-47">
          <mxGeometry x="231" width="139" height="30" as="geometry">
            <mxRectangle width="139" height="30" as="alternateBounds" />
          </mxGeometry>
        </mxCell>
        <mxCell id="CCeei102hyegJUPTer4o-51" value="" style="shape=partialRectangle;html=1;whiteSpace=wrap;connectable=0;strokeColor=inherit;overflow=hidden;fillColor=none;top=0;left=0;bottom=0;right=0;pointerEvents=1;fontSize=12;" vertex="1" parent="CCeei102hyegJUPTer4o-47">
          <mxGeometry x="370" width="60" height="30" as="geometry">
            <mxRectangle width="60" height="30" as="alternateBounds" />
          </mxGeometry>
        </mxCell>
        <mxCell id="CCeei102hyegJUPTer4o-52" value="" style="edgeStyle=entityRelationEdgeStyle;fontSize=12;html=1;endArrow=ERoneToMany;rounded=0;exitX=1;exitY=0.5;exitDx=0;exitDy=0;entryX=0;entryY=0.5;entryDx=0;entryDy=0;" edge="1" parent="1" source="hcWVQAkEK2Su6mpxol3i-219" target="CCeei102hyegJUPTer4o-17">
          <mxGeometry width="100" height="100" relative="1" as="geometry">
            <mxPoint x="110" y="-290" as="sourcePoint" />
            <mxPoint x="205" y="-340" as="targetPoint" />
          </mxGeometry>
        </mxCell>
        <mxCell id="CCeei102hyegJUPTer4o-53" value="" style="edgeStyle=entityRelationEdgeStyle;fontSize=12;html=1;endArrow=ERoneToMany;rounded=0;exitX=1;exitY=0.5;exitDx=0;exitDy=0;entryX=0;entryY=0.5;entryDx=0;entryDy=0;" edge="1" parent="1" source="hcWVQAkEK2Su6mpxol3i-93" target="hcWVQAkEK2Su6mpxol3i-111">
          <mxGeometry width="100" height="100" relative="1" as="geometry">
            <mxPoint x="2080" y="-65" as="sourcePoint" />
            <mxPoint x="2080" y="-275" as="targetPoint" />
            <Array as="points">
              <mxPoint x="1970" y="-610" />
              <mxPoint x="1800" y="-580" />
              <mxPoint x="1770" y="-600" />
              <mxPoint x="1810" y="-600" />
              <mxPoint x="1960" y="-610" />
              <mxPoint x="1950" y="-600" />
            </Array>
          </mxGeometry>
        </mxCell>
        <mxCell id="CCeei102hyegJUPTer4o-62" value="agencia" style="shape=table;startSize=30;container=1;collapsible=0;childLayout=tableLayout;strokeColor=default;fontSize=12;fontStyle=0;labelBackgroundColor=#fdd3e4;" vertex="1" parent="1">
          <mxGeometry x="-340" y="-90" width="430" height="180" as="geometry" />
        </mxCell>
        <mxCell id="CCeei102hyegJUPTer4o-63" value="" style="shape=tableRow;horizontal=0;startSize=0;swimlaneHead=0;swimlaneBody=0;strokeColor=inherit;top=0;left=0;bottom=0;right=0;collapsible=0;dropTarget=0;fillColor=none;points=[[0,0.5],[1,0.5]];portConstraint=eastwest;fontSize=12;" vertex="1" parent="CCeei102hyegJUPTer4o-62">
          <mxGeometry y="30" width="430" height="30" as="geometry" />
        </mxCell>
        <mxCell id="CCeei102hyegJUPTer4o-64" value="&lt;b style=&quot;font-size: 12px;&quot;&gt;PK&lt;/b&gt;" style="shape=partialRectangle;html=1;whiteSpace=wrap;connectable=0;strokeColor=inherit;overflow=hidden;fillColor=none;top=0;left=0;bottom=0;right=0;pointerEvents=1;fontSize=12;" vertex="1" parent="CCeei102hyegJUPTer4o-63">
          <mxGeometry width="73" height="30" as="geometry">
            <mxRectangle width="73" height="30" as="alternateBounds" />
          </mxGeometry>
        </mxCell>
        <mxCell id="CCeei102hyegJUPTer4o-65" value="&lt;b style=&quot;font-size: 12px;&quot;&gt;id_Agencia&lt;/b&gt;" style="shape=partialRectangle;html=1;whiteSpace=wrap;connectable=0;strokeColor=inherit;overflow=hidden;fillColor=none;top=0;left=0;bottom=0;right=0;pointerEvents=1;fontSize=12;" vertex="1" parent="CCeei102hyegJUPTer4o-63">
          <mxGeometry x="73" width="158" height="30" as="geometry">
            <mxRectangle width="158" height="30" as="alternateBounds" />
          </mxGeometry>
        </mxCell>
        <mxCell id="CCeei102hyegJUPTer4o-66" value="INT" style="shape=partialRectangle;html=1;whiteSpace=wrap;connectable=0;strokeColor=inherit;overflow=hidden;fillColor=none;top=0;left=0;bottom=0;right=0;pointerEvents=1;fontSize=12;" vertex="1" parent="CCeei102hyegJUPTer4o-63">
          <mxGeometry x="231" width="139" height="30" as="geometry">
            <mxRectangle width="139" height="30" as="alternateBounds" />
          </mxGeometry>
        </mxCell>
        <mxCell id="CCeei102hyegJUPTer4o-67" value="NOT NULL" style="shape=partialRectangle;html=1;whiteSpace=wrap;connectable=0;strokeColor=inherit;overflow=hidden;fillColor=none;top=0;left=0;bottom=0;right=0;pointerEvents=1;fontSize=12;" vertex="1" parent="CCeei102hyegJUPTer4o-63">
          <mxGeometry x="370" width="60" height="30" as="geometry">
            <mxRectangle width="60" height="30" as="alternateBounds" />
          </mxGeometry>
        </mxCell>
        <mxCell id="CCeei102hyegJUPTer4o-68" value="" style="shape=tableRow;horizontal=0;startSize=0;swimlaneHead=0;swimlaneBody=0;strokeColor=inherit;top=0;left=0;bottom=0;right=0;collapsible=0;dropTarget=0;fillColor=none;points=[[0,0.5],[1,0.5]];portConstraint=eastwest;fontSize=16;" vertex="1" parent="CCeei102hyegJUPTer4o-62">
          <mxGeometry y="60" width="430" height="30" as="geometry" />
        </mxCell>
        <mxCell id="CCeei102hyegJUPTer4o-69" value="" style="shape=partialRectangle;html=1;whiteSpace=wrap;connectable=0;strokeColor=inherit;overflow=hidden;fillColor=none;top=0;left=0;bottom=0;right=0;pointerEvents=1;fontSize=12;fontStyle=1" vertex="1" parent="CCeei102hyegJUPTer4o-68">
          <mxGeometry width="73" height="30" as="geometry">
            <mxRectangle width="73" height="30" as="alternateBounds" />
          </mxGeometry>
        </mxCell>
        <mxCell id="CCeei102hyegJUPTer4o-70" value="&lt;b style=&quot;font-size: 12px;&quot;&gt;nombre&lt;/b&gt;" style="shape=partialRectangle;html=1;whiteSpace=wrap;connectable=0;strokeColor=inherit;overflow=hidden;fillColor=none;top=0;left=0;bottom=0;right=0;pointerEvents=1;fontSize=12;" vertex="1" parent="CCeei102hyegJUPTer4o-68">
          <mxGeometry x="73" width="158" height="30" as="geometry">
            <mxRectangle width="158" height="30" as="alternateBounds" />
          </mxGeometry>
        </mxCell>
        <mxCell id="CCeei102hyegJUPTer4o-71" value="VARCHAR(25)" style="shape=partialRectangle;html=1;whiteSpace=wrap;connectable=0;strokeColor=inherit;overflow=hidden;fillColor=none;top=0;left=0;bottom=0;right=0;pointerEvents=1;fontSize=12;" vertex="1" parent="CCeei102hyegJUPTer4o-68">
          <mxGeometry x="231" width="139" height="30" as="geometry">
            <mxRectangle width="139" height="30" as="alternateBounds" />
          </mxGeometry>
        </mxCell>
        <mxCell id="CCeei102hyegJUPTer4o-72" value="NOT NULL" style="shape=partialRectangle;html=1;whiteSpace=wrap;connectable=0;strokeColor=inherit;overflow=hidden;fillColor=none;top=0;left=0;bottom=0;right=0;pointerEvents=1;fontSize=12;" vertex="1" parent="CCeei102hyegJUPTer4o-68">
          <mxGeometry x="370" width="60" height="30" as="geometry">
            <mxRectangle width="60" height="30" as="alternateBounds" />
          </mxGeometry>
        </mxCell>
        <mxCell id="CCeei102hyegJUPTer4o-73" value="" style="shape=tableRow;horizontal=0;startSize=0;swimlaneHead=0;swimlaneBody=0;strokeColor=inherit;top=0;left=0;bottom=0;right=0;collapsible=0;dropTarget=0;fillColor=none;points=[[0,0.5],[1,0.5]];portConstraint=eastwest;fontSize=16;" vertex="1" parent="CCeei102hyegJUPTer4o-62">
          <mxGeometry y="90" width="430" height="30" as="geometry" />
        </mxCell>
        <mxCell id="CCeei102hyegJUPTer4o-74" value="" style="shape=partialRectangle;html=1;whiteSpace=wrap;connectable=0;strokeColor=inherit;overflow=hidden;fillColor=none;top=0;left=0;bottom=0;right=0;pointerEvents=1;fontSize=12;fontStyle=1" vertex="1" parent="CCeei102hyegJUPTer4o-73">
          <mxGeometry width="73" height="30" as="geometry">
            <mxRectangle width="73" height="30" as="alternateBounds" />
          </mxGeometry>
        </mxCell>
        <mxCell id="CCeei102hyegJUPTer4o-75" value="&lt;b style=&quot;font-size: 12px;&quot;&gt;calle&lt;/b&gt;" style="shape=partialRectangle;html=1;whiteSpace=wrap;connectable=0;strokeColor=inherit;overflow=hidden;fillColor=none;top=0;left=0;bottom=0;right=0;pointerEvents=1;fontSize=12;" vertex="1" parent="CCeei102hyegJUPTer4o-73">
          <mxGeometry x="73" width="158" height="30" as="geometry">
            <mxRectangle width="158" height="30" as="alternateBounds" />
          </mxGeometry>
        </mxCell>
        <mxCell id="CCeei102hyegJUPTer4o-76" value="VARCHAR(25)" style="shape=partialRectangle;html=1;whiteSpace=wrap;connectable=0;strokeColor=inherit;overflow=hidden;fillColor=none;top=0;left=0;bottom=0;right=0;pointerEvents=1;fontSize=12;" vertex="1" parent="CCeei102hyegJUPTer4o-73">
          <mxGeometry x="231" width="139" height="30" as="geometry">
            <mxRectangle width="139" height="30" as="alternateBounds" />
          </mxGeometry>
        </mxCell>
        <mxCell id="CCeei102hyegJUPTer4o-77" value="NOT NULL" style="shape=partialRectangle;html=1;whiteSpace=wrap;connectable=0;strokeColor=inherit;overflow=hidden;fillColor=none;top=0;left=0;bottom=0;right=0;pointerEvents=1;fontSize=12;" vertex="1" parent="CCeei102hyegJUPTer4o-73">
          <mxGeometry x="370" width="60" height="30" as="geometry">
            <mxRectangle width="60" height="30" as="alternateBounds" />
          </mxGeometry>
        </mxCell>
        <mxCell id="CCeei102hyegJUPTer4o-78" value="" style="shape=tableRow;horizontal=0;startSize=0;swimlaneHead=0;swimlaneBody=0;strokeColor=inherit;top=0;left=0;bottom=0;right=0;collapsible=0;dropTarget=0;fillColor=none;points=[[0,0.5],[1,0.5]];portConstraint=eastwest;fontSize=16;" vertex="1" parent="CCeei102hyegJUPTer4o-62">
          <mxGeometry y="120" width="430" height="30" as="geometry" />
        </mxCell>
        <mxCell id="CCeei102hyegJUPTer4o-79" value="" style="shape=partialRectangle;html=1;whiteSpace=wrap;connectable=0;strokeColor=inherit;overflow=hidden;fillColor=none;top=0;left=0;bottom=0;right=0;pointerEvents=1;fontSize=12;fontStyle=1" vertex="1" parent="CCeei102hyegJUPTer4o-78">
          <mxGeometry width="73" height="30" as="geometry">
            <mxRectangle width="73" height="30" as="alternateBounds" />
          </mxGeometry>
        </mxCell>
        <mxCell id="CCeei102hyegJUPTer4o-80" value="&lt;b style=&quot;font-size: 12px;&quot;&gt;num&lt;/b&gt;" style="shape=partialRectangle;html=1;whiteSpace=wrap;connectable=0;strokeColor=inherit;overflow=hidden;fillColor=none;top=0;left=0;bottom=0;right=0;pointerEvents=1;fontSize=12;" vertex="1" parent="CCeei102hyegJUPTer4o-78">
          <mxGeometry x="73" width="158" height="30" as="geometry">
            <mxRectangle width="158" height="30" as="alternateBounds" />
          </mxGeometry>
        </mxCell>
        <mxCell id="CCeei102hyegJUPTer4o-81" value="CHAR(5)" style="shape=partialRectangle;html=1;whiteSpace=wrap;connectable=0;strokeColor=inherit;overflow=hidden;fillColor=none;top=0;left=0;bottom=0;right=0;pointerEvents=1;fontSize=12;" vertex="1" parent="CCeei102hyegJUPTer4o-78">
          <mxGeometry x="231" width="139" height="30" as="geometry">
            <mxRectangle width="139" height="30" as="alternateBounds" />
          </mxGeometry>
        </mxCell>
        <mxCell id="CCeei102hyegJUPTer4o-82" value="NOT NULL" style="shape=partialRectangle;html=1;whiteSpace=wrap;connectable=0;strokeColor=inherit;overflow=hidden;fillColor=none;top=0;left=0;bottom=0;right=0;pointerEvents=1;fontSize=12;" vertex="1" parent="CCeei102hyegJUPTer4o-78">
          <mxGeometry x="370" width="60" height="30" as="geometry">
            <mxRectangle width="60" height="30" as="alternateBounds" />
          </mxGeometry>
        </mxCell>
        <mxCell id="CCeei102hyegJUPTer4o-83" value="" style="shape=tableRow;horizontal=0;startSize=0;swimlaneHead=0;swimlaneBody=0;strokeColor=inherit;top=0;left=0;bottom=0;right=0;collapsible=0;dropTarget=0;fillColor=none;points=[[0,0.5],[1,0.5]];portConstraint=eastwest;fontSize=16;" vertex="1" parent="CCeei102hyegJUPTer4o-62">
          <mxGeometry y="150" width="430" height="30" as="geometry" />
        </mxCell>
        <mxCell id="CCeei102hyegJUPTer4o-84" value="" style="shape=partialRectangle;html=1;whiteSpace=wrap;connectable=0;strokeColor=inherit;overflow=hidden;fillColor=none;top=0;left=0;bottom=0;right=0;pointerEvents=1;fontSize=12;fontStyle=1" vertex="1" parent="CCeei102hyegJUPTer4o-83">
          <mxGeometry width="73" height="30" as="geometry">
            <mxRectangle width="73" height="30" as="alternateBounds" />
          </mxGeometry>
        </mxCell>
        <mxCell id="CCeei102hyegJUPTer4o-85" value="&lt;b style=&quot;font-size: 12px;&quot;&gt;poblacion&lt;/b&gt;" style="shape=partialRectangle;html=1;whiteSpace=wrap;connectable=0;strokeColor=inherit;overflow=hidden;fillColor=none;top=0;left=0;bottom=0;right=0;pointerEvents=1;fontSize=12;" vertex="1" parent="CCeei102hyegJUPTer4o-83">
          <mxGeometry x="73" width="158" height="30" as="geometry">
            <mxRectangle width="158" height="30" as="alternateBounds" />
          </mxGeometry>
        </mxCell>
        <mxCell id="CCeei102hyegJUPTer4o-86" value="VARCHAR(25)" style="shape=partialRectangle;html=1;whiteSpace=wrap;connectable=0;strokeColor=inherit;overflow=hidden;fillColor=none;top=0;left=0;bottom=0;right=0;pointerEvents=1;fontSize=12;" vertex="1" parent="CCeei102hyegJUPTer4o-83">
          <mxGeometry x="231" width="139" height="30" as="geometry">
            <mxRectangle width="139" height="30" as="alternateBounds" />
          </mxGeometry>
        </mxCell>
        <mxCell id="CCeei102hyegJUPTer4o-87" value="" style="shape=partialRectangle;html=1;whiteSpace=wrap;connectable=0;strokeColor=inherit;overflow=hidden;fillColor=none;top=0;left=0;bottom=0;right=0;pointerEvents=1;fontSize=12;" vertex="1" parent="CCeei102hyegJUPTer4o-83">
          <mxGeometry x="370" width="60" height="30" as="geometry">
            <mxRectangle width="60" height="30" as="alternateBounds" />
          </mxGeometry>
        </mxCell>
        <mxCell id="CCeei102hyegJUPTer4o-103" value="" style="edgeStyle=entityRelationEdgeStyle;fontSize=12;html=1;endArrow=ERoneToMany;rounded=0;exitX=1;exitY=0.5;exitDx=0;exitDy=0;entryX=0;entryY=0.5;entryDx=0;entryDy=0;" edge="1" parent="1" source="CCeei102hyegJUPTer4o-73" target="CCeei102hyegJUPTer4o-42">
          <mxGeometry width="100" height="100" relative="1" as="geometry">
            <mxPoint x="140" y="-45" as="sourcePoint" />
            <mxPoint x="270" y="-75" as="targetPoint" />
          </mxGeometry>
        </mxCell>
        <mxCell id="CCeei102hyegJUPTer4o-105" value="Telefono_clientes" style="shape=table;startSize=30;container=1;collapsible=0;childLayout=tableLayout;strokeColor=default;fontSize=12;fontStyle=0;labelBackgroundColor=#fdd3e4;" vertex="1" parent="1">
          <mxGeometry x="-760" y="-40" width="350" height="90" as="geometry" />
        </mxCell>
        <mxCell id="CCeei102hyegJUPTer4o-106" value="" style="shape=tableRow;horizontal=0;startSize=0;swimlaneHead=0;swimlaneBody=0;strokeColor=inherit;top=0;left=0;bottom=0;right=0;collapsible=0;dropTarget=0;fillColor=none;points=[[0,0.5],[1,0.5]];portConstraint=eastwest;fontSize=12;" vertex="1" parent="CCeei102hyegJUPTer4o-105">
          <mxGeometry y="30" width="350" height="30" as="geometry" />
        </mxCell>
        <mxCell id="CCeei102hyegJUPTer4o-107" value="&lt;b style=&quot;font-size: 12px;&quot;&gt;PK&lt;/b&gt;" style="shape=partialRectangle;html=1;whiteSpace=wrap;connectable=0;strokeColor=inherit;overflow=hidden;fillColor=none;top=0;left=0;bottom=0;right=0;pointerEvents=1;fontSize=12;" vertex="1" parent="CCeei102hyegJUPTer4o-106">
          <mxGeometry width="74" height="30" as="geometry">
            <mxRectangle width="74" height="30" as="alternateBounds" />
          </mxGeometry>
        </mxCell>
        <mxCell id="CCeei102hyegJUPTer4o-108" value="&lt;b style=&quot;font-size: 12px;&quot;&gt;Telefono&lt;/b&gt;" style="shape=partialRectangle;html=1;whiteSpace=wrap;connectable=0;strokeColor=inherit;overflow=hidden;fillColor=none;top=0;left=0;bottom=0;right=0;pointerEvents=1;fontSize=12;" vertex="1" parent="CCeei102hyegJUPTer4o-106">
          <mxGeometry x="74" width="140" height="30" as="geometry">
            <mxRectangle width="140" height="30" as="alternateBounds" />
          </mxGeometry>
        </mxCell>
        <mxCell id="CCeei102hyegJUPTer4o-109" value="char(10)" style="shape=partialRectangle;html=1;whiteSpace=wrap;connectable=0;strokeColor=inherit;overflow=hidden;fillColor=none;top=0;left=0;bottom=0;right=0;pointerEvents=1;fontSize=12;" vertex="1" parent="CCeei102hyegJUPTer4o-106">
          <mxGeometry x="214" width="76" height="30" as="geometry">
            <mxRectangle width="76" height="30" as="alternateBounds" />
          </mxGeometry>
        </mxCell>
        <mxCell id="CCeei102hyegJUPTer4o-110" value="NOT NULL" style="shape=partialRectangle;html=1;whiteSpace=wrap;connectable=0;strokeColor=inherit;overflow=hidden;fillColor=none;top=0;left=0;bottom=0;right=0;pointerEvents=1;fontSize=12;" vertex="1" parent="CCeei102hyegJUPTer4o-106">
          <mxGeometry x="290" width="60" height="30" as="geometry">
            <mxRectangle width="60" height="30" as="alternateBounds" />
          </mxGeometry>
        </mxCell>
        <mxCell id="CCeei102hyegJUPTer4o-111" value="" style="shape=tableRow;horizontal=0;startSize=0;swimlaneHead=0;swimlaneBody=0;strokeColor=inherit;top=0;left=0;bottom=0;right=0;collapsible=0;dropTarget=0;fillColor=none;points=[[0,0.5],[1,0.5]];portConstraint=eastwest;fontSize=16;" vertex="1" parent="CCeei102hyegJUPTer4o-105">
          <mxGeometry y="60" width="350" height="30" as="geometry" />
        </mxCell>
        <mxCell id="CCeei102hyegJUPTer4o-112" value="PFK" style="shape=partialRectangle;html=1;whiteSpace=wrap;connectable=0;strokeColor=inherit;overflow=hidden;fillColor=none;top=0;left=0;bottom=0;right=0;pointerEvents=1;fontSize=12;fontStyle=1" vertex="1" parent="CCeei102hyegJUPTer4o-111">
          <mxGeometry width="74" height="30" as="geometry">
            <mxRectangle width="74" height="30" as="alternateBounds" />
          </mxGeometry>
        </mxCell>
        <mxCell id="CCeei102hyegJUPTer4o-113" value="&lt;b style=&quot;font-size: 12px;&quot;&gt;id_Agencia&lt;/b&gt;" style="shape=partialRectangle;html=1;whiteSpace=wrap;connectable=0;strokeColor=inherit;overflow=hidden;fillColor=none;top=0;left=0;bottom=0;right=0;pointerEvents=1;fontSize=12;" vertex="1" parent="CCeei102hyegJUPTer4o-111">
          <mxGeometry x="74" width="140" height="30" as="geometry">
            <mxRectangle width="140" height="30" as="alternateBounds" />
          </mxGeometry>
        </mxCell>
        <mxCell id="CCeei102hyegJUPTer4o-114" value="INT" style="shape=partialRectangle;html=1;whiteSpace=wrap;connectable=0;strokeColor=inherit;overflow=hidden;fillColor=none;top=0;left=0;bottom=0;right=0;pointerEvents=1;fontSize=12;" vertex="1" parent="CCeei102hyegJUPTer4o-111">
          <mxGeometry x="214" width="76" height="30" as="geometry">
            <mxRectangle width="76" height="30" as="alternateBounds" />
          </mxGeometry>
        </mxCell>
        <mxCell id="CCeei102hyegJUPTer4o-115" value="NOT NULL" style="shape=partialRectangle;html=1;whiteSpace=wrap;connectable=0;strokeColor=inherit;overflow=hidden;fillColor=none;top=0;left=0;bottom=0;right=0;pointerEvents=1;fontSize=12;" vertex="1" parent="CCeei102hyegJUPTer4o-111">
          <mxGeometry x="290" width="60" height="30" as="geometry">
            <mxRectangle width="60" height="30" as="alternateBounds" />
          </mxGeometry>
        </mxCell>
        <mxCell id="CCeei102hyegJUPTer4o-116" value="" style="edgeStyle=entityRelationEdgeStyle;fontSize=12;html=1;endArrow=ERoneToMany;rounded=0;entryX=1;entryY=0.5;entryDx=0;entryDy=0;exitX=0;exitY=0.5;exitDx=0;exitDy=0;" edge="1" parent="1" source="CCeei102hyegJUPTer4o-68" target="CCeei102hyegJUPTer4o-106">
          <mxGeometry width="100" height="100" relative="1" as="geometry">
            <mxPoint x="-330" y="-465" as="sourcePoint" />
            <mxPoint x="-440" y="-465" as="targetPoint" />
          </mxGeometry>
        </mxCell>
        <mxCell id="CCeei102hyegJUPTer4o-117" value="motocicleta" style="shape=table;startSize=30;container=1;collapsible=0;childLayout=tableLayout;strokeColor=default;fontSize=12;fontStyle=0;labelBackgroundColor=#fdd3e4;" vertex="1" parent="1">
          <mxGeometry x="810" y="-520" width="430" height="270" as="geometry" />
        </mxCell>
        <mxCell id="CCeei102hyegJUPTer4o-118" value="" style="shape=tableRow;horizontal=0;startSize=0;swimlaneHead=0;swimlaneBody=0;strokeColor=inherit;top=0;left=0;bottom=0;right=0;collapsible=0;dropTarget=0;fillColor=none;points=[[0,0.5],[1,0.5]];portConstraint=eastwest;fontSize=12;" vertex="1" parent="CCeei102hyegJUPTer4o-117">
          <mxGeometry y="30" width="430" height="30" as="geometry" />
        </mxCell>
        <mxCell id="CCeei102hyegJUPTer4o-119" value="&lt;b&gt;PK&lt;/b&gt;" style="shape=partialRectangle;html=1;whiteSpace=wrap;connectable=0;strokeColor=inherit;overflow=hidden;fillColor=none;top=0;left=0;bottom=0;right=0;pointerEvents=1;fontSize=12;" vertex="1" parent="CCeei102hyegJUPTer4o-118">
          <mxGeometry width="73" height="30" as="geometry">
            <mxRectangle width="73" height="30" as="alternateBounds" />
          </mxGeometry>
        </mxCell>
        <mxCell id="CCeei102hyegJUPTer4o-120" value="&lt;b style=&quot;font-size: 12px;&quot;&gt;Matricula&lt;/b&gt;" style="shape=partialRectangle;html=1;whiteSpace=wrap;connectable=0;strokeColor=inherit;overflow=hidden;fillColor=none;top=0;left=0;bottom=0;right=0;pointerEvents=1;fontSize=12;" vertex="1" parent="CCeei102hyegJUPTer4o-118">
          <mxGeometry x="73" width="158" height="30" as="geometry">
            <mxRectangle width="158" height="30" as="alternateBounds" />
          </mxGeometry>
        </mxCell>
        <mxCell id="CCeei102hyegJUPTer4o-121" value="VARCHAR(25)" style="shape=partialRectangle;html=1;whiteSpace=wrap;connectable=0;strokeColor=inherit;overflow=hidden;fillColor=none;top=0;left=0;bottom=0;right=0;pointerEvents=1;fontSize=12;" vertex="1" parent="CCeei102hyegJUPTer4o-118">
          <mxGeometry x="231" width="139" height="30" as="geometry">
            <mxRectangle width="139" height="30" as="alternateBounds" />
          </mxGeometry>
        </mxCell>
        <mxCell id="CCeei102hyegJUPTer4o-122" value="NOT NULL" style="shape=partialRectangle;html=1;whiteSpace=wrap;connectable=0;strokeColor=inherit;overflow=hidden;fillColor=none;top=0;left=0;bottom=0;right=0;pointerEvents=1;fontSize=12;" vertex="1" parent="CCeei102hyegJUPTer4o-118">
          <mxGeometry x="370" width="60" height="30" as="geometry">
            <mxRectangle width="60" height="30" as="alternateBounds" />
          </mxGeometry>
        </mxCell>
        <mxCell id="CCeei102hyegJUPTer4o-133" value="" style="shape=tableRow;horizontal=0;startSize=0;swimlaneHead=0;swimlaneBody=0;strokeColor=inherit;top=0;left=0;bottom=0;right=0;collapsible=0;dropTarget=0;fillColor=none;points=[[0,0.5],[1,0.5]];portConstraint=eastwest;fontSize=16;" vertex="1" parent="CCeei102hyegJUPTer4o-117">
          <mxGeometry y="60" width="430" height="30" as="geometry" />
        </mxCell>
        <mxCell id="CCeei102hyegJUPTer4o-134" value="" style="shape=partialRectangle;html=1;whiteSpace=wrap;connectable=0;strokeColor=inherit;overflow=hidden;fillColor=none;top=0;left=0;bottom=0;right=0;pointerEvents=1;fontSize=12;fontStyle=1" vertex="1" parent="CCeei102hyegJUPTer4o-133">
          <mxGeometry width="73" height="30" as="geometry">
            <mxRectangle width="73" height="30" as="alternateBounds" />
          </mxGeometry>
        </mxCell>
        <mxCell id="CCeei102hyegJUPTer4o-135" value="&lt;b style=&quot;font-size: 12px;&quot;&gt;numBastidor&lt;/b&gt;" style="shape=partialRectangle;html=1;whiteSpace=wrap;connectable=0;strokeColor=inherit;overflow=hidden;fillColor=none;top=0;left=0;bottom=0;right=0;pointerEvents=1;fontSize=12;" vertex="1" parent="CCeei102hyegJUPTer4o-133">
          <mxGeometry x="73" width="158" height="30" as="geometry">
            <mxRectangle width="158" height="30" as="alternateBounds" />
          </mxGeometry>
        </mxCell>
        <mxCell id="CCeei102hyegJUPTer4o-136" value="VARCHAR(25)" style="shape=partialRectangle;html=1;whiteSpace=wrap;connectable=0;strokeColor=inherit;overflow=hidden;fillColor=none;top=0;left=0;bottom=0;right=0;pointerEvents=1;fontSize=12;" vertex="1" parent="CCeei102hyegJUPTer4o-133">
          <mxGeometry x="231" width="139" height="30" as="geometry">
            <mxRectangle width="139" height="30" as="alternateBounds" />
          </mxGeometry>
        </mxCell>
        <mxCell id="CCeei102hyegJUPTer4o-137" value="NOT NULL" style="shape=partialRectangle;html=1;whiteSpace=wrap;connectable=0;strokeColor=inherit;overflow=hidden;fillColor=none;top=0;left=0;bottom=0;right=0;pointerEvents=1;fontSize=12;" vertex="1" parent="CCeei102hyegJUPTer4o-133">
          <mxGeometry x="370" width="60" height="30" as="geometry">
            <mxRectangle width="60" height="30" as="alternateBounds" />
          </mxGeometry>
        </mxCell>
        <mxCell id="CCeei102hyegJUPTer4o-138" value="" style="shape=tableRow;horizontal=0;startSize=0;swimlaneHead=0;swimlaneBody=0;strokeColor=inherit;top=0;left=0;bottom=0;right=0;collapsible=0;dropTarget=0;fillColor=none;points=[[0,0.5],[1,0.5]];portConstraint=eastwest;fontSize=16;" vertex="1" parent="CCeei102hyegJUPTer4o-117">
          <mxGeometry y="90" width="430" height="30" as="geometry" />
        </mxCell>
        <mxCell id="CCeei102hyegJUPTer4o-139" value="" style="shape=partialRectangle;html=1;whiteSpace=wrap;connectable=0;strokeColor=inherit;overflow=hidden;fillColor=none;top=0;left=0;bottom=0;right=0;pointerEvents=1;fontSize=12;fontStyle=1" vertex="1" parent="CCeei102hyegJUPTer4o-138">
          <mxGeometry width="73" height="30" as="geometry">
            <mxRectangle width="73" height="30" as="alternateBounds" />
          </mxGeometry>
        </mxCell>
        <mxCell id="CCeei102hyegJUPTer4o-140" value="&lt;b style=&quot;font-size: 12px;&quot;&gt;color&lt;/b&gt;" style="shape=partialRectangle;html=1;whiteSpace=wrap;connectable=0;strokeColor=inherit;overflow=hidden;fillColor=none;top=0;left=0;bottom=0;right=0;pointerEvents=1;fontSize=12;" vertex="1" parent="CCeei102hyegJUPTer4o-138">
          <mxGeometry x="73" width="158" height="30" as="geometry">
            <mxRectangle width="158" height="30" as="alternateBounds" />
          </mxGeometry>
        </mxCell>
        <mxCell id="CCeei102hyegJUPTer4o-141" value="VARCHAR(25)" style="shape=partialRectangle;html=1;whiteSpace=wrap;connectable=0;strokeColor=inherit;overflow=hidden;fillColor=none;top=0;left=0;bottom=0;right=0;pointerEvents=1;fontSize=12;" vertex="1" parent="CCeei102hyegJUPTer4o-138">
          <mxGeometry x="231" width="139" height="30" as="geometry">
            <mxRectangle width="139" height="30" as="alternateBounds" />
          </mxGeometry>
        </mxCell>
        <mxCell id="CCeei102hyegJUPTer4o-142" value="" style="shape=partialRectangle;html=1;whiteSpace=wrap;connectable=0;strokeColor=inherit;overflow=hidden;fillColor=none;top=0;left=0;bottom=0;right=0;pointerEvents=1;fontSize=12;" vertex="1" parent="CCeei102hyegJUPTer4o-138">
          <mxGeometry x="370" width="60" height="30" as="geometry">
            <mxRectangle width="60" height="30" as="alternateBounds" />
          </mxGeometry>
        </mxCell>
        <mxCell id="CCeei102hyegJUPTer4o-143" value="" style="shape=tableRow;horizontal=0;startSize=0;swimlaneHead=0;swimlaneBody=0;strokeColor=inherit;top=0;left=0;bottom=0;right=0;collapsible=0;dropTarget=0;fillColor=none;points=[[0,0.5],[1,0.5]];portConstraint=eastwest;fontSize=16;" vertex="1" parent="CCeei102hyegJUPTer4o-117">
          <mxGeometry y="120" width="430" height="30" as="geometry" />
        </mxCell>
        <mxCell id="CCeei102hyegJUPTer4o-144" value="" style="shape=partialRectangle;html=1;whiteSpace=wrap;connectable=0;strokeColor=inherit;overflow=hidden;fillColor=none;top=0;left=0;bottom=0;right=0;pointerEvents=1;fontSize=12;fontStyle=1" vertex="1" parent="CCeei102hyegJUPTer4o-143">
          <mxGeometry width="73" height="30" as="geometry">
            <mxRectangle width="73" height="30" as="alternateBounds" />
          </mxGeometry>
        </mxCell>
        <mxCell id="CCeei102hyegJUPTer4o-145" value="&lt;b style=&quot;font-size: 12px;&quot;&gt;marca&lt;/b&gt;" style="shape=partialRectangle;html=1;whiteSpace=wrap;connectable=0;strokeColor=inherit;overflow=hidden;fillColor=none;top=0;left=0;bottom=0;right=0;pointerEvents=1;fontSize=12;" vertex="1" parent="CCeei102hyegJUPTer4o-143">
          <mxGeometry x="73" width="158" height="30" as="geometry">
            <mxRectangle width="158" height="30" as="alternateBounds" />
          </mxGeometry>
        </mxCell>
        <mxCell id="CCeei102hyegJUPTer4o-146" value="VARCHAR(25)" style="shape=partialRectangle;html=1;whiteSpace=wrap;connectable=0;strokeColor=inherit;overflow=hidden;fillColor=none;top=0;left=0;bottom=0;right=0;pointerEvents=1;fontSize=12;" vertex="1" parent="CCeei102hyegJUPTer4o-143">
          <mxGeometry x="231" width="139" height="30" as="geometry">
            <mxRectangle width="139" height="30" as="alternateBounds" />
          </mxGeometry>
        </mxCell>
        <mxCell id="CCeei102hyegJUPTer4o-147" value="NOT NULL" style="shape=partialRectangle;html=1;whiteSpace=wrap;connectable=0;strokeColor=inherit;overflow=hidden;fillColor=none;top=0;left=0;bottom=0;right=0;pointerEvents=1;fontSize=12;" vertex="1" parent="CCeei102hyegJUPTer4o-143">
          <mxGeometry x="370" width="60" height="30" as="geometry">
            <mxRectangle width="60" height="30" as="alternateBounds" />
          </mxGeometry>
        </mxCell>
        <mxCell id="CCeei102hyegJUPTer4o-148" value="" style="shape=tableRow;horizontal=0;startSize=0;swimlaneHead=0;swimlaneBody=0;strokeColor=inherit;top=0;left=0;bottom=0;right=0;collapsible=0;dropTarget=0;fillColor=none;points=[[0,0.5],[1,0.5]];portConstraint=eastwest;fontSize=16;" vertex="1" parent="CCeei102hyegJUPTer4o-117">
          <mxGeometry y="150" width="430" height="30" as="geometry" />
        </mxCell>
        <mxCell id="CCeei102hyegJUPTer4o-149" value="" style="shape=partialRectangle;html=1;whiteSpace=wrap;connectable=0;strokeColor=inherit;overflow=hidden;fillColor=none;top=0;left=0;bottom=0;right=0;pointerEvents=1;fontSize=12;fontStyle=1" vertex="1" parent="CCeei102hyegJUPTer4o-148">
          <mxGeometry width="73" height="30" as="geometry">
            <mxRectangle width="73" height="30" as="alternateBounds" />
          </mxGeometry>
        </mxCell>
        <mxCell id="CCeei102hyegJUPTer4o-150" value="&lt;b style=&quot;font-size: 12px;&quot;&gt;modelo&lt;/b&gt;" style="shape=partialRectangle;html=1;whiteSpace=wrap;connectable=0;strokeColor=inherit;overflow=hidden;fillColor=none;top=0;left=0;bottom=0;right=0;pointerEvents=1;fontSize=12;" vertex="1" parent="CCeei102hyegJUPTer4o-148">
          <mxGeometry x="73" width="158" height="30" as="geometry">
            <mxRectangle width="158" height="30" as="alternateBounds" />
          </mxGeometry>
        </mxCell>
        <mxCell id="CCeei102hyegJUPTer4o-151" value="VARCHAR(25)" style="shape=partialRectangle;html=1;whiteSpace=wrap;connectable=0;strokeColor=inherit;overflow=hidden;fillColor=none;top=0;left=0;bottom=0;right=0;pointerEvents=1;fontSize=12;" vertex="1" parent="CCeei102hyegJUPTer4o-148">
          <mxGeometry x="231" width="139" height="30" as="geometry">
            <mxRectangle width="139" height="30" as="alternateBounds" />
          </mxGeometry>
        </mxCell>
        <mxCell id="CCeei102hyegJUPTer4o-152" value="NOT NULL" style="shape=partialRectangle;html=1;whiteSpace=wrap;connectable=0;strokeColor=inherit;overflow=hidden;fillColor=none;top=0;left=0;bottom=0;right=0;pointerEvents=1;fontSize=12;" vertex="1" parent="CCeei102hyegJUPTer4o-148">
          <mxGeometry x="370" width="60" height="30" as="geometry">
            <mxRectangle width="60" height="30" as="alternateBounds" />
          </mxGeometry>
        </mxCell>
        <mxCell id="CCeei102hyegJUPTer4o-153" value="" style="shape=tableRow;horizontal=0;startSize=0;swimlaneHead=0;swimlaneBody=0;strokeColor=inherit;top=0;left=0;bottom=0;right=0;collapsible=0;dropTarget=0;fillColor=none;points=[[0,0.5],[1,0.5]];portConstraint=eastwest;fontSize=16;" vertex="1" parent="CCeei102hyegJUPTer4o-117">
          <mxGeometry y="180" width="430" height="30" as="geometry" />
        </mxCell>
        <mxCell id="CCeei102hyegJUPTer4o-154" value="" style="shape=partialRectangle;html=1;whiteSpace=wrap;connectable=0;strokeColor=inherit;overflow=hidden;fillColor=none;top=0;left=0;bottom=0;right=0;pointerEvents=1;fontSize=12;fontStyle=1" vertex="1" parent="CCeei102hyegJUPTer4o-153">
          <mxGeometry width="73" height="30" as="geometry">
            <mxRectangle width="73" height="30" as="alternateBounds" />
          </mxGeometry>
        </mxCell>
        <mxCell id="CCeei102hyegJUPTer4o-155" value="&lt;b style=&quot;font-size: 12px;&quot;&gt;fechaIngreso&lt;/b&gt;" style="shape=partialRectangle;html=1;whiteSpace=wrap;connectable=0;strokeColor=inherit;overflow=hidden;fillColor=none;top=0;left=0;bottom=0;right=0;pointerEvents=1;fontSize=12;" vertex="1" parent="CCeei102hyegJUPTer4o-153">
          <mxGeometry x="73" width="158" height="30" as="geometry">
            <mxRectangle width="158" height="30" as="alternateBounds" />
          </mxGeometry>
        </mxCell>
        <mxCell id="CCeei102hyegJUPTer4o-156" value="VARCHAR(25)" style="shape=partialRectangle;html=1;whiteSpace=wrap;connectable=0;strokeColor=inherit;overflow=hidden;fillColor=none;top=0;left=0;bottom=0;right=0;pointerEvents=1;fontSize=12;" vertex="1" parent="CCeei102hyegJUPTer4o-153">
          <mxGeometry x="231" width="139" height="30" as="geometry">
            <mxRectangle width="139" height="30" as="alternateBounds" />
          </mxGeometry>
        </mxCell>
        <mxCell id="CCeei102hyegJUPTer4o-157" value="NOT NULL" style="shape=partialRectangle;html=1;whiteSpace=wrap;connectable=0;strokeColor=inherit;overflow=hidden;fillColor=none;top=0;left=0;bottom=0;right=0;pointerEvents=1;fontSize=12;" vertex="1" parent="CCeei102hyegJUPTer4o-153">
          <mxGeometry x="370" width="60" height="30" as="geometry">
            <mxRectangle width="60" height="30" as="alternateBounds" />
          </mxGeometry>
        </mxCell>
        <mxCell id="CCeei102hyegJUPTer4o-158" value="" style="shape=tableRow;horizontal=0;startSize=0;swimlaneHead=0;swimlaneBody=0;strokeColor=inherit;top=0;left=0;bottom=0;right=0;collapsible=0;dropTarget=0;fillColor=none;points=[[0,0.5],[1,0.5]];portConstraint=eastwest;fontSize=16;" vertex="1" parent="CCeei102hyegJUPTer4o-117">
          <mxGeometry y="210" width="430" height="30" as="geometry" />
        </mxCell>
        <mxCell id="CCeei102hyegJUPTer4o-159" value="FK1" style="shape=partialRectangle;html=1;whiteSpace=wrap;connectable=0;strokeColor=inherit;overflow=hidden;fillColor=none;top=0;left=0;bottom=0;right=0;pointerEvents=1;fontSize=12;fontStyle=1" vertex="1" parent="CCeei102hyegJUPTer4o-158">
          <mxGeometry width="73" height="30" as="geometry">
            <mxRectangle width="73" height="30" as="alternateBounds" />
          </mxGeometry>
        </mxCell>
        <mxCell id="CCeei102hyegJUPTer4o-160" value="&lt;b style=&quot;font-size: 12px;&quot;&gt;nombre_Ciudad&lt;/b&gt;" style="shape=partialRectangle;html=1;whiteSpace=wrap;connectable=0;strokeColor=inherit;overflow=hidden;fillColor=none;top=0;left=0;bottom=0;right=0;pointerEvents=1;fontSize=12;" vertex="1" parent="CCeei102hyegJUPTer4o-158">
          <mxGeometry x="73" width="158" height="30" as="geometry">
            <mxRectangle width="158" height="30" as="alternateBounds" />
          </mxGeometry>
        </mxCell>
        <mxCell id="CCeei102hyegJUPTer4o-161" value="VARCHAR(40)" style="shape=partialRectangle;html=1;whiteSpace=wrap;connectable=0;strokeColor=inherit;overflow=hidden;fillColor=none;top=0;left=0;bottom=0;right=0;pointerEvents=1;fontSize=12;" vertex="1" parent="CCeei102hyegJUPTer4o-158">
          <mxGeometry x="231" width="139" height="30" as="geometry">
            <mxRectangle width="139" height="30" as="alternateBounds" />
          </mxGeometry>
        </mxCell>
        <mxCell id="CCeei102hyegJUPTer4o-162" value="NOT NULL" style="shape=partialRectangle;html=1;whiteSpace=wrap;connectable=0;strokeColor=inherit;overflow=hidden;fillColor=none;top=0;left=0;bottom=0;right=0;pointerEvents=1;fontSize=12;" vertex="1" parent="CCeei102hyegJUPTer4o-158">
          <mxGeometry x="370" width="60" height="30" as="geometry">
            <mxRectangle width="60" height="30" as="alternateBounds" />
          </mxGeometry>
        </mxCell>
        <mxCell id="CCeei102hyegJUPTer4o-163" value="" style="shape=tableRow;horizontal=0;startSize=0;swimlaneHead=0;swimlaneBody=0;strokeColor=inherit;top=0;left=0;bottom=0;right=0;collapsible=0;dropTarget=0;fillColor=none;points=[[0,0.5],[1,0.5]];portConstraint=eastwest;fontSize=16;" vertex="1" parent="CCeei102hyegJUPTer4o-117">
          <mxGeometry y="240" width="430" height="30" as="geometry" />
        </mxCell>
        <mxCell id="CCeei102hyegJUPTer4o-164" value="FK2" style="shape=partialRectangle;html=1;whiteSpace=wrap;connectable=0;strokeColor=inherit;overflow=hidden;fillColor=none;top=0;left=0;bottom=0;right=0;pointerEvents=1;fontSize=12;fontStyle=1" vertex="1" parent="CCeei102hyegJUPTer4o-163">
          <mxGeometry width="73" height="30" as="geometry">
            <mxRectangle width="73" height="30" as="alternateBounds" />
          </mxGeometry>
        </mxCell>
        <mxCell id="CCeei102hyegJUPTer4o-165" value="&lt;b style=&quot;font-size: 12px;&quot;&gt;id_Agencia&lt;/b&gt;" style="shape=partialRectangle;html=1;whiteSpace=wrap;connectable=0;strokeColor=inherit;overflow=hidden;fillColor=none;top=0;left=0;bottom=0;right=0;pointerEvents=1;fontSize=12;" vertex="1" parent="CCeei102hyegJUPTer4o-163">
          <mxGeometry x="73" width="158" height="30" as="geometry">
            <mxRectangle width="158" height="30" as="alternateBounds" />
          </mxGeometry>
        </mxCell>
        <mxCell id="CCeei102hyegJUPTer4o-166" value="INT" style="shape=partialRectangle;html=1;whiteSpace=wrap;connectable=0;strokeColor=inherit;overflow=hidden;fillColor=none;top=0;left=0;bottom=0;right=0;pointerEvents=1;fontSize=12;" vertex="1" parent="CCeei102hyegJUPTer4o-163">
          <mxGeometry x="231" width="139" height="30" as="geometry">
            <mxRectangle width="139" height="30" as="alternateBounds" />
          </mxGeometry>
        </mxCell>
        <mxCell id="CCeei102hyegJUPTer4o-167" value="NOT NULL" style="shape=partialRectangle;html=1;whiteSpace=wrap;connectable=0;strokeColor=inherit;overflow=hidden;fillColor=none;top=0;left=0;bottom=0;right=0;pointerEvents=1;fontSize=12;" vertex="1" parent="CCeei102hyegJUPTer4o-163">
          <mxGeometry x="370" width="60" height="30" as="geometry">
            <mxRectangle width="60" height="30" as="alternateBounds" />
          </mxGeometry>
        </mxCell>
        <mxCell id="CCeei102hyegJUPTer4o-168" value="" style="edgeStyle=entityRelationEdgeStyle;fontSize=12;html=1;endArrow=ERoneToMany;rounded=0;exitX=0;exitY=0.5;exitDx=0;exitDy=0;entryX=1;entryY=0.5;entryDx=0;entryDy=0;" edge="1" parent="1" source="CCeei102hyegJUPTer4o-143" target="CCeei102hyegJUPTer4o-170">
          <mxGeometry width="100" height="100" relative="1" as="geometry">
            <mxPoint x="100" y="-345" as="sourcePoint" />
            <mxPoint x="230" y="-375" as="targetPoint" />
          </mxGeometry>
        </mxCell>
        <mxCell id="CCeei102hyegJUPTer4o-169" value="" style="edgeStyle=entityRelationEdgeStyle;fontSize=12;html=1;endArrow=ERoneToMany;rounded=0;exitX=1;exitY=0.5;exitDx=0;exitDy=0;entryX=0;entryY=0.5;entryDx=0;entryDy=0;" edge="1" parent="1" source="CCeei102hyegJUPTer4o-78" target="CCeei102hyegJUPTer4o-163">
          <mxGeometry width="100" height="100" relative="1" as="geometry">
            <mxPoint x="100" y="25" as="sourcePoint" />
            <mxPoint x="230" y="-225" as="targetPoint" />
          </mxGeometry>
        </mxCell>
        <mxCell id="CCeei102hyegJUPTer4o-175" value="Garaje" style="shape=table;startSize=30;container=1;collapsible=0;childLayout=tableLayout;strokeColor=default;fontSize=12;fontStyle=0;labelBackgroundColor=#fdd3e4;" vertex="1" parent="1">
          <mxGeometry x="870" y="-120" width="350" height="120" as="geometry" />
        </mxCell>
        <mxCell id="CCeei102hyegJUPTer4o-176" value="" style="shape=tableRow;horizontal=0;startSize=0;swimlaneHead=0;swimlaneBody=0;strokeColor=inherit;top=0;left=0;bottom=0;right=0;collapsible=0;dropTarget=0;fillColor=none;points=[[0,0.5],[1,0.5]];portConstraint=eastwest;fontSize=12;" vertex="1" parent="CCeei102hyegJUPTer4o-175">
          <mxGeometry y="30" width="350" height="30" as="geometry" />
        </mxCell>
        <mxCell id="CCeei102hyegJUPTer4o-177" value="&lt;b style=&quot;font-size: 12px;&quot;&gt;PK&lt;/b&gt;" style="shape=partialRectangle;html=1;whiteSpace=wrap;connectable=0;strokeColor=inherit;overflow=hidden;fillColor=none;top=0;left=0;bottom=0;right=0;pointerEvents=1;fontSize=12;" vertex="1" parent="CCeei102hyegJUPTer4o-176">
          <mxGeometry width="74" height="30" as="geometry">
            <mxRectangle width="74" height="30" as="alternateBounds" />
          </mxGeometry>
        </mxCell>
        <mxCell id="CCeei102hyegJUPTer4o-178" value="&lt;b style=&quot;font-size: 12px;&quot;&gt;nombre_Garaje&lt;/b&gt;" style="shape=partialRectangle;html=1;whiteSpace=wrap;connectable=0;strokeColor=inherit;overflow=hidden;fillColor=none;top=0;left=0;bottom=0;right=0;pointerEvents=1;fontSize=12;" vertex="1" parent="CCeei102hyegJUPTer4o-176">
          <mxGeometry x="74" width="140" height="30" as="geometry">
            <mxRectangle width="140" height="30" as="alternateBounds" />
          </mxGeometry>
        </mxCell>
        <mxCell id="CCeei102hyegJUPTer4o-179" value="VARCHAR(40)" style="shape=partialRectangle;html=1;whiteSpace=wrap;connectable=0;strokeColor=inherit;overflow=hidden;fillColor=none;top=0;left=0;bottom=0;right=0;pointerEvents=1;fontSize=12;" vertex="1" parent="CCeei102hyegJUPTer4o-176">
          <mxGeometry x="214" width="86" height="30" as="geometry">
            <mxRectangle width="86" height="30" as="alternateBounds" />
          </mxGeometry>
        </mxCell>
        <mxCell id="CCeei102hyegJUPTer4o-180" value="NOT NULL" style="shape=partialRectangle;html=1;whiteSpace=wrap;connectable=0;strokeColor=inherit;overflow=hidden;fillColor=none;top=0;left=0;bottom=0;right=0;pointerEvents=1;fontSize=12;" vertex="1" parent="CCeei102hyegJUPTer4o-176">
          <mxGeometry x="300" width="50" height="30" as="geometry">
            <mxRectangle width="50" height="30" as="alternateBounds" />
          </mxGeometry>
        </mxCell>
        <mxCell id="CCeei102hyegJUPTer4o-181" value="" style="shape=tableRow;horizontal=0;startSize=0;swimlaneHead=0;swimlaneBody=0;strokeColor=inherit;top=0;left=0;bottom=0;right=0;collapsible=0;dropTarget=0;fillColor=none;points=[[0,0.5],[1,0.5]];portConstraint=eastwest;fontSize=16;" vertex="1" parent="CCeei102hyegJUPTer4o-175">
          <mxGeometry y="60" width="350" height="30" as="geometry" />
        </mxCell>
        <mxCell id="CCeei102hyegJUPTer4o-182" value="PFK" style="shape=partialRectangle;html=1;whiteSpace=wrap;connectable=0;strokeColor=inherit;overflow=hidden;fillColor=none;top=0;left=0;bottom=0;right=0;pointerEvents=1;fontSize=12;fontStyle=1" vertex="1" parent="CCeei102hyegJUPTer4o-181">
          <mxGeometry width="74" height="30" as="geometry">
            <mxRectangle width="74" height="30" as="alternateBounds" />
          </mxGeometry>
        </mxCell>
        <mxCell id="CCeei102hyegJUPTer4o-183" value="&lt;b style=&quot;font-size: 12px;&quot;&gt;nombre_Ciudad&lt;/b&gt;" style="shape=partialRectangle;html=1;whiteSpace=wrap;connectable=0;strokeColor=inherit;overflow=hidden;fillColor=none;top=0;left=0;bottom=0;right=0;pointerEvents=1;fontSize=12;" vertex="1" parent="CCeei102hyegJUPTer4o-181">
          <mxGeometry x="74" width="140" height="30" as="geometry">
            <mxRectangle width="140" height="30" as="alternateBounds" />
          </mxGeometry>
        </mxCell>
        <mxCell id="CCeei102hyegJUPTer4o-184" value="VARCHAR(40)" style="shape=partialRectangle;html=1;whiteSpace=wrap;connectable=0;strokeColor=inherit;overflow=hidden;fillColor=none;top=0;left=0;bottom=0;right=0;pointerEvents=1;fontSize=12;" vertex="1" parent="CCeei102hyegJUPTer4o-181">
          <mxGeometry x="214" width="86" height="30" as="geometry">
            <mxRectangle width="86" height="30" as="alternateBounds" />
          </mxGeometry>
        </mxCell>
        <mxCell id="CCeei102hyegJUPTer4o-185" value="NOT NULL" style="shape=partialRectangle;html=1;whiteSpace=wrap;connectable=0;strokeColor=inherit;overflow=hidden;fillColor=none;top=0;left=0;bottom=0;right=0;pointerEvents=1;fontSize=12;" vertex="1" parent="CCeei102hyegJUPTer4o-181">
          <mxGeometry x="300" width="50" height="30" as="geometry">
            <mxRectangle width="50" height="30" as="alternateBounds" />
          </mxGeometry>
        </mxCell>
        <mxCell id="CCeei102hyegJUPTer4o-198" value="" style="shape=tableRow;horizontal=0;startSize=0;swimlaneHead=0;swimlaneBody=0;strokeColor=inherit;top=0;left=0;bottom=0;right=0;collapsible=0;dropTarget=0;fillColor=none;points=[[0,0.5],[1,0.5]];portConstraint=eastwest;fontSize=16;" vertex="1" parent="CCeei102hyegJUPTer4o-175">
          <mxGeometry y="90" width="350" height="30" as="geometry" />
        </mxCell>
        <mxCell id="CCeei102hyegJUPTer4o-199" value="" style="shape=partialRectangle;html=1;whiteSpace=wrap;connectable=0;strokeColor=inherit;overflow=hidden;fillColor=none;top=0;left=0;bottom=0;right=0;pointerEvents=1;fontSize=12;fontStyle=1" vertex="1" parent="CCeei102hyegJUPTer4o-198">
          <mxGeometry width="74" height="30" as="geometry">
            <mxRectangle width="74" height="30" as="alternateBounds" />
          </mxGeometry>
        </mxCell>
        <mxCell id="CCeei102hyegJUPTer4o-200" value="&lt;b style=&quot;font-size: 12px;&quot;&gt;direccion&lt;/b&gt;" style="shape=partialRectangle;html=1;whiteSpace=wrap;connectable=0;strokeColor=inherit;overflow=hidden;fillColor=none;top=0;left=0;bottom=0;right=0;pointerEvents=1;fontSize=12;" vertex="1" parent="CCeei102hyegJUPTer4o-198">
          <mxGeometry x="74" width="140" height="30" as="geometry">
            <mxRectangle width="140" height="30" as="alternateBounds" />
          </mxGeometry>
        </mxCell>
        <mxCell id="CCeei102hyegJUPTer4o-201" value="VARCHAR(40)" style="shape=partialRectangle;html=1;whiteSpace=wrap;connectable=0;strokeColor=inherit;overflow=hidden;fillColor=none;top=0;left=0;bottom=0;right=0;pointerEvents=1;fontSize=12;" vertex="1" parent="CCeei102hyegJUPTer4o-198">
          <mxGeometry x="214" width="86" height="30" as="geometry">
            <mxRectangle width="86" height="30" as="alternateBounds" />
          </mxGeometry>
        </mxCell>
        <mxCell id="CCeei102hyegJUPTer4o-202" value="NOT NULL" style="shape=partialRectangle;html=1;whiteSpace=wrap;connectable=0;strokeColor=inherit;overflow=hidden;fillColor=none;top=0;left=0;bottom=0;right=0;pointerEvents=1;fontSize=12;" vertex="1" parent="CCeei102hyegJUPTer4o-198">
          <mxGeometry x="300" width="50" height="30" as="geometry">
            <mxRectangle width="50" height="30" as="alternateBounds" />
          </mxGeometry>
        </mxCell>
        <mxCell id="CCeei102hyegJUPTer4o-186" value="" style="edgeStyle=entityRelationEdgeStyle;fontSize=12;html=1;endArrow=ERoneToMany;rounded=0;exitX=1;exitY=0.25;exitDx=0;exitDy=0;" edge="1" parent="1" source="CCeei102hyegJUPTer4o-175" target="CCeei102hyegJUPTer4o-163">
          <mxGeometry width="100" height="100" relative="1" as="geometry">
            <mxPoint x="420" y="80" as="sourcePoint" />
            <mxPoint x="1140" y="-230" as="targetPoint" />
          </mxGeometry>
        </mxCell>
        <mxCell id="CCeei102hyegJUPTer4o-203" value="Ciudad" style="shape=table;startSize=30;container=1;collapsible=0;childLayout=tableLayout;strokeColor=default;fontSize=12;fontStyle=0;labelBackgroundColor=#fdd3e4;" vertex="1" parent="1">
          <mxGeometry x="870" y="70" width="350" height="150" as="geometry" />
        </mxCell>
        <mxCell id="CCeei102hyegJUPTer4o-204" value="" style="shape=tableRow;horizontal=0;startSize=0;swimlaneHead=0;swimlaneBody=0;strokeColor=inherit;top=0;left=0;bottom=0;right=0;collapsible=0;dropTarget=0;fillColor=none;points=[[0,0.5],[1,0.5]];portConstraint=eastwest;fontSize=12;" vertex="1" parent="CCeei102hyegJUPTer4o-203">
          <mxGeometry y="30" width="350" height="30" as="geometry" />
        </mxCell>
        <mxCell id="CCeei102hyegJUPTer4o-205" value="&lt;b style=&quot;font-size: 12px;&quot;&gt;PK&lt;/b&gt;" style="shape=partialRectangle;html=1;whiteSpace=wrap;connectable=0;strokeColor=inherit;overflow=hidden;fillColor=none;top=0;left=0;bottom=0;right=0;pointerEvents=1;fontSize=12;" vertex="1" parent="CCeei102hyegJUPTer4o-204">
          <mxGeometry width="74" height="30" as="geometry">
            <mxRectangle width="74" height="30" as="alternateBounds" />
          </mxGeometry>
        </mxCell>
        <mxCell id="CCeei102hyegJUPTer4o-206" value="&lt;b style=&quot;font-size: 12px;&quot;&gt;nombre_Ciudad&lt;/b&gt;" style="shape=partialRectangle;html=1;whiteSpace=wrap;connectable=0;strokeColor=inherit;overflow=hidden;fillColor=none;top=0;left=0;bottom=0;right=0;pointerEvents=1;fontSize=12;" vertex="1" parent="CCeei102hyegJUPTer4o-204">
          <mxGeometry x="74" width="140" height="30" as="geometry">
            <mxRectangle width="140" height="30" as="alternateBounds" />
          </mxGeometry>
        </mxCell>
        <mxCell id="CCeei102hyegJUPTer4o-207" value="VARCHAR(40)" style="shape=partialRectangle;html=1;whiteSpace=wrap;connectable=0;strokeColor=inherit;overflow=hidden;fillColor=none;top=0;left=0;bottom=0;right=0;pointerEvents=1;fontSize=12;" vertex="1" parent="CCeei102hyegJUPTer4o-204">
          <mxGeometry x="214" width="86" height="30" as="geometry">
            <mxRectangle width="86" height="30" as="alternateBounds" />
          </mxGeometry>
        </mxCell>
        <mxCell id="CCeei102hyegJUPTer4o-208" value="NOT NULL" style="shape=partialRectangle;html=1;whiteSpace=wrap;connectable=0;strokeColor=inherit;overflow=hidden;fillColor=none;top=0;left=0;bottom=0;right=0;pointerEvents=1;fontSize=12;" vertex="1" parent="CCeei102hyegJUPTer4o-204">
          <mxGeometry x="300" width="50" height="30" as="geometry">
            <mxRectangle width="50" height="30" as="alternateBounds" />
          </mxGeometry>
        </mxCell>
        <mxCell id="CCeei102hyegJUPTer4o-214" value="" style="shape=tableRow;horizontal=0;startSize=0;swimlaneHead=0;swimlaneBody=0;strokeColor=inherit;top=0;left=0;bottom=0;right=0;collapsible=0;dropTarget=0;fillColor=none;points=[[0,0.5],[1,0.5]];portConstraint=eastwest;fontSize=16;" vertex="1" parent="CCeei102hyegJUPTer4o-203">
          <mxGeometry y="60" width="350" height="30" as="geometry" />
        </mxCell>
        <mxCell id="CCeei102hyegJUPTer4o-215" value="" style="shape=partialRectangle;html=1;whiteSpace=wrap;connectable=0;strokeColor=inherit;overflow=hidden;fillColor=none;top=0;left=0;bottom=0;right=0;pointerEvents=1;fontSize=12;fontStyle=1" vertex="1" parent="CCeei102hyegJUPTer4o-214">
          <mxGeometry width="74" height="30" as="geometry">
            <mxRectangle width="74" height="30" as="alternateBounds" />
          </mxGeometry>
        </mxCell>
        <mxCell id="CCeei102hyegJUPTer4o-216" value="&lt;b style=&quot;font-size: 12px;&quot;&gt;numHabitantes&lt;/b&gt;" style="shape=partialRectangle;html=1;whiteSpace=wrap;connectable=0;strokeColor=inherit;overflow=hidden;fillColor=none;top=0;left=0;bottom=0;right=0;pointerEvents=1;fontSize=12;" vertex="1" parent="CCeei102hyegJUPTer4o-214">
          <mxGeometry x="74" width="140" height="30" as="geometry">
            <mxRectangle width="140" height="30" as="alternateBounds" />
          </mxGeometry>
        </mxCell>
        <mxCell id="CCeei102hyegJUPTer4o-217" value="VARCHAR(40)" style="shape=partialRectangle;html=1;whiteSpace=wrap;connectable=0;strokeColor=inherit;overflow=hidden;fillColor=none;top=0;left=0;bottom=0;right=0;pointerEvents=1;fontSize=12;" vertex="1" parent="CCeei102hyegJUPTer4o-214">
          <mxGeometry x="214" width="86" height="30" as="geometry">
            <mxRectangle width="86" height="30" as="alternateBounds" />
          </mxGeometry>
        </mxCell>
        <mxCell id="CCeei102hyegJUPTer4o-218" value="" style="shape=partialRectangle;html=1;whiteSpace=wrap;connectable=0;strokeColor=inherit;overflow=hidden;fillColor=none;top=0;left=0;bottom=0;right=0;pointerEvents=1;fontSize=12;" vertex="1" parent="CCeei102hyegJUPTer4o-214">
          <mxGeometry x="300" width="50" height="30" as="geometry">
            <mxRectangle width="50" height="30" as="alternateBounds" />
          </mxGeometry>
        </mxCell>
        <mxCell id="CCeei102hyegJUPTer4o-219" value="" style="shape=tableRow;horizontal=0;startSize=0;swimlaneHead=0;swimlaneBody=0;strokeColor=inherit;top=0;left=0;bottom=0;right=0;collapsible=0;dropTarget=0;fillColor=none;points=[[0,0.5],[1,0.5]];portConstraint=eastwest;fontSize=16;" vertex="1" parent="CCeei102hyegJUPTer4o-203">
          <mxGeometry y="90" width="350" height="30" as="geometry" />
        </mxCell>
        <mxCell id="CCeei102hyegJUPTer4o-220" value="" style="shape=partialRectangle;html=1;whiteSpace=wrap;connectable=0;strokeColor=inherit;overflow=hidden;fillColor=none;top=0;left=0;bottom=0;right=0;pointerEvents=1;fontSize=12;fontStyle=1" vertex="1" parent="CCeei102hyegJUPTer4o-219">
          <mxGeometry width="74" height="30" as="geometry">
            <mxRectangle width="74" height="30" as="alternateBounds" />
          </mxGeometry>
        </mxCell>
        <mxCell id="CCeei102hyegJUPTer4o-221" value="&lt;b style=&quot;font-size: 12px;&quot;&gt;provincia&lt;/b&gt;" style="shape=partialRectangle;html=1;whiteSpace=wrap;connectable=0;strokeColor=inherit;overflow=hidden;fillColor=none;top=0;left=0;bottom=0;right=0;pointerEvents=1;fontSize=12;" vertex="1" parent="CCeei102hyegJUPTer4o-219">
          <mxGeometry x="74" width="140" height="30" as="geometry">
            <mxRectangle width="140" height="30" as="alternateBounds" />
          </mxGeometry>
        </mxCell>
        <mxCell id="CCeei102hyegJUPTer4o-222" value="VARCHAR(40)" style="shape=partialRectangle;html=1;whiteSpace=wrap;connectable=0;strokeColor=inherit;overflow=hidden;fillColor=none;top=0;left=0;bottom=0;right=0;pointerEvents=1;fontSize=12;" vertex="1" parent="CCeei102hyegJUPTer4o-219">
          <mxGeometry x="214" width="86" height="30" as="geometry">
            <mxRectangle width="86" height="30" as="alternateBounds" />
          </mxGeometry>
        </mxCell>
        <mxCell id="CCeei102hyegJUPTer4o-223" value="NOT NULL" style="shape=partialRectangle;html=1;whiteSpace=wrap;connectable=0;strokeColor=inherit;overflow=hidden;fillColor=none;top=0;left=0;bottom=0;right=0;pointerEvents=1;fontSize=12;" vertex="1" parent="CCeei102hyegJUPTer4o-219">
          <mxGeometry x="300" width="50" height="30" as="geometry">
            <mxRectangle width="50" height="30" as="alternateBounds" />
          </mxGeometry>
        </mxCell>
        <mxCell id="CCeei102hyegJUPTer4o-224" value="" style="shape=tableRow;horizontal=0;startSize=0;swimlaneHead=0;swimlaneBody=0;strokeColor=inherit;top=0;left=0;bottom=0;right=0;collapsible=0;dropTarget=0;fillColor=none;points=[[0,0.5],[1,0.5]];portConstraint=eastwest;fontSize=16;" vertex="1" parent="CCeei102hyegJUPTer4o-203">
          <mxGeometry y="120" width="350" height="30" as="geometry" />
        </mxCell>
        <mxCell id="CCeei102hyegJUPTer4o-225" value="" style="shape=partialRectangle;html=1;whiteSpace=wrap;connectable=0;strokeColor=inherit;overflow=hidden;fillColor=none;top=0;left=0;bottom=0;right=0;pointerEvents=1;fontSize=12;fontStyle=1" vertex="1" parent="CCeei102hyegJUPTer4o-224">
          <mxGeometry width="74" height="30" as="geometry">
            <mxRectangle width="74" height="30" as="alternateBounds" />
          </mxGeometry>
        </mxCell>
        <mxCell id="CCeei102hyegJUPTer4o-226" value="&lt;b style=&quot;font-size: 12px;&quot;&gt;numPostal&lt;/b&gt;" style="shape=partialRectangle;html=1;whiteSpace=wrap;connectable=0;strokeColor=inherit;overflow=hidden;fillColor=none;top=0;left=0;bottom=0;right=0;pointerEvents=1;fontSize=12;" vertex="1" parent="CCeei102hyegJUPTer4o-224">
          <mxGeometry x="74" width="140" height="30" as="geometry">
            <mxRectangle width="140" height="30" as="alternateBounds" />
          </mxGeometry>
        </mxCell>
        <mxCell id="CCeei102hyegJUPTer4o-227" value="CHAR(5)" style="shape=partialRectangle;html=1;whiteSpace=wrap;connectable=0;strokeColor=inherit;overflow=hidden;fillColor=none;top=0;left=0;bottom=0;right=0;pointerEvents=1;fontSize=12;" vertex="1" parent="CCeei102hyegJUPTer4o-224">
          <mxGeometry x="214" width="86" height="30" as="geometry">
            <mxRectangle width="86" height="30" as="alternateBounds" />
          </mxGeometry>
        </mxCell>
        <mxCell id="CCeei102hyegJUPTer4o-228" value="NOT NULL" style="shape=partialRectangle;html=1;whiteSpace=wrap;connectable=0;strokeColor=inherit;overflow=hidden;fillColor=none;top=0;left=0;bottom=0;right=0;pointerEvents=1;fontSize=12;" vertex="1" parent="CCeei102hyegJUPTer4o-224">
          <mxGeometry x="300" width="50" height="30" as="geometry">
            <mxRectangle width="50" height="30" as="alternateBounds" />
          </mxGeometry>
        </mxCell>
        <mxCell id="CCeei102hyegJUPTer4o-229" value="" style="edgeStyle=entityRelationEdgeStyle;fontSize=12;html=1;endArrow=ERoneToMany;rounded=0;exitX=1;exitY=0.5;exitDx=0;exitDy=0;entryX=1;entryY=0.5;entryDx=0;entryDy=0;" edge="1" parent="1" source="CCeei102hyegJUPTer4o-204" target="CCeei102hyegJUPTer4o-198">
          <mxGeometry width="100" height="100" relative="1" as="geometry">
            <mxPoint x="1230" y="-80" as="sourcePoint" />
            <mxPoint x="1250" y="-255" as="targetPoint" />
          </mxGeometry>
        </mxCell>
      </root>
    </mxGraphModel>
  </diagram>
</mxfile>
